G04 This is an RS-274x file exported by *
G04 gerbv version v2.13.0-83-g9c90d823 *
G04 More information is available about gerbv at *
G04 https://gerbv.github.io/ *
G04 --End of header info--*
%MOIN*%
%FSLAX36Y36*%
%IPPOS*%
G04 --Define apertures--*
%ADD10R,0.0500X0.0400*%
%ADD11R,0.0380X0.0300*%
%ADD12R,0.0600X0.0600*%
%ADD13R,0.0600X0.0500*%
%ADD14R,0.0500X0.0600*%
%ADD15R,0.0400X0.0500*%
%ADD16R,0.1000X0.0400*%
%ADD17R,0.0300X0.0380*%
%ADD18O,0.0240X0.0740*%
%ADD19R,0.0315X0.0118*%
%ADD20R,0.0315X0.0157*%
%ADD21O,0.0740X0.0240*%
%ADD22R,0.0906X0.0591*%
%ADD23R,0.2000X0.0700*%
%ADD24O,0.0130X0.0600*%
%ADD25R,0.0591X0.0906*%
%ADD26R,0.0450X0.0650*%
%ADD27R,0.1180X0.0650*%
%ADD28R,0.1000X0.0800*%
%ADD29R,0.0591X0.0100*%
%ADD30R,0.0100X0.0591*%
%ADD31R,0.0472X0.0492*%
%ADD32C,0.0020*%
G04 --Start main section--*
G54D10*
G01X5021930Y3902130D03*
G01X5111930Y3862130D03*
G01X5111930Y3942130D03*
G54D11*
G01X6485930Y3737130D03*
G01X6547930Y3737130D03*
G01X4810930Y5167130D03*
G01X4872930Y5167130D03*
G54D10*
G01X7341930Y3902130D03*
G01X7431930Y3862130D03*
G01X7431930Y3942130D03*
G54D12*
G01X8514430Y5432130D03*
G01X8379430Y5432130D03*
G54D13*
G01X6221930Y3657130D03*
G01X6321930Y3657130D03*
G54D14*
G01X8781930Y3767130D03*
G01X8781930Y3867130D03*
G54D11*
G01X7826770Y6232190D03*
G01X7764770Y6232190D03*
G54D13*
G01X11571930Y5247130D03*
G01X11671930Y5247130D03*
G54D11*
G01X7310930Y6307130D03*
G01X7372930Y6307130D03*
G54D15*
G01X7091930Y6592130D03*
G01X7051930Y6502130D03*
G01X7131930Y6502130D03*
G54D11*
G01X10605930Y3737130D03*
G01X10667930Y3737130D03*
G01X6780930Y3737130D03*
G01X6842930Y3737130D03*
G01X5032930Y6317130D03*
G01X4970930Y6317130D03*
G54D13*
G01X7386930Y3657130D03*
G01X7486930Y3657130D03*
G54D16*
G01X4910930Y4591130D03*
G01X4710930Y4591130D03*
G01X4910930Y4671130D03*
G01X4710930Y4671130D03*
G01X4910930Y4751130D03*
G01X4710930Y4751130D03*
G01X4910930Y4831130D03*
G01X4710930Y4831130D03*
G01X4910930Y4911130D03*
G01X4710930Y4911130D03*
G01X4910930Y4991130D03*
G01X4710930Y4991130D03*
G01X4910100Y5071130D03*
G01X4710930Y5071130D03*
G54D17*
G01X11806930Y4471130D03*
G01X11806930Y4533130D03*
G54D13*
G01X11571930Y5147130D03*
G01X11671930Y5147130D03*
G54D11*
G01X11215930Y3997130D03*
G01X11277930Y3997130D03*
G54D18*
G01X11516930Y4345130D03*
G01X11466930Y4345130D03*
G01X11416930Y4345130D03*
G01X11366930Y4345130D03*
G01X11316930Y4345130D03*
G01X11266930Y4345130D03*
G01X11216930Y4345130D03*
G01X11216930Y4119130D03*
G01X11266930Y4119130D03*
G01X11316930Y4119130D03*
G01X11366930Y4119130D03*
G01X11416930Y4119130D03*
G01X11466930Y4119130D03*
G01X11516930Y4119130D03*
G54D17*
G01X11681930Y4533130D03*
G01X11681930Y4471130D03*
G54D18*
G01X6863930Y5922130D03*
G01X6913930Y5922130D03*
G01X6963930Y5922130D03*
G01X7013930Y5922130D03*
G01X7013930Y6148130D03*
G01X6963930Y6148130D03*
G01X6913930Y6148130D03*
G01X6863930Y6148130D03*
G54D13*
G01X11221930Y3657130D03*
G01X11321930Y3657130D03*
G54D11*
G01X10357930Y3797130D03*
G01X10295930Y3797130D03*
G01X6815930Y6312130D03*
G01X6877930Y6312130D03*
G54D10*
G01X10881930Y3902130D03*
G01X10971930Y3862130D03*
G01X10971930Y3942130D03*
G54D13*
G01X5943410Y6617610D03*
G01X6043410Y6617610D03*
G54D19*
G01X6177245Y6032721D03*
G01X6177245Y6007130D03*
G01X6177245Y5981539D03*
G54D20*
G01X6273702Y5981539D03*
G01X6273702Y6032721D03*
G54D11*
G01X11495930Y3737130D03*
G01X11557930Y3737130D03*
G54D12*
G01X11704430Y4627130D03*
G01X11569430Y4627130D03*
G54D17*
G01X8117140Y6236130D03*
G01X8117140Y6298130D03*
G54D10*
G01X4729040Y3903220D03*
G01X4819040Y3863220D03*
G01X4819040Y3943220D03*
G54D11*
G01X9395930Y5347130D03*
G01X9457930Y5347130D03*
G01X5032930Y6257130D03*
G01X4970930Y6257130D03*
G54D21*
G01X11618930Y4397130D03*
G01X11618930Y4347130D03*
G01X11618930Y4297130D03*
G01X11618930Y4247130D03*
G01X11844930Y4247130D03*
G01X11844930Y4297130D03*
G01X11844930Y4347130D03*
G01X11844930Y4397130D03*
G54D13*
G01X6506930Y3657130D03*
G01X6606930Y3657130D03*
G01X5641930Y3657130D03*
G01X5741930Y3657130D03*
G54D14*
G01X9906930Y3767130D03*
G01X9906930Y3867130D03*
G54D11*
G01X9750930Y3737130D03*
G01X9812930Y3737130D03*
G54D13*
G01X8931930Y3657130D03*
G01X9031930Y3657130D03*
G54D11*
G01X8915930Y3997130D03*
G01X8977930Y3997130D03*
G01X5040930Y3737130D03*
G01X5102930Y3737130D03*
G01X7665930Y3997130D03*
G01X7727930Y3997130D03*
G54D17*
G01X11866930Y4533130D03*
G01X11866930Y4471130D03*
G54D14*
G01X9763780Y5511810D03*
G01X9763780Y5611810D03*
G54D11*
G01X10910930Y3737130D03*
G01X10972930Y3737130D03*
G01X6611410Y6248610D03*
G01X6673410Y6248610D03*
G01X7627930Y6227610D03*
G01X7565930Y6227610D03*
G54D14*
G01X6346930Y3767130D03*
G01X6346930Y3867130D03*
G54D22*
G01X8273460Y6396709D03*
G01X8273460Y6577811D03*
G54D11*
G01X10295930Y3737130D03*
G01X10357930Y3737130D03*
G54D14*
G01X9611930Y3767130D03*
G01X9611930Y3867130D03*
G54D13*
G01X6361930Y6617130D03*
G01X6461930Y6617130D03*
G54D18*
G01X7245930Y5922130D03*
G01X7295930Y5922130D03*
G01X7345930Y5922130D03*
G01X7395930Y5922130D03*
G01X7395930Y6148130D03*
G01X7345930Y6148130D03*
G01X7295930Y6148130D03*
G01X7245930Y6148130D03*
G54D11*
G01X10010930Y4432130D03*
G01X10072930Y4432130D03*
G01X8245000Y6228920D03*
G01X8183000Y6228920D03*
G01X11515930Y3997130D03*
G01X11577930Y3997130D03*
G54D23*
G01X6246930Y4847130D03*
G01X6591930Y4847130D03*
G54D13*
G01X10936930Y3657130D03*
G01X11036930Y3657130D03*
G54D11*
G01X4810930Y5232130D03*
G01X4872930Y5232130D03*
G54D14*
G01X7216930Y3767130D03*
G01X7216930Y3867130D03*
G54D11*
G01X7360930Y3737130D03*
G01X7422930Y3737130D03*
G54D18*
G01X6846930Y4340130D03*
G01X6796930Y4340130D03*
G01X6746930Y4340130D03*
G01X6696930Y4340130D03*
G01X6646930Y4340130D03*
G01X6596930Y4340130D03*
G01X6546930Y4340130D03*
G01X6546930Y4114130D03*
G01X6596930Y4114130D03*
G01X6646930Y4114130D03*
G01X6696930Y4114130D03*
G01X6746930Y4114130D03*
G01X6796930Y4114130D03*
G01X6846930Y4114130D03*
G54D13*
G01X11571930Y4947130D03*
G01X11671930Y4947130D03*
G54D11*
G01X7764770Y6302190D03*
G01X7826770Y6302190D03*
G54D17*
G01X8226930Y6046130D03*
G01X8226930Y6108130D03*
G54D11*
G01X11430930Y5239130D03*
G01X11368930Y5239130D03*
G01X6320930Y4977130D03*
G01X6382930Y4977130D03*
G01X6257930Y3797130D03*
G01X6195930Y3797130D03*
G01X4749040Y3739220D03*
G01X4811040Y3739220D03*
G54D13*
G01X9491930Y3657130D03*
G01X9591930Y3657130D03*
G54D10*
G01X10271930Y3902130D03*
G01X10361930Y3862130D03*
G01X10361930Y3942130D03*
G54D14*
G01X6636930Y3767130D03*
G01X6636930Y3867130D03*
G01X6641410Y6433610D03*
G01X6641410Y6333610D03*
G54D11*
G01X6235930Y3997130D03*
G01X6297930Y3997130D03*
G54D14*
G01X11346930Y3867130D03*
G01X11346930Y3767130D03*
G54D11*
G01X4970930Y6377130D03*
G01X5032930Y6377130D03*
G54D14*
G01X10751930Y3767130D03*
G01X10751930Y3867130D03*
G54D17*
G01X7229410Y6241610D03*
G01X7229410Y6303610D03*
G54D11*
G01X7372930Y6237130D03*
G01X7310930Y6237130D03*
G54D13*
G01X5351930Y3657130D03*
G01X5451930Y3657130D03*
G54D14*
G01X10446930Y3767130D03*
G01X10446930Y3867130D03*
G54D11*
G01X9485930Y3997130D03*
G01X9547930Y3997130D03*
G54D21*
G01X11198930Y5447130D03*
G01X11198930Y5397130D03*
G01X11198930Y5347130D03*
G01X11198930Y5297130D03*
G01X11424930Y5297130D03*
G01X11424930Y5347130D03*
G01X11424930Y5397130D03*
G01X11424930Y5447130D03*
G54D11*
G01X11342930Y4442130D03*
G01X11280930Y4442130D03*
G54D14*
G01X10118780Y5511810D03*
G01X10118780Y5611810D03*
G01X7229410Y6554610D03*
G01X7229410Y6454610D03*
G54D11*
G01X5075930Y3997130D03*
G01X5137930Y3997130D03*
G54D17*
G01X8831930Y4126130D03*
G01X8831930Y4188130D03*
G54D11*
G01X5502930Y6107130D03*
G01X5440930Y6107130D03*
G01X5392930Y3797130D03*
G01X5330930Y3797130D03*
G01X10972930Y3797130D03*
G01X10910930Y3797130D03*
G01X8697930Y3797130D03*
G01X8635930Y3797130D03*
G54D14*
G01X7092410Y6412610D03*
G01X7092410Y6312610D03*
G01X6125410Y6367610D03*
G01X6125410Y6267610D03*
G54D10*
G01X11471930Y3902130D03*
G01X11561930Y3862130D03*
G01X11561930Y3942130D03*
G54D17*
G01X7451930Y6046130D03*
G01X7451930Y6108130D03*
G54D11*
G01X7920930Y3737130D03*
G01X7982930Y3737130D03*
G01X5502930Y6172130D03*
G01X5440930Y6172130D03*
G54D14*
G01X8117140Y6554710D03*
G01X8117140Y6454710D03*
G54D11*
G01X5350930Y3997130D03*
G01X5412930Y3997130D03*
G54D22*
G01X7360410Y6395059D03*
G01X7360410Y6576161D03*
G54D11*
G01X9795930Y3997130D03*
G01X9857930Y3997130D03*
G01X5615930Y3737130D03*
G01X5677930Y3737130D03*
G01X11262930Y3797130D03*
G01X11200930Y3797130D03*
G54D13*
G01X10046930Y3657130D03*
G01X10146930Y3657130D03*
G54D11*
G01X6485930Y3992130D03*
G01X6547930Y3992130D03*
G01X4810930Y5302130D03*
G01X4872930Y5302130D03*
G54D15*
G01X6239410Y6384610D03*
G01X6199410Y6294610D03*
G01X6279410Y6294610D03*
G54D17*
G01X7941930Y4228130D03*
G01X7941930Y4166130D03*
G54D13*
G01X6461930Y6407130D03*
G01X6361930Y6407130D03*
G54D22*
G01X11116930Y6532681D03*
G01X11116930Y6351579D03*
G54D17*
G01X7699410Y6236610D03*
G01X7699410Y6298610D03*
G54D14*
G01X9326930Y3767130D03*
G01X9326930Y3867130D03*
G54D11*
G01X7982930Y3797130D03*
G01X7920930Y3797130D03*
G01X4767040Y3999290D03*
G01X4829040Y3999290D03*
G54D24*
G01X9886730Y5122130D03*
G01X9912330Y5122130D03*
G01X9937930Y5122130D03*
G01X9963530Y5122130D03*
G01X9989130Y5122130D03*
G01X10014730Y5122130D03*
G01X10040330Y5122130D03*
G01X10065930Y5122130D03*
G01X10091530Y5122130D03*
G01X10117130Y5122130D03*
G01X10117130Y5352130D03*
G01X10091530Y5352130D03*
G01X10065930Y5352130D03*
G01X10040330Y5352130D03*
G01X10014730Y5352130D03*
G01X9989130Y5352130D03*
G01X9963530Y5352130D03*
G01X9937930Y5352130D03*
G01X9912330Y5352130D03*
G01X9886730Y5352130D03*
G54D11*
G01X6877930Y6242130D03*
G01X6815930Y6242130D03*
G01X7070930Y4012130D03*
G01X7132930Y4012130D03*
G01X8183000Y6298920D03*
G01X8245000Y6298920D03*
G54D14*
G01X5766930Y3767130D03*
G01X5766930Y3867130D03*
G54D11*
G01X5032930Y6137130D03*
G01X4970930Y6137130D03*
G01X7142930Y6227130D03*
G01X7080930Y6227130D03*
G54D14*
G01X9586780Y5511810D03*
G01X9586780Y5611810D03*
G54D25*
G01X11161379Y4707130D03*
G01X11342481Y4707130D03*
G54D17*
G01X8906930Y5231130D03*
G01X8906930Y5293130D03*
G54D11*
G01X6547170Y3805810D03*
G01X6485170Y3805810D03*
G01X10930930Y3997130D03*
G01X10992930Y3997130D03*
G01X9180930Y3737130D03*
G01X9242930Y3737130D03*
G54D17*
G01X11746930Y4533130D03*
G01X11746930Y4471130D03*
G54D15*
G01X6641410Y6602610D03*
G01X6601410Y6512610D03*
G01X6681410Y6512610D03*
G54D13*
G01X7091930Y3657130D03*
G01X7191930Y3657130D03*
G54D17*
G01X11431930Y4626130D03*
G01X11431930Y4688130D03*
G54D18*
G01X10166930Y4345130D03*
G01X10116930Y4345130D03*
G01X10066930Y4345130D03*
G01X10016930Y4345130D03*
G01X9966930Y4345130D03*
G01X9916930Y4345130D03*
G01X9866930Y4345130D03*
G01X9866930Y4119130D03*
G01X9916930Y4119130D03*
G01X9966930Y4119130D03*
G01X10016930Y4119130D03*
G01X10066930Y4119130D03*
G01X10116930Y4119130D03*
G01X10166930Y4119130D03*
G54D11*
G01X8635930Y3737130D03*
G01X8697930Y3737130D03*
G54D14*
G01X6753410Y6554610D03*
G01X6753410Y6454610D03*
G54D11*
G01X11580930Y5422130D03*
G01X11642930Y5422130D03*
G01X11200930Y3737130D03*
G01X11262930Y3737130D03*
G01X6717930Y4437130D03*
G01X6655930Y4437130D03*
G01X7717930Y3797130D03*
G01X7655930Y3797130D03*
G54D13*
G01X4773040Y3659290D03*
G01X4873040Y3659290D03*
G54D11*
G01X7940930Y3997130D03*
G01X8002930Y3997130D03*
G01X6512930Y4977130D03*
G01X6450930Y4977130D03*
G54D17*
G01X11046930Y4076130D03*
G01X11046930Y4138130D03*
G54D14*
G01X9232780Y5511810D03*
G01X9232780Y5611810D03*
G54D10*
G01X9446930Y3902130D03*
G01X9536930Y3862130D03*
G01X9536930Y3942130D03*
G54D11*
G01X9242930Y3797130D03*
G01X9180930Y3797130D03*
G54D26*
G01X9165930Y5097130D03*
G01X9256930Y5097130D03*
G01X9347930Y5097130D03*
G54D27*
G01X9256930Y5347130D03*
G54D11*
G01X7065930Y3737130D03*
G01X7127930Y3737130D03*
G54D24*
G01X9506730Y5122130D03*
G01X9532330Y5122130D03*
G01X9557930Y5122130D03*
G01X9583530Y5122130D03*
G01X9609130Y5122130D03*
G01X9634730Y5122130D03*
G01X9660330Y5122130D03*
G01X9685930Y5122130D03*
G01X9711530Y5122130D03*
G01X9737130Y5122130D03*
G01X9737130Y5352130D03*
G01X9711530Y5352130D03*
G01X9685930Y5352130D03*
G01X9660330Y5352130D03*
G01X9634730Y5352130D03*
G01X9609130Y5352130D03*
G01X9583530Y5352130D03*
G01X9557930Y5352130D03*
G01X9532330Y5352130D03*
G01X9506730Y5352130D03*
G54D28*
G01X11031930Y5102130D03*
G01X11031930Y5282130D03*
G54D13*
G01X6461930Y6512130D03*
G01X6361930Y6512130D03*
G01X10316930Y3657130D03*
G01X10416930Y3657130D03*
G54D18*
G01X10991930Y4345130D03*
G01X10941930Y4345130D03*
G01X10891930Y4345130D03*
G01X10841930Y4345130D03*
G01X10791930Y4345130D03*
G01X10741930Y4345130D03*
G01X10691930Y4345130D03*
G01X10641930Y4345130D03*
G01X10641930Y4119130D03*
G01X10691930Y4119130D03*
G01X10741930Y4119130D03*
G01X10791930Y4119130D03*
G01X10841930Y4119130D03*
G01X10891930Y4119130D03*
G01X10941930Y4119130D03*
G01X10991930Y4119130D03*
G54D11*
G01X4811040Y3799220D03*
G01X4749040Y3799220D03*
G54D14*
G01X5476930Y3767130D03*
G01X5476930Y3867130D03*
G54D10*
G01X7631930Y3902130D03*
G01X7721930Y3862130D03*
G01X7721930Y3942130D03*
G54D29*
G01X6924213Y5521658D03*
G01X6924213Y5501973D03*
G01X6924213Y5482288D03*
G01X6924213Y5462603D03*
G01X6924213Y5442918D03*
G01X6924213Y5423233D03*
G01X6924213Y5403548D03*
G01X6924213Y5383863D03*
G01X6924213Y5364178D03*
G01X6924213Y5344493D03*
G01X6924213Y5324808D03*
G01X6924213Y5305123D03*
G01X6924213Y5285438D03*
G01X6924213Y5265753D03*
G01X6924213Y5246068D03*
G01X6924213Y5226383D03*
G01X6924213Y5206698D03*
G01X6924213Y5187013D03*
G01X6924213Y5167327D03*
G01X6924213Y5147642D03*
G01X6924213Y5127957D03*
G01X6924213Y5108272D03*
G01X6924213Y5088587D03*
G01X6924213Y5068902D03*
G01X6924213Y5049217D03*
G01X6924213Y5029532D03*
G01X6924213Y5009847D03*
G01X6924213Y4990162D03*
G01X6924213Y4970477D03*
G01X6924213Y4950792D03*
G01X6924213Y4931107D03*
G01X6924213Y4911422D03*
G01X6924213Y4891737D03*
G01X6924213Y4872052D03*
G01X6924213Y4852367D03*
G01X6924213Y4832682D03*
G54D30*
G01X6998032Y4758863D03*
G01X7017717Y4758863D03*
G01X7037402Y4758863D03*
G01X7057087Y4758863D03*
G01X7076772Y4758863D03*
G01X7096457Y4758863D03*
G01X7116142Y4758863D03*
G01X7135827Y4758863D03*
G01X7155512Y4758863D03*
G01X7175197Y4758863D03*
G01X7194882Y4758863D03*
G01X7214567Y4758863D03*
G01X7234252Y4758863D03*
G01X7253937Y4758863D03*
G01X7273622Y4758863D03*
G01X7293307Y4758863D03*
G01X7312992Y4758863D03*
G01X7332677Y4758863D03*
G01X7352363Y4758863D03*
G01X7372048Y4758863D03*
G01X7391733Y4758863D03*
G01X7411418Y4758863D03*
G01X7431103Y4758863D03*
G01X7450788Y4758863D03*
G01X7470473Y4758863D03*
G01X7490158Y4758863D03*
G01X7509843Y4758863D03*
G01X7529528Y4758863D03*
G01X7549213Y4758863D03*
G01X7568898Y4758863D03*
G01X7588583Y4758863D03*
G01X7608268Y4758863D03*
G01X7627953Y4758863D03*
G01X7647638Y4758863D03*
G01X7667323Y4758863D03*
G01X7687008Y4758863D03*
G54D29*
G01X7760827Y4832682D03*
G01X7760827Y4852367D03*
G01X7760827Y4872052D03*
G01X7760827Y4891737D03*
G01X7760827Y4911422D03*
G01X7760827Y4931107D03*
G01X7760827Y4950792D03*
G01X7760827Y4970477D03*
G01X7760827Y4990162D03*
G01X7760827Y5009847D03*
G01X7760827Y5029532D03*
G01X7760827Y5049217D03*
G01X7760827Y5068902D03*
G01X7760827Y5088587D03*
G01X7760827Y5108272D03*
G01X7760827Y5127957D03*
G01X7760827Y5147642D03*
G01X7760827Y5167327D03*
G01X7760827Y5187013D03*
G01X7760827Y5206698D03*
G01X7760827Y5226383D03*
G01X7760827Y5246068D03*
G01X7760827Y5265753D03*
G01X7760827Y5285438D03*
G01X7760827Y5305123D03*
G01X7760827Y5324808D03*
G01X7760827Y5344493D03*
G01X7760827Y5364178D03*
G01X7760827Y5383863D03*
G01X7760827Y5403548D03*
G01X7760827Y5423233D03*
G01X7760827Y5442918D03*
G01X7760827Y5462603D03*
G01X7760827Y5482288D03*
G01X7760827Y5501973D03*
G01X7760827Y5521658D03*
G54D30*
G01X7687008Y5595477D03*
G01X7667323Y5595477D03*
G01X7647638Y5595477D03*
G01X7627953Y5595477D03*
G01X7608268Y5595477D03*
G01X7588583Y5595477D03*
G01X7568898Y5595477D03*
G01X7549213Y5595477D03*
G01X7529528Y5595477D03*
G01X7509843Y5595477D03*
G01X7490158Y5595477D03*
G01X7470473Y5595477D03*
G01X7450788Y5595477D03*
G01X7431103Y5595477D03*
G01X7411418Y5595477D03*
G01X7391733Y5595477D03*
G01X7372048Y5595477D03*
G01X7352363Y5595477D03*
G01X7332677Y5595477D03*
G01X7312992Y5595477D03*
G01X7293307Y5595477D03*
G01X7273622Y5595477D03*
G01X7253937Y5595477D03*
G01X7234252Y5595477D03*
G01X7214567Y5595477D03*
G01X7194882Y5595477D03*
G01X7175197Y5595477D03*
G01X7155512Y5595477D03*
G01X7135827Y5595477D03*
G01X7116142Y5595477D03*
G01X7096457Y5595477D03*
G01X7076772Y5595477D03*
G01X7057087Y5595477D03*
G01X7037402Y5595477D03*
G01X7017717Y5595477D03*
G01X6998032Y5595477D03*
G54D13*
G01X10631930Y3657130D03*
G01X10731930Y3657130D03*
G54D14*
G01X7581930Y6412130D03*
G01X7581930Y6312130D03*
G54D11*
G01X10035930Y3997130D03*
G01X10097930Y3997130D03*
G54D18*
G01X8013930Y5922130D03*
G01X8063930Y5922130D03*
G01X8113930Y5922130D03*
G01X8163930Y5922130D03*
G01X8163930Y6148130D03*
G01X8113930Y6148130D03*
G01X8063930Y6148130D03*
G01X8013930Y6148130D03*
G54D13*
G01X8661930Y3657130D03*
G01X8761930Y3657130D03*
G54D11*
G01X6775930Y3997130D03*
G01X6837930Y3997130D03*
G54D10*
G01X7901930Y3902130D03*
G01X7991930Y3862130D03*
G01X7991930Y3942130D03*
G54D18*
G01X9411930Y4340130D03*
G01X9361930Y4340130D03*
G01X9311930Y4340130D03*
G01X9261930Y4340130D03*
G01X9211930Y4340130D03*
G01X9161930Y4340130D03*
G01X9111930Y4340130D03*
G01X9111930Y4114130D03*
G01X9161930Y4114130D03*
G01X9211930Y4114130D03*
G01X9261930Y4114130D03*
G01X9311930Y4114130D03*
G01X9361930Y4114130D03*
G01X9411930Y4114130D03*
G54D11*
G01X10620930Y3997130D03*
G01X10682930Y3997130D03*
G54D14*
G01X10171930Y3767130D03*
G01X10171930Y3867130D03*
G54D28*
G01X10891930Y6522130D03*
G01X10891930Y6342130D03*
G54D10*
G01X11171930Y3902130D03*
G01X11261930Y3862130D03*
G01X11261930Y3942130D03*
G54D11*
G01X8910930Y3737130D03*
G01X8972930Y3737130D03*
G01X5135930Y4412130D03*
G01X5197930Y4412130D03*
G54D14*
G01X7801930Y3767130D03*
G01X7801930Y3867130D03*
G54D18*
G01X7861930Y4335130D03*
G01X7811930Y4335130D03*
G01X7761930Y4335130D03*
G01X7711930Y4335130D03*
G01X7661930Y4335130D03*
G01X7611930Y4335130D03*
G01X7561930Y4335130D03*
G01X7561930Y4109130D03*
G01X7611930Y4109130D03*
G01X7661930Y4109130D03*
G01X7711930Y4109130D03*
G01X7761930Y4109130D03*
G01X7811930Y4109130D03*
G01X7861930Y4109130D03*
G54D13*
G01X11521930Y3657130D03*
G01X11621930Y3657130D03*
G54D14*
G01X5186930Y3767130D03*
G01X5186930Y3867130D03*
G54D11*
G01X7655930Y3737130D03*
G01X7717930Y3737130D03*
G54D10*
G01X8611930Y3902130D03*
G01X8701930Y3862130D03*
G01X8701930Y3942130D03*
G54D14*
G01X9409780Y5511810D03*
G01X9409780Y5611810D03*
G01X8877780Y5511810D03*
G01X8877780Y5611810D03*
G54D11*
G01X5440930Y6237130D03*
G01X5502930Y6237130D03*
G01X9527930Y3797130D03*
G01X9465930Y3797130D03*
G54D13*
G01X6043410Y6512610D03*
G01X5943410Y6512610D03*
G01X11280070Y5224370D03*
G01X11180070Y5224370D03*
G54D14*
G01X7699410Y6554610D03*
G01X7699410Y6454610D03*
G54D11*
G01X5677930Y3797130D03*
G01X5615930Y3797130D03*
G54D13*
G01X6461930Y6302130D03*
G01X6361930Y6302130D03*
G01X9776930Y3657130D03*
G01X9876930Y3657130D03*
G54D11*
G01X6195930Y3737130D03*
G01X6257930Y3737130D03*
G54D13*
G01X9206930Y3657130D03*
G01X9306930Y3657130D03*
G54D11*
G01X8972930Y3797130D03*
G01X8910930Y3797130D03*
G01X8027350Y6227130D03*
G01X7965350Y6227130D03*
G54D13*
G01X11278070Y4869370D03*
G01X11178070Y4869370D03*
G01X11571930Y5347130D03*
G01X11671930Y5347130D03*
G54D18*
G01X5286930Y4340130D03*
G01X5236930Y4340130D03*
G01X5186930Y4340130D03*
G01X5136930Y4340130D03*
G01X5086930Y4340130D03*
G01X5036930Y4340130D03*
G01X4986930Y4340130D03*
G01X4986930Y4114130D03*
G01X5036930Y4114130D03*
G01X5086930Y4114130D03*
G01X5136930Y4114130D03*
G01X5186930Y4114130D03*
G01X5236930Y4114130D03*
G01X5286930Y4114130D03*
G54D11*
G01X4950930Y5167130D03*
G01X5012930Y5167130D03*
G01X5502930Y6362130D03*
G01X5440930Y6362130D03*
G54D14*
G01X11056930Y3767130D03*
G01X11056930Y3867130D03*
G54D31*
G01X5116930Y5272130D03*
G01X5216930Y5272130D03*
G54D10*
G01X7046930Y3902130D03*
G01X7136930Y3862130D03*
G01X7136930Y3942130D03*
G01X6751930Y3902130D03*
G01X6841930Y3862130D03*
G01X6841930Y3942130D03*
G54D11*
G01X9780930Y5122130D03*
G01X9842930Y5122130D03*
G54D17*
G01X6751930Y6246130D03*
G01X6751930Y6308130D03*
G54D13*
G01X6461930Y6197130D03*
G01X6361930Y6197130D03*
G01X5066930Y3657130D03*
G01X5166930Y3657130D03*
G54D11*
G01X11430930Y4892130D03*
G01X11368930Y4892130D03*
G54D10*
G01X10581930Y3902130D03*
G01X10671930Y3862130D03*
G01X10671930Y3942130D03*
G54D11*
G01X10305930Y3997130D03*
G01X10367930Y3997130D03*
G54D18*
G01X8771930Y4340130D03*
G01X8721930Y4340130D03*
G01X8671930Y4340130D03*
G01X8621930Y4340130D03*
G01X8571930Y4340130D03*
G01X8521930Y4340130D03*
G01X8471930Y4340130D03*
G01X8421930Y4340130D03*
G01X8421930Y4114130D03*
G01X8471930Y4114130D03*
G01X8521930Y4114130D03*
G01X8571930Y4114130D03*
G01X8621930Y4114130D03*
G01X8671930Y4114130D03*
G01X8721930Y4114130D03*
G01X8771930Y4114130D03*
G54D11*
G01X10667930Y3797130D03*
G01X10605930Y3797130D03*
G54D22*
G01X6906930Y6396579D03*
G01X6906930Y6577681D03*
G54D10*
G01X5301930Y3902130D03*
G01X5391930Y3862130D03*
G01X5391930Y3942130D03*
G54D18*
G01X6241930Y4340130D03*
G01X6191930Y4340130D03*
G01X6141930Y4340130D03*
G01X6091930Y4340130D03*
G01X6041930Y4340130D03*
G01X5991930Y4340130D03*
G01X5941930Y4340130D03*
G01X5891930Y4340130D03*
G01X5891930Y4114130D03*
G01X5941930Y4114130D03*
G01X5991930Y4114130D03*
G01X6041930Y4114130D03*
G01X6091930Y4114130D03*
G01X6141930Y4114130D03*
G01X6191930Y4114130D03*
G01X6241930Y4114130D03*
G54D31*
G01X5116930Y5172130D03*
G01X5216930Y5172130D03*
G54D14*
G01X4897040Y3765220D03*
G01X4897040Y3865220D03*
G54D13*
G01X7676930Y3657130D03*
G01X7776930Y3657130D03*
G54D11*
G01X5660930Y3997130D03*
G01X5722930Y3997130D03*
G54D13*
G01X7941930Y3657130D03*
G01X8041930Y3657130D03*
G54D17*
G01X7831930Y6046130D03*
G01X7831930Y6108130D03*
G54D10*
G01X6176930Y3902130D03*
G01X6266930Y3862130D03*
G01X6266930Y3942130D03*
G54D11*
G01X5330930Y3737130D03*
G01X5392930Y3737130D03*
G01X8645930Y3997130D03*
G01X8707930Y3997130D03*
G54D22*
G01X10246930Y5151579D03*
G01X10246930Y5332681D03*
G54D13*
G01X11571930Y4847130D03*
G01X11671930Y4847130D03*
G54D11*
G01X9205930Y3997130D03*
G01X9267930Y3997130D03*
G54D13*
G01X6801930Y3657130D03*
G01X6901930Y3657130D03*
G54D14*
G01X7996350Y6412130D03*
G01X7996350Y6312130D03*
G01X10472780Y5511810D03*
G01X10472780Y5611810D03*
G54D11*
G01X4950930Y5232130D03*
G01X5012930Y5232130D03*
G54D14*
G01X7511930Y3767130D03*
G01X7511930Y3867130D03*
G54D18*
G01X7626930Y5922130D03*
G01X7676930Y5922130D03*
G01X7726930Y5922130D03*
G01X7776930Y5922130D03*
G01X7776930Y6148130D03*
G01X7726930Y6148130D03*
G01X7676930Y6148130D03*
G01X7626930Y6148130D03*
G54D11*
G01X7422930Y3797130D03*
G01X7360930Y3797130D03*
G01X6447930Y5037130D03*
G01X6385930Y5037130D03*
G54D17*
G01X10241930Y4903130D03*
G01X10241930Y4841130D03*
G54D11*
G01X5102930Y3797130D03*
G01X5040930Y3797130D03*
G54D10*
G01X9731930Y3902130D03*
G01X9821930Y3862130D03*
G01X9821930Y3942130D03*
G54D14*
G01X10295780Y5511810D03*
G01X10295780Y5611810D03*
G54D11*
G01X11430930Y5182200D03*
G01X11368930Y5182200D03*
G54D14*
G01X9940780Y5511810D03*
G01X9940780Y5611810D03*
G54D11*
G01X9262930Y4412130D03*
G01X9200930Y4412130D03*
G01X9465930Y3737130D03*
G01X9527930Y3737130D03*
G54D17*
G01X7066930Y6046130D03*
G01X7066930Y6108130D03*
G54D14*
G01X8066930Y3767130D03*
G01X8066930Y3867130D03*
G54D11*
G01X5017930Y5807130D03*
G01X4955930Y5807130D03*
G54D15*
G01X11571930Y5042130D03*
G01X11651930Y5042130D03*
G54D11*
G01X9780930Y5352130D03*
G01X9842930Y5352130D03*
G54D17*
G01X6166930Y3976130D03*
G01X6166930Y4038130D03*
G54D22*
G01X7844330Y6393089D03*
G01X7844330Y6574191D03*
G54D14*
G01X9055780Y5511810D03*
G01X9055780Y5611810D03*
G01X11646930Y3857130D03*
G01X11646930Y3757130D03*
G54D11*
G01X10025930Y3737130D03*
G01X10087930Y3737130D03*
G01X10087930Y3797130D03*
G01X10025930Y3797130D03*
G54D17*
G01X11431930Y4823130D03*
G01X11431930Y4761130D03*
G54D11*
G01X7502930Y4297130D03*
G01X7440930Y4297130D03*
G54D10*
G01X9156930Y3902130D03*
G01X9246930Y3862130D03*
G01X9246930Y3942130D03*
G54D11*
G01X5502930Y6302130D03*
G01X5440930Y6302130D03*
G54D19*
G01X6477245Y6032721D03*
G01X6477245Y6007130D03*
G01X6477245Y5981539D03*
G54D20*
G01X6573702Y5981539D03*
G01X6573702Y6032721D03*
G54D13*
G01X6152410Y6512610D03*
G01X6252410Y6512610D03*
G54D15*
G01X6381930Y6017130D03*
G01X6421930Y6107130D03*
G01X6341930Y6107130D03*
G54D11*
G01X6842930Y3797130D03*
G01X6780930Y3797130D03*
G01X7127930Y3797130D03*
G01X7065930Y3797130D03*
G54D15*
G01X7996350Y6587130D03*
G01X7956350Y6497130D03*
G01X8036350Y6497130D03*
G54D11*
G01X11557930Y3797130D03*
G01X11495930Y3797130D03*
G01X7375930Y3997130D03*
G01X7437930Y3997130D03*
G54D13*
G01X6152410Y6617610D03*
G01X6252410Y6617610D03*
G54D21*
G01X11198930Y5103130D03*
G01X11198930Y5053130D03*
G01X11198930Y5003130D03*
G01X11198930Y4953130D03*
G01X11424930Y4953130D03*
G01X11424930Y5003130D03*
G01X11424930Y5053130D03*
G01X11424930Y5103130D03*
G54D14*
G01X6926930Y3767130D03*
G01X6926930Y3867130D03*
G54D10*
G01X8881930Y3902130D03*
G01X8971930Y3862130D03*
G01X8971930Y3942130D03*
G54D11*
G01X9812930Y3797130D03*
G01X9750930Y3797130D03*
G54D14*
G01X9056930Y3767130D03*
G01X9056930Y3867130D03*
G54D10*
G01X6461930Y3902130D03*
G01X6551930Y3862130D03*
G01X6551930Y3942130D03*
G54D28*
G01X11031930Y4757130D03*
G01X11031930Y4937130D03*
G54D12*
G01X11704430Y4737130D03*
G01X11569430Y4737130D03*
G54D10*
G01X10001930Y3902130D03*
G01X10091930Y3862130D03*
G01X10091930Y3942130D03*
G54D22*
G01X9046930Y5327681D03*
G01X9046930Y5146579D03*
G54D15*
G01X7581930Y6587130D03*
G01X7541930Y6497130D03*
G01X7621930Y6497130D03*
G54D11*
G01X5032930Y6197130D03*
G01X4970930Y6197130D03*
G54D10*
G01X5596930Y3902130D03*
G01X5686930Y3862130D03*
G01X5686930Y3942130D03*
G54D11*
G01X5502930Y6422130D03*
G01X5440930Y6422130D03*
G54D32*
G01X4566925Y7165360D02*
G75*
G02X4685035Y7283470I0118110J0000000D01*
G01X4566925Y3110242D02*
G01X4566925Y7165360D01*
G01X4685035Y7283470D02*
G01X11929130Y7283470D01*
G01X4685035Y2992131D02*
G75*
G02X4566925Y3110242I0000000J0118110D01*
G01X4785429Y7125990D02*
G75*
G02X4663382Y7125990I-061024J0000000D01*
G01X4663382Y7125990D02*
G75*
G02X4785429Y7125990I0061024J0000000D01*
G01X4785429Y3149612D02*
G75*
G02X4663382Y3149612I-061024J0000000D01*
G01X4663382Y3149612D02*
G75*
G02X4785429Y3149612I0061024J0000000D01*
G01X6084642Y6043313D02*
G75*
G02X5962594Y6043313I-061024J0000000D01*
G01X5962594Y6043313D02*
G75*
G02X6084642Y6043313I0061024J0000000D01*
G01X6084642Y3838588D02*
G75*
G02X5962594Y3838588I-061024J0000000D01*
G01X5962594Y3838588D02*
G75*
G02X6084642Y3838588I0061024J0000000D01*
G01X8289366Y7125990D02*
G75*
G02X8167319Y7125990I-061024J0000000D01*
G01X8167319Y7125990D02*
G75*
G02X8289366Y7125990I0061024J0000000D01*
G01X8289366Y3700793D02*
G75*
G02X8167319Y3700793I-061024J0000000D01*
G01X8167319Y3700793D02*
G75*
G02X8289366Y3700793I0061024J0000000D01*
G01X8446846Y6043313D02*
G75*
G02X8324799Y6043313I-061024J0000000D01*
G01X8324799Y6043313D02*
G75*
G02X8446846Y6043313I0061024J0000000D01*
G01X8446846Y3838588D02*
G75*
G02X8324799Y3838588I-061024J0000000D01*
G01X8324799Y3838588D02*
G75*
G02X8446846Y3838588I0061024J0000000D01*
G01X11911413Y6476383D02*
G75*
G02X11789366Y6476383I-061024J0000000D01*
G01X11789366Y6476383D02*
G75*
G02X11911413Y6476383I0061024J0000000D01*
G01X11911413Y3838588D02*
G75*
G02X11789366Y3838588I-061024J0000000D01*
G01X11789366Y3838588D02*
G75*
G02X11911413Y3838588I0061024J0000000D01*
G01X11950783Y7125990D02*
G75*
G02X11828736Y7125990I-061024J0000000D01*
G01X11828736Y7125990D02*
G75*
G02X11950783Y7125990I0061024J0000000D01*
G01X11950783Y3149612D02*
G75*
G02X11828736Y3149612I-061024J0000000D01*
G01X11828736Y3149612D02*
G75*
G02X11950783Y3149612I0061024J0000000D01*
G01X11929130Y7283470D02*
G75*
G02X12047240Y7165360I0000000J-118110D01*
G01X11929130Y2992131D02*
G01X4685035Y2992131D01*
G01X12047240Y7165360D02*
G01X12047240Y3110242D01*
G01X12047240Y3110242D02*
G75*
G02X11929130Y2992131I-118110J0000000D01*
M02*
