G04 This is an RS-274x file exported by *
G04 gerbv version v2.13.0-83-g9c90d823 *
G04 More information is available about gerbv at *
G04 https://gerbv.github.io/ *
G04 --End of header info--*
%MOIN*%
%FSLAX36Y36*%
%IPPOS*%
%IN "SL1230IO V3.2.0 2018050"*%
G04 --Define apertures--*
%ADD10C,0.0700*%
%ADD11C,0.0010*%
%ADD12R,0.0700X0.0700*%
%ADD13C,0.1100*%
%ADD14C,0.1084*%
%ADD15C,0.0900*%
%ADD16C,0.0887*%
%ADD17C,0.0809*%
%ADD18R,0.0500X0.0600*%
%ADD19R,0.0480X0.0400*%
%ADD20R,0.0400X0.0480*%
%ADD21R,0.1006X0.0691*%
%ADD22R,0.0900X0.0700*%
%ADD23O,0.0900X0.0700*%
%ADD24C,0.1300*%
%ADD25O,0.1281X0.0700*%
G04 --Start main section--*
G54D10*
G01X4696930Y5282130D03*
G01X5229390Y6128090D03*
G01X5329390Y6228090D03*
G01X5229390Y6228090D03*
G01X5329390Y6328090D03*
G01X5229390Y6328090D03*
G01X5329390Y6428090D03*
G01X5229390Y6428090D03*
G01X10521930Y5272130D03*
G01X10423500Y5272130D03*
G01X11736300Y4107130D03*
G01X11657560Y4107130D03*
G01X8721300Y5482130D03*
G01X8642560Y5482130D03*
G01X5979410Y7003940D03*
G01X5979410Y7082680D03*
G01X5979410Y7161420D03*
G01X5784410Y7003940D03*
G01X5784410Y7082680D03*
G01X5784410Y7161420D03*
G01X5394410Y7003940D03*
G01X5394410Y7082680D03*
G01X5394410Y7161420D03*
G01X5589410Y7003940D03*
G01X5589410Y7082680D03*
G01X5589410Y7161420D03*
G01X5199410Y7003940D03*
G01X5199410Y7082680D03*
G01X5199410Y7161420D03*
G01X5004410Y7003940D03*
G01X5004410Y7082680D03*
G01X5004410Y7161420D03*
G01X10506300Y4932130D03*
G01X10427560Y4932130D03*
G54D12*
G01X4696930Y5182130D03*
G01X5329390Y6128090D03*
G54D13*
G01X11086930Y5632130D03*
G01X10890080Y5632130D03*
G01X11086930Y6047130D03*
G01X10890080Y6047130D03*
G54D14*
G01X10591620Y7224410D03*
G01X10591620Y7027560D03*
G01X10394770Y7224410D03*
G01X10394770Y7027560D03*
G01X10197920Y7224410D03*
G01X10197920Y7027560D03*
G01X10001070Y7224410D03*
G01X10001070Y7027560D03*
G01X9804220Y7224410D03*
G01X9804220Y7027560D03*
G01X9523620Y7224410D03*
G01X9523620Y7027560D03*
G01X9326770Y7224410D03*
G01X9326770Y7027560D03*
G01X9129920Y7224410D03*
G01X9129920Y7027560D03*
G01X8933070Y7224410D03*
G01X8933070Y7027560D03*
G01X8736220Y7224410D03*
G01X8736220Y7027560D03*
G01X4984250Y3051180D03*
G01X4984250Y3248030D03*
G01X5181100Y3051180D03*
G01X5181100Y3248030D03*
G01X5377950Y3051180D03*
G01X5377950Y3248030D03*
G01X5574800Y3051180D03*
G01X5574800Y3248030D03*
G01X5771650Y3051180D03*
G01X5771650Y3248030D03*
G01X5968500Y3051180D03*
G01X5968500Y3248030D03*
G01X9944880Y3051180D03*
G01X9944880Y3248030D03*
G01X10141730Y3051180D03*
G01X10141730Y3248030D03*
G01X10338580Y3051180D03*
G01X10338580Y3248030D03*
G01X10535430Y3051180D03*
G01X10535430Y3248030D03*
G01X10732280Y3051180D03*
G01X10732280Y3248030D03*
G01X10929130Y3051180D03*
G01X10929130Y3248030D03*
G01X6224410Y3051180D03*
G01X6224410Y3248030D03*
G01X6421260Y3051180D03*
G01X6421260Y3248030D03*
G01X6618110Y3051180D03*
G01X6618110Y3248030D03*
G01X6814960Y3051180D03*
G01X6814960Y3248030D03*
G01X7011810Y3051180D03*
G01X7011810Y3248030D03*
G01X7208660Y3051180D03*
G01X7208660Y3248030D03*
G01X7464570Y3051180D03*
G01X7464570Y3248030D03*
G01X7661420Y3051180D03*
G01X7661420Y3248030D03*
G01X7858270Y3051180D03*
G01X7858270Y3248030D03*
G01X8055120Y3051180D03*
G01X8055120Y3248030D03*
G01X8251970Y3051180D03*
G01X8251970Y3248030D03*
G01X8448820Y3051180D03*
G01X8448820Y3248030D03*
G01X8704720Y3051180D03*
G01X8704720Y3248030D03*
G01X8901570Y3051180D03*
G01X8901570Y3248030D03*
G01X9098430Y3051180D03*
G01X9098430Y3248030D03*
G01X9295280Y3051180D03*
G01X9295280Y3248030D03*
G01X9492130Y3051180D03*
G01X9492130Y3248030D03*
G01X9688980Y3051180D03*
G01X9688980Y3248030D03*
G01X7859880Y7224410D03*
G01X7859880Y7027560D03*
G01X7663030Y7224410D03*
G01X7663030Y7027560D03*
G01X7466180Y7224410D03*
G01X7466180Y7027560D03*
G01X7269330Y7224410D03*
G01X7269330Y7027560D03*
G01X7072480Y7224410D03*
G01X7072480Y7027560D03*
G01X6875630Y7224410D03*
G01X6875630Y7027560D03*
G01X11185040Y3051180D03*
G01X11185040Y3248030D03*
G01X11381890Y3051180D03*
G01X11381890Y3248030D03*
G01X11578740Y3051180D03*
G01X11578740Y3248030D03*
G01X6599880Y7224410D03*
G01X6599880Y7027560D03*
G01X6403030Y7224410D03*
G01X6403030Y7027560D03*
G01X6206180Y7224410D03*
G01X6206180Y7027560D03*
G54D15*
G01X10666930Y4932130D03*
G01X10866930Y4932130D03*
G01X10671930Y5272130D03*
G01X10871930Y5272130D03*
G54D16*
G01X8615990Y6571730D03*
G01X8615990Y6349730D03*
G01X9068750Y6571730D03*
G01X9068750Y6349730D03*
G01X9521500Y6571730D03*
G01X9521500Y6349730D03*
G01X9974260Y6571730D03*
G01X9974260Y6349730D03*
G01X10427020Y6571980D03*
G01X10427020Y6349980D03*
G01X10426810Y6090730D03*
G01X10426810Y5868730D03*
G01X9973810Y6090730D03*
G01X9973810Y5868730D03*
G01X9521810Y6090730D03*
G01X9521810Y5868730D03*
G01X9068810Y6090730D03*
G01X9068810Y5868730D03*
G01X8615810Y6090730D03*
G01X8615810Y5868730D03*
G54D17*
G01X8803810Y6031730D03*
G01X8803810Y5931730D03*
G01X8803810Y5831730D03*
G01X9709300Y6512730D03*
G01X9709300Y6412730D03*
G01X9709300Y6312730D03*
G01X10161810Y6031730D03*
G01X10161810Y5931730D03*
G01X10161810Y5831730D03*
G01X10162060Y6512730D03*
G01X10162060Y6412730D03*
G01X10162060Y6312730D03*
G01X10614810Y6031730D03*
G01X10614810Y5931730D03*
G01X10614810Y5831730D03*
G01X10614810Y6512730D03*
G01X10614810Y6412730D03*
G01X10614810Y6312730D03*
G01X8803790Y6512980D03*
G01X8803790Y6412980D03*
G01X8803790Y6312980D03*
G01X9256810Y6031730D03*
G01X9256810Y5931730D03*
G01X9256810Y5831730D03*
G01X9256540Y6512730D03*
G01X9256540Y6412730D03*
G01X9256540Y6312730D03*
G01X9708810Y6031730D03*
G01X9708810Y5931730D03*
G01X9708810Y5831730D03*
G54D18*
G01X11076930Y4477130D03*
G01X11116930Y4387130D03*
G01X11036930Y4387130D03*
G01X5309020Y4428190D03*
G01X5349020Y4338190D03*
G01X5269020Y4338190D03*
G01X7443740Y4418190D03*
G01X7483740Y4328190D03*
G01X7403740Y4328190D03*
G01X5171220Y4428190D03*
G01X5211220Y4338190D03*
G01X5131220Y4338190D03*
G01X9875940Y4428190D03*
G01X9915940Y4338190D03*
G01X9835940Y4338190D03*
G01X10013740Y4428190D03*
G01X10053740Y4338190D03*
G01X9973740Y4338190D03*
G01X10289330Y4428190D03*
G01X10329330Y4338190D03*
G01X10249330Y4338190D03*
G01X10151930Y4427130D03*
G01X10191930Y4337130D03*
G01X10111930Y4337130D03*
G01X11340980Y4471600D03*
G01X11380980Y4381600D03*
G01X11300980Y4381600D03*
G01X7857930Y4418130D03*
G01X7897930Y4328130D03*
G01X7817930Y4328130D03*
G01X7718930Y4418130D03*
G01X7758930Y4328130D03*
G01X7678930Y4328130D03*
G01X4895630Y4428190D03*
G01X4935630Y4338190D03*
G01X4855630Y4338190D03*
G01X5033430Y4428190D03*
G01X5073430Y4338190D03*
G01X4993430Y4338190D03*
G01X6681340Y4423660D03*
G01X6721340Y4333660D03*
G01X6641340Y4333660D03*
G01X6956930Y4423660D03*
G01X6996930Y4333660D03*
G01X6916930Y4333660D03*
G01X6543540Y4423660D03*
G01X6583540Y4333660D03*
G01X6503540Y4333660D03*
G01X6819130Y4423660D03*
G01X6859130Y4333660D03*
G01X6779130Y4333660D03*
G01X7581540Y4418190D03*
G01X7621540Y4328190D03*
G01X7541540Y4328190D03*
G01X6525980Y3839270D03*
G01X6565980Y3749270D03*
G01X6485980Y3749270D03*
G01X6825980Y3829270D03*
G01X6865980Y3739270D03*
G01X6785980Y3739270D03*
G01X6235980Y3834270D03*
G01X6275980Y3744270D03*
G01X6195980Y3744270D03*
G01X7106980Y3829270D03*
G01X7146980Y3739270D03*
G01X7066980Y3739270D03*
G01X7402200Y3832670D03*
G01X7442200Y3742670D03*
G01X7362200Y3742670D03*
G01X7697200Y3832670D03*
G01X7737200Y3742670D03*
G01X7657200Y3742670D03*
G01X7962160Y3834350D03*
G01X8002160Y3744350D03*
G01X7922160Y3744350D03*
G01X8676930Y3829130D03*
G01X8716930Y3739130D03*
G01X8636930Y3739130D03*
G01X4784930Y3832130D03*
G01X4824930Y3742130D03*
G01X4744930Y3742130D03*
G01X5081930Y3834130D03*
G01X5121930Y3744130D03*
G01X5041930Y3744130D03*
G01X5371930Y3833130D03*
G01X5411930Y3743130D03*
G01X5331930Y3743130D03*
G01X5656930Y3834130D03*
G01X5696930Y3744130D03*
G01X5616930Y3744130D03*
G01X10066930Y3829130D03*
G01X10106930Y3739130D03*
G01X10026930Y3739130D03*
G01X10336930Y3829130D03*
G01X10376930Y3739130D03*
G01X10296930Y3739130D03*
G01X10646930Y3829130D03*
G01X10686930Y3739130D03*
G01X10606930Y3739130D03*
G01X10951930Y3829130D03*
G01X10991930Y3739130D03*
G01X10911930Y3739130D03*
G01X11241930Y3829130D03*
G01X11281930Y3739130D03*
G01X11201930Y3739130D03*
G01X11536930Y3829130D03*
G01X11576930Y3739130D03*
G01X11496930Y3739130D03*
G01X6525980Y4038270D03*
G01X6565980Y3948270D03*
G01X6485980Y3948270D03*
G01X6825980Y4028270D03*
G01X6865980Y3938270D03*
G01X6785980Y3938270D03*
G01X7106980Y4028270D03*
G01X7146980Y3938270D03*
G01X7066980Y3938270D03*
G01X7402200Y4031670D03*
G01X7442200Y3941670D03*
G01X7362200Y3941670D03*
G01X7697200Y4031670D03*
G01X7737200Y3941670D03*
G01X7657200Y3941670D03*
G01X7961930Y4038130D03*
G01X8001930Y3948130D03*
G01X7921930Y3948130D03*
G01X8676930Y4033130D03*
G01X8716930Y3943130D03*
G01X8636930Y3943130D03*
G01X4784930Y4036130D03*
G01X4824930Y3946130D03*
G01X4744930Y3946130D03*
G01X5081930Y4038130D03*
G01X5121930Y3948130D03*
G01X5041930Y3948130D03*
G01X5371930Y4037130D03*
G01X5411930Y3947130D03*
G01X5331930Y3947130D03*
G01X5656930Y4038130D03*
G01X5696930Y3948130D03*
G01X5616930Y3948130D03*
G01X10066930Y4033130D03*
G01X10106930Y3943130D03*
G01X10026930Y3943130D03*
G01X10336930Y4033130D03*
G01X10376930Y3943130D03*
G01X10296930Y3943130D03*
G01X10646930Y4033130D03*
G01X10686930Y3943130D03*
G01X10606930Y3943130D03*
G01X10951930Y4033130D03*
G01X10991930Y3943130D03*
G01X10911930Y3943130D03*
G01X11241930Y4033130D03*
G01X11281930Y3943130D03*
G01X11201930Y3943130D03*
G01X11536930Y4033130D03*
G01X11576930Y3943130D03*
G01X11496930Y3943130D03*
G01X6235980Y4033270D03*
G01X6275980Y3943270D03*
G01X6195980Y3943270D03*
G01X9344450Y4428190D03*
G01X9384450Y4338190D03*
G01X9304450Y4338190D03*
G01X9068860Y4428190D03*
G01X9108860Y4338190D03*
G01X9028860Y4338190D03*
G01X9206650Y4428190D03*
G01X9246650Y4338190D03*
G01X9166650Y4338190D03*
G01X9481930Y4428130D03*
G01X9521930Y4338130D03*
G01X9441930Y4338130D03*
G01X8953930Y4033130D03*
G01X8993930Y3943130D03*
G01X8913930Y3943130D03*
G01X9221930Y4038130D03*
G01X9261930Y3948130D03*
G01X9181930Y3948130D03*
G01X9506930Y4033130D03*
G01X9546930Y3943130D03*
G01X9466930Y3943130D03*
G01X8953930Y3829130D03*
G01X8993930Y3739130D03*
G01X8913930Y3739130D03*
G01X9221930Y3834130D03*
G01X9261930Y3744130D03*
G01X9181930Y3744130D03*
G01X9793930Y3829130D03*
G01X9833930Y3739130D03*
G01X9753930Y3739130D03*
G01X9506930Y3829130D03*
G01X9546930Y3739130D03*
G01X9466930Y3739130D03*
G01X9789930Y4033130D03*
G01X9829930Y3943130D03*
G01X9749930Y3943130D03*
G54D19*
G01X6574540Y4266180D03*
G01X6512540Y4266180D03*
G01X7430160Y5497480D03*
G01X7492160Y5497480D03*
G01X7233160Y5497480D03*
G01X7295160Y5497480D03*
G01X4926630Y4211650D03*
G01X4864630Y4211650D03*
G01X5064430Y4270710D03*
G01X5002430Y4270710D03*
G01X5340930Y3887130D03*
G01X5402930Y3887130D03*
G01X7749930Y4202130D03*
G01X7687930Y4202130D03*
G01X5625930Y3888130D03*
G01X5687930Y3888130D03*
G01X5625930Y3677130D03*
G01X5687930Y3677130D03*
G01X5053930Y4094130D03*
G01X5115930Y4094130D03*
G01X6712340Y4207130D03*
G01X6650340Y4207130D03*
G01X6712340Y4266180D03*
G01X6650340Y4266180D03*
G01X9906940Y4211650D03*
G01X9844940Y4211650D03*
G01X10035930Y3672130D03*
G01X10097930Y3672130D03*
G01X7888930Y4202130D03*
G01X7826930Y4202130D03*
G01X7888930Y4261130D03*
G01X7826930Y4261130D03*
G01X6976160Y5497480D03*
G01X7038160Y5497480D03*
G01X7930930Y3677130D03*
G01X7992930Y3677130D03*
G01X7930930Y4094130D03*
G01X7992930Y4094130D03*
G01X7749930Y4261130D03*
G01X7687930Y4261130D03*
G01X8645930Y3883130D03*
G01X8707930Y3883130D03*
G01X8645930Y3672130D03*
G01X8707930Y3672130D03*
G01X8638930Y4089130D03*
G01X8700930Y4089130D03*
G01X4926630Y4270710D03*
G01X4864630Y4270710D03*
G01X4753930Y3886130D03*
G01X4815930Y3886130D03*
G01X4753930Y3675130D03*
G01X4815930Y3675130D03*
G01X4750930Y4092130D03*
G01X4812930Y4092130D03*
G01X5064430Y4211650D03*
G01X5002430Y4211650D03*
G01X5050930Y3888130D03*
G01X5112930Y3888130D03*
G01X5050930Y3677130D03*
G01X5112930Y3677130D03*
G01X5340020Y4211650D03*
G01X5278020Y4211650D03*
G01X5340020Y4270710D03*
G01X5278020Y4270710D03*
G01X5340930Y3676130D03*
G01X5402930Y3676130D03*
G01X5437930Y4097130D03*
G01X5375930Y4097130D03*
G01X5202220Y4211650D03*
G01X5140220Y4211650D03*
G01X5202220Y4270710D03*
G01X5140220Y4270710D03*
G01X5625930Y4094130D03*
G01X5687930Y4094130D03*
G01X9906940Y4270710D03*
G01X9844940Y4270710D03*
G01X10035930Y3883130D03*
G01X10097930Y3883130D03*
G01X6574540Y4207130D03*
G01X6512540Y4207130D03*
G01X6204980Y3888270D03*
G01X6266980Y3888270D03*
G01X6205930Y3677130D03*
G01X6267930Y3677130D03*
G01X6204980Y4089270D03*
G01X6266980Y4089270D03*
G01X6494980Y3893270D03*
G01X6556980Y3893270D03*
G01X6495930Y3682130D03*
G01X6557930Y3682130D03*
G01X6494980Y4094270D03*
G01X6556980Y4094270D03*
G01X6987930Y4207130D03*
G01X6925930Y4207130D03*
G01X6987930Y4266180D03*
G01X6925930Y4266180D03*
G01X6794980Y3883270D03*
G01X6856980Y3883270D03*
G01X6795930Y3672130D03*
G01X6857930Y3672130D03*
G01X6794980Y4084270D03*
G01X6856980Y4084270D03*
G01X6850130Y4207130D03*
G01X6788130Y4207130D03*
G01X6850130Y4266180D03*
G01X6788130Y4266180D03*
G01X7075980Y3883270D03*
G01X7137980Y3883270D03*
G01X7075930Y3672130D03*
G01X7137930Y3672130D03*
G01X7075980Y4084270D03*
G01X7137980Y4084270D03*
G01X7474740Y4201650D03*
G01X7412740Y4201650D03*
G01X7474740Y4260710D03*
G01X7412740Y4260710D03*
G01X7371200Y3886670D03*
G01X7433200Y3886670D03*
G01X7370930Y3682130D03*
G01X7432930Y3682130D03*
G01X7371200Y4087670D03*
G01X7433200Y4087670D03*
G01X7612540Y4201650D03*
G01X7550540Y4201650D03*
G01X7612540Y4260710D03*
G01X7550540Y4260710D03*
G01X7666200Y3886670D03*
G01X7728200Y3886670D03*
G01X7665930Y3682130D03*
G01X7727930Y3682130D03*
G01X7666200Y4087670D03*
G01X7728200Y4087670D03*
G01X10035930Y4089130D03*
G01X10097930Y4089130D03*
G01X10044740Y4211650D03*
G01X9982740Y4211650D03*
G01X10044740Y4270710D03*
G01X9982740Y4270710D03*
G01X10305930Y3883130D03*
G01X10367930Y3883130D03*
G01X10305930Y3672130D03*
G01X10367930Y3672130D03*
G01X10305930Y4089130D03*
G01X10367930Y4089130D03*
G01X10319930Y4212130D03*
G01X10257930Y4212130D03*
G01X10319930Y4271130D03*
G01X10257930Y4271130D03*
G01X10615930Y3883130D03*
G01X10677930Y3883130D03*
G01X10615930Y3672130D03*
G01X10677930Y3672130D03*
G01X10615930Y4089130D03*
G01X10677930Y4089130D03*
G01X10182930Y4212130D03*
G01X10120930Y4212130D03*
G01X10182930Y4271130D03*
G01X10120930Y4271130D03*
G01X10920930Y3883130D03*
G01X10982930Y3883130D03*
G01X10920930Y3672130D03*
G01X10982930Y3672130D03*
G01X10920930Y4089130D03*
G01X10982930Y4089130D03*
G01X11107930Y4260590D03*
G01X11045930Y4260590D03*
G01X11107930Y4319650D03*
G01X11045930Y4319650D03*
G01X11210930Y3883130D03*
G01X11272930Y3883130D03*
G01X11210930Y3672130D03*
G01X11272930Y3672130D03*
G01X11210930Y4089130D03*
G01X11272930Y4089130D03*
G01X11371980Y4255060D03*
G01X11309980Y4255060D03*
G01X11371980Y4314120D03*
G01X11309980Y4314120D03*
G01X11505930Y3883130D03*
G01X11567930Y3883130D03*
G01X11505930Y3672130D03*
G01X11567930Y3672130D03*
G01X11505930Y4089130D03*
G01X11567930Y4089130D03*
G01X7931160Y3888350D03*
G01X7993160Y3888350D03*
G01X9375450Y4270710D03*
G01X9313450Y4270710D03*
G01X8924930Y3883130D03*
G01X8986930Y3883130D03*
G01X9758930Y3883130D03*
G01X9820930Y3883130D03*
G01X8918930Y4089130D03*
G01X8980930Y4089130D03*
G01X9237650Y4270710D03*
G01X9175650Y4270710D03*
G01X9099860Y4211650D03*
G01X9037860Y4211650D03*
G01X9237650Y4211650D03*
G01X9175650Y4211650D03*
G01X9190930Y3888130D03*
G01X9252930Y3888130D03*
G01X9512930Y4212130D03*
G01X9450930Y4212130D03*
G01X9190930Y4094130D03*
G01X9252930Y4094130D03*
G01X9475930Y4089130D03*
G01X9537930Y4089130D03*
G01X9375450Y4211650D03*
G01X9313450Y4211650D03*
G01X9099860Y4270710D03*
G01X9037860Y4270710D03*
G01X9475930Y3883130D03*
G01X9537930Y3883130D03*
G01X9475930Y3672130D03*
G01X9537930Y3672130D03*
G01X9190930Y3677130D03*
G01X9252930Y3677130D03*
G01X9512930Y4271130D03*
G01X9450930Y4271130D03*
G01X8920930Y3672130D03*
G01X8982930Y3672130D03*
G01X9765930Y3672130D03*
G01X9827930Y3672130D03*
G01X9766930Y4089130D03*
G01X9828930Y4089130D03*
G54D20*
G01X7811930Y5643130D03*
G01X7811930Y5581130D03*
G01X7038160Y4889480D03*
G01X7038160Y4951480D03*
G01X7039160Y5185480D03*
G01X7039160Y5247480D03*
G01X7214160Y4953480D03*
G01X7214160Y4891480D03*
G01X7871930Y5643130D03*
G01X7871930Y5581130D03*
G01X7489160Y4891480D03*
G01X7489160Y4953480D03*
G01X7649160Y5070480D03*
G01X7649160Y5008480D03*
G01X7039160Y5429480D03*
G01X7039160Y5367480D03*
G01X7649160Y4891480D03*
G01X7649160Y4953480D03*
G01X7293160Y4891480D03*
G01X7293160Y4953480D03*
G01X7649160Y5542480D03*
G01X7649160Y5480480D03*
G01X7097160Y4891480D03*
G01X7097160Y4953480D03*
G01X7649160Y5286480D03*
G01X7649160Y5224480D03*
G01X6826930Y6051130D03*
G01X6826930Y5989130D03*
G01X7001930Y6050130D03*
G01X7001930Y5988130D03*
G01X6883930Y5988130D03*
G01X6883930Y6050130D03*
G01X6942930Y6050130D03*
G01X6942930Y5988130D03*
G01X7566930Y6050130D03*
G01X7566930Y5988130D03*
G01X7623930Y5988130D03*
G01X7623930Y6050130D03*
G01X7683930Y6050130D03*
G01X7683930Y5988130D03*
G01X7742930Y6050130D03*
G01X7742930Y5988130D03*
G01X7170930Y6050130D03*
G01X7170930Y5988130D03*
G01X7346930Y6050130D03*
G01X7346930Y5988130D03*
G01X7230930Y5988130D03*
G01X7230930Y6050130D03*
G01X7289930Y6050130D03*
G01X7289930Y5988130D03*
G01X7905930Y6050130D03*
G01X7905930Y5988130D03*
G01X8102930Y6050130D03*
G01X8102930Y5988130D03*
G01X7965930Y5988130D03*
G01X7965930Y6050130D03*
G01X8035930Y6050130D03*
G01X8035930Y5988130D03*
G54D21*
G01X8430670Y4692680D03*
G01X8430670Y4511570D03*
G54D22*
G01X4796930Y6437130D03*
G01X4796930Y5807130D03*
G01X11889760Y5867130D03*
G54D23*
G01X4796930Y6337130D03*
G01X4796930Y6237130D03*
G01X4796930Y6137130D03*
G01X4796930Y6037130D03*
G01X4796930Y5707130D03*
G01X4796930Y5607130D03*
G01X4796930Y5507130D03*
G01X11889760Y5967130D03*
G01X11889760Y6067130D03*
G01X11889760Y6167130D03*
G54D24*
G01X11401930Y5692130D03*
G01X11401930Y6542520D03*
G54D25*
G01X5979410Y6921260D03*
G01X5979410Y7244090D03*
G01X5784410Y6921260D03*
G01X5784410Y7244090D03*
G01X5394410Y6921260D03*
G01X5394410Y7244090D03*
G01X5589410Y6921260D03*
G01X5589410Y7244090D03*
G01X5199410Y6921260D03*
G01X5199410Y7244090D03*
G01X5004410Y6921260D03*
G01X5004410Y7244090D03*
M02*
