%TF.GenerationSoftware,KiCad,Pcbnew,10.0.4*%
%TF.CreationDate,2026-08-13T09:35:57+08:00*%
%TF.ProjectId,IOB_v3.2.1,494f425f-7633-42e3-922e-312e6b696361,3.2.1*%
%TF.SameCoordinates,Original*%
%TF.FileFunction,Soldermask,Top*%
%TF.FilePolarity,Negative*%
%FSLAX46Y46*%
G04 Gerber Fmt 4.6, Leading zero omitted, Abs format (unit mm)*
G04 Created by KiCad (PCBNEW 10.0.4) date 2026-08-13 09:35:57*
%MOMM*%
%LPD*%
G01*
G04 APERTURE LIST*
G04 Aperture macros list*
%AMRoundRect*
0 Rectangle with rounded corners*
0 $1 Rounding radius*
0 $2 $3 $4 $5 $6 $7 $8 $9 X,Y pos of 4 corners*
0 Add a 4 corners polygon primitive as box body*
4,1,4,$2,$3,$4,$5,$6,$7,$8,$9,$2,$3,0*
0 Add four circle primitives for the rounded corners*
1,1,$1+$1,$2,$3*
1,1,$1+$1,$4,$5*
1,1,$1+$1,$6,$7*
1,1,$1+$1,$8,$9*
0 Add four rect primitives between the rounded corners*
20,1,$1+$1,$2,$3,$4,$5,0*
20,1,$1+$1,$4,$5,$6,$7,0*
20,1,$1+$1,$6,$7,$8,$9,0*
20,1,$1+$1,$8,$9,$2,$3,0*%
G04 Aperture macros list end*
%ADD10C,1.676400*%
%ADD11RoundRect,0.076200X0.762000X-0.762000X0.762000X0.762000X-0.762000X0.762000X-0.762000X-0.762000X0*%
%ADD12C,2.652400*%
%ADD13C,2.692400*%
%ADD14C,2.152400*%
%ADD15RoundRect,0.076200X0.635000X0.508000X-0.635000X0.508000X-0.635000X-0.508000X0.635000X-0.508000X0*%
%ADD16RoundRect,0.076200X-0.482600X-0.381000X0.482600X-0.381000X0.482600X0.381000X-0.482600X0.381000X0*%
%ADD17C,1.952400*%
%ADD18RoundRect,0.076200X0.762000X0.762000X-0.762000X0.762000X-0.762000X-0.762000X0.762000X-0.762000X0*%
%ADD19RoundRect,0.076200X-0.762000X-0.635000X0.762000X-0.635000X0.762000X0.635000X-0.762000X0.635000X0*%
%ADD20O,3.152400X1.676400*%
%ADD21RoundRect,0.076200X0.635000X-0.762000X0.635000X0.762000X-0.635000X0.762000X-0.635000X-0.762000X0*%
%ADD22RoundRect,0.076200X0.482600X0.381000X-0.482600X0.381000X-0.482600X-0.381000X0.482600X-0.381000X0*%
%ADD23RoundRect,0.076200X0.508000X-0.635000X0.508000X0.635000X-0.508000X0.635000X-0.508000X-0.635000X0*%
%ADD24RoundRect,0.076200X1.270000X0.508000X-1.270000X0.508000X-1.270000X-0.508000X1.270000X-0.508000X0*%
%ADD25RoundRect,0.076200X0.381000X-0.482600X0.381000X0.482600X-0.381000X0.482600X-0.381000X-0.482600X0*%
%ADD26O,0.762000X2.032000*%
%ADD27RoundRect,0.076200X-0.381000X0.482600X-0.381000X-0.482600X0.381000X-0.482600X0.381000X0.482600X0*%
%ADD28RoundRect,0.076200X-0.400000X-0.150000X0.400000X-0.150000X0.400000X0.150000X-0.400000X0.150000X0*%
%ADD29RoundRect,0.076200X-0.400000X-0.200000X0.400000X-0.200000X0.400000X0.200000X-0.400000X0.200000X0*%
%ADD30O,2.032000X0.762000*%
%ADD31RoundRect,0.076200X1.150000X0.750000X-1.150000X0.750000X-1.150000X-0.750000X1.150000X-0.750000X0*%
%ADD32RoundRect,0.076200X-2.540000X-0.889000X2.540000X-0.889000X2.540000X0.889000X-2.540000X0.889000X0*%
%ADD33C,2.184400*%
%ADD34RoundRect,0.076200X-0.635000X0.762000X-0.635000X-0.762000X0.635000X-0.762000X0.635000X0.762000X0*%
%ADD35C,3.200400*%
%ADD36C,1.422400*%
%ADD37RoundRect,0.076200X0.762000X0.635000X-0.762000X0.635000X-0.762000X-0.635000X0.762000X-0.635000X0*%
%ADD38RoundRect,0.076200X-1.150000X-0.750000X1.150000X-0.750000X1.150000X0.750000X-1.150000X0.750000X0*%
%ADD39O,0.482600X1.676400*%
%ADD40RoundRect,0.076200X0.750000X-1.150000X0.750000X1.150000X-0.750000X1.150000X-0.750000X-1.150000X0*%
%ADD41RoundRect,0.076200X0.571500X-0.825500X0.571500X0.825500X-0.571500X0.825500X-0.571500X-0.825500X0*%
%ADD42RoundRect,0.076200X-1.498600X-0.825500X1.498600X-0.825500X1.498600X0.825500X-1.498600X0.825500X0*%
%ADD43RoundRect,0.076200X1.270000X1.016000X-1.270000X1.016000X-1.270000X-1.016000X1.270000X-1.016000X0*%
%ADD44RoundRect,0.076200X-0.750000X-0.127000X0.750000X-0.127000X0.750000X0.127000X-0.750000X0.127000X0*%
%ADD45RoundRect,0.076200X-0.127000X0.750000X-0.127000X-0.750000X0.127000X-0.750000X0.127000X0.750000X0*%
%ADD46RoundRect,0.076200X-1.270000X-1.016000X1.270000X-1.016000X1.270000X1.016000X-1.270000X1.016000X0*%
%ADD47RoundRect,0.076200X0.600000X-0.625000X0.600000X0.625000X-0.600000X0.625000X-0.600000X-0.625000X0*%
%ADD48RoundRect,0.076200X-0.508000X0.635000X-0.508000X-0.635000X0.508000X-0.635000X0.508000X0.635000X0*%
G04 APERTURE END LIST*
D10*
%TO.C,J23*%
X68342126Y-69657036D03*
X68342126Y-67117036D03*
X68342126Y-64577036D03*
X68342126Y-62037036D03*
X68342126Y-59497036D03*
%TD*%
%TO.C,J45*%
X68342126Y-83119036D03*
X68342126Y-80579036D03*
X68342126Y-78039036D03*
D11*
X68342126Y-75499036D03*
%TD*%
D12*
%TO.C,J38*%
X168400122Y-44499930D03*
X168400122Y-39499930D03*
X173400122Y-44499930D03*
X173400122Y-39499930D03*
X178400122Y-44499930D03*
X178400122Y-39499930D03*
X183400122Y-44499930D03*
X183400122Y-39499930D03*
X188400122Y-44499930D03*
X188400122Y-39499930D03*
%TD*%
%TO.C,J37*%
X195527322Y-44499930D03*
X195527322Y-39499930D03*
X200527322Y-44499930D03*
X200527322Y-39499930D03*
X205527322Y-44499930D03*
X205527322Y-39499930D03*
X210527322Y-44499930D03*
X210527322Y-39499930D03*
X215527322Y-44499930D03*
X215527322Y-39499930D03*
%TD*%
D13*
%TO.C,C8*%
X228108126Y-69403036D03*
X223108126Y-69403036D03*
%TD*%
D14*
%TO.C,R93*%
X188354078Y-73934142D03*
X188354078Y-68295342D03*
%TD*%
%TO.C,R87*%
X165346250Y-61716742D03*
X165346250Y-56077942D03*
%TD*%
D11*
%TO.C,J4*%
X65802126Y-91374036D03*
D10*
X65802126Y-88834036D03*
%TD*%
D12*
%TO.C,J7*%
X240600050Y-140500106D03*
X240600050Y-145500106D03*
X235600050Y-140500106D03*
X235600050Y-145500106D03*
X230600050Y-140500106D03*
X230600050Y-145500106D03*
%TD*%
D15*
%TO.C,Q37*%
X74057126Y-123886036D03*
X76343126Y-124902036D03*
X76343126Y-122870036D03*
%TD*%
D16*
%TO.C,LB10*%
X111242726Y-128077036D03*
X112817526Y-128077036D03*
%TD*%
%TO.C,R31*%
X68697726Y-91755036D03*
X70272526Y-91755036D03*
%TD*%
D17*
%TO.C,U14*%
X204610078Y-69793942D03*
X204610078Y-72333942D03*
X204610078Y-74873942D03*
%TD*%
D15*
%TO.C,Q22*%
X132985126Y-123886036D03*
X135271126Y-124902036D03*
X135271126Y-122870036D03*
%TD*%
D18*
%TO.C,LB7*%
X162766626Y-85024036D03*
X159337626Y-85024036D03*
%TD*%
D19*
%TO.C,C149*%
X104537126Y-130109036D03*
X107077126Y-130109036D03*
%TD*%
D20*
%TO.C,J1*%
X93424118Y-47200134D03*
D10*
X93424118Y-45100134D03*
X93424118Y-43100134D03*
X93424118Y-41100134D03*
D20*
X93424118Y-39000134D03*
%TD*%
D21*
%TO.C,R103*%
X169561126Y-127315036D03*
X169561126Y-124775036D03*
%TD*%
D22*
%TO.C,R176*%
X145300062Y-64702512D03*
X143725262Y-64702512D03*
%TD*%
D19*
%TO.C,R199*%
X240427126Y-89723036D03*
X242967126Y-89723036D03*
%TD*%
D16*
%TO.C,R167*%
X132197726Y-62799036D03*
X133772526Y-62799036D03*
%TD*%
D23*
%TO.C,Q3*%
X126635126Y-55560036D03*
X125619126Y-57846036D03*
X127651126Y-57846036D03*
%TD*%
D16*
%TO.C,LB23*%
X215890726Y-128077036D03*
X217465526Y-128077036D03*
%TD*%
%TO.C,LB11*%
X118735726Y-128077036D03*
X120310526Y-128077036D03*
%TD*%
D22*
%TO.C,R32*%
X74336526Y-62545036D03*
X72761726Y-62545036D03*
%TD*%
D19*
%TO.C,C157*%
X134128126Y-130109036D03*
X136668126Y-130109036D03*
%TD*%
D24*
%TO.C,J9*%
X71237726Y-106385436D03*
X66157726Y-106385436D03*
X71237726Y-104353436D03*
X66157726Y-104353436D03*
X71237726Y-102321436D03*
X66157726Y-102321436D03*
X71237726Y-100289436D03*
X66157726Y-100289436D03*
X71237726Y-98257436D03*
X66157726Y-98257436D03*
X71237726Y-96225436D03*
X66157726Y-96225436D03*
X71216644Y-94193436D03*
X66157726Y-94193436D03*
%TD*%
D25*
%TO.C,R300*%
X246396126Y-109433436D03*
X246396126Y-107858636D03*
%TD*%
D19*
%TO.C,R198*%
X240427126Y-92263036D03*
X242967126Y-92263036D03*
%TD*%
D16*
%TO.C,R336*%
X231384726Y-121473036D03*
X232959526Y-121473036D03*
%TD*%
D26*
%TO.C,U50*%
X239030126Y-112633836D03*
X237760126Y-112633836D03*
X236490126Y-112633836D03*
X235220126Y-112633836D03*
X233950126Y-112633836D03*
X232680126Y-112633836D03*
X231410126Y-112633836D03*
X231410126Y-118374236D03*
X232680126Y-118374236D03*
X233950126Y-118374236D03*
X235220126Y-118374236D03*
X236490126Y-118374236D03*
X237760126Y-118374236D03*
X239030126Y-118374236D03*
%TD*%
D27*
%TO.C,C148*%
X243221126Y-107858636D03*
X243221126Y-109433436D03*
%TD*%
D26*
%TO.C,U4*%
X120843926Y-72578036D03*
X122113926Y-72578036D03*
X123383926Y-72578036D03*
X124653926Y-72578036D03*
X124653926Y-66837636D03*
X123383926Y-66837636D03*
X122113926Y-66837636D03*
X120843926Y-66837636D03*
%TD*%
D19*
%TO.C,C68*%
X231537126Y-130109036D03*
X234077126Y-130109036D03*
%TD*%
D22*
%TO.C,R294*%
X209591526Y-126553036D03*
X208016726Y-126553036D03*
%TD*%
D16*
%TO.C,R12*%
X119624726Y-62672036D03*
X121199526Y-62672036D03*
%TD*%
D15*
%TO.C,Q55*%
X222901126Y-123886036D03*
X225187126Y-124902036D03*
X225187126Y-122870036D03*
%TD*%
D19*
%TO.C,R207*%
X97462718Y-54912844D03*
X100002718Y-54912844D03*
%TD*%
D28*
%TO.C,U1*%
X103402126Y-69769036D03*
X103402126Y-70419036D03*
X103402126Y-71069036D03*
D29*
X105852126Y-71069036D03*
X105852126Y-69769036D03*
%TD*%
D16*
%TO.C,LB26*%
X238496726Y-128077036D03*
X240071526Y-128077036D03*
%TD*%
D18*
%TO.C,R296*%
X243792626Y-105471036D03*
X240363626Y-105471036D03*
%TD*%
D25*
%TO.C,R185*%
X152675460Y-64602436D03*
X152675460Y-63027636D03*
%TD*%
D10*
%TO.C,J41*%
X248500008Y-73975036D03*
X248500008Y-71435036D03*
X248500008Y-68895036D03*
X248500008Y-66355036D03*
%TD*%
D15*
%TO.C,Q34*%
X66617720Y-123858350D03*
X68903720Y-124874350D03*
X68903720Y-122842350D03*
%TD*%
D16*
%TO.C,R85*%
X185156726Y-87183036D03*
X186731526Y-87183036D03*
%TD*%
D22*
%TO.C,R33*%
X74336526Y-64069036D03*
X72761726Y-64069036D03*
%TD*%
D30*
%TO.C,D77*%
X241620926Y-111313036D03*
X241620926Y-112583036D03*
X241620926Y-113853036D03*
X241620926Y-115123036D03*
X247361326Y-115123036D03*
X247361326Y-113853036D03*
X247361326Y-112583036D03*
X247361326Y-111313036D03*
%TD*%
D19*
%TO.C,C150*%
X111776126Y-130109036D03*
X114316126Y-130109036D03*
%TD*%
D20*
%TO.C,J13*%
X88471118Y-47200134D03*
D10*
X88471118Y-45100134D03*
X88471118Y-43100134D03*
X88471118Y-41100134D03*
D20*
X88471118Y-39000134D03*
%TD*%
D19*
%TO.C,C58*%
X89805126Y-130109036D03*
X92345126Y-130109036D03*
%TD*%
D21*
%TO.C,R153*%
X198136126Y-127315036D03*
X198136126Y-124775036D03*
%TD*%
D16*
%TO.C,LB6*%
X194173726Y-128077036D03*
X195748526Y-128077036D03*
%TD*%
D19*
%TO.C,C26*%
X173371126Y-130109036D03*
X175911126Y-130109036D03*
%TD*%
D16*
%TO.C,R338*%
X172964726Y-121473036D03*
X174539526Y-121473036D03*
%TD*%
%TO.C,LB18*%
X74539726Y-128077036D03*
X76114526Y-128077036D03*
%TD*%
D17*
%TO.C,U19*%
X170116370Y-57570192D03*
X170116370Y-60110192D03*
X170116370Y-62650192D03*
%TD*%
D16*
%TO.C,R209*%
X141214726Y-121473036D03*
X142789526Y-121473036D03*
%TD*%
D27*
%TO.C,R299*%
X247920126Y-107858636D03*
X247920126Y-109433436D03*
%TD*%
D21*
%TO.C,R7*%
X194500116Y-83000164D03*
X194500116Y-80460164D03*
%TD*%
D16*
%TO.C,LB24*%
X223637726Y-128077036D03*
X225212526Y-128077036D03*
%TD*%
%TO.C,C131*%
X114429918Y-64285444D03*
X116004718Y-64285444D03*
%TD*%
D22*
%TO.C,C135*%
X140249526Y-64818844D03*
X138674726Y-64818844D03*
%TD*%
D21*
%TO.C,R256*%
X107712126Y-127315036D03*
X107712126Y-124775036D03*
%TD*%
D31*
%TO.C,D39*%
X156645988Y-60523734D03*
X156645988Y-55923734D03*
%TD*%
D16*
%TO.C,LB22*%
X208016726Y-128077036D03*
X209591526Y-128077036D03*
%TD*%
D21*
%TO.C,R146*%
X190643126Y-127315036D03*
X190643126Y-124775036D03*
%TD*%
D19*
%TO.C,R208*%
X108093126Y-54925036D03*
X110633126Y-54925036D03*
%TD*%
D26*
%TO.C,U24*%
X130546726Y-72578036D03*
X131816726Y-72578036D03*
X133086726Y-72578036D03*
X134356726Y-72578036D03*
X134356726Y-66837636D03*
X133086726Y-66837636D03*
X131816726Y-66837636D03*
X130546726Y-66837636D03*
%TD*%
D13*
%TO.C,C32*%
X228108126Y-79944036D03*
X223108126Y-79944036D03*
%TD*%
D16*
%TO.C,C23*%
X200777726Y-110424036D03*
X202352526Y-110424036D03*
%TD*%
D22*
%TO.C,R184*%
X155923104Y-64785570D03*
X154348304Y-64785570D03*
%TD*%
D14*
%TO.C,R76*%
X199834878Y-68295342D03*
X199834878Y-73934142D03*
%TD*%
D16*
%TO.C,R337*%
X239004726Y-121473036D03*
X240579526Y-121473036D03*
%TD*%
D32*
%TO.C,Y1*%
X105172126Y-99883036D03*
X113935126Y-99883036D03*
%TD*%
D19*
%TO.C,C66*%
X224298126Y-130109036D03*
X226838126Y-130109036D03*
%TD*%
D16*
%TO.C,C138*%
X68697726Y-90104036D03*
X70272526Y-90104036D03*
%TD*%
D21*
%TO.C,R273*%
X129810126Y-127315036D03*
X129810126Y-124775036D03*
%TD*%
D16*
%TO.C,LB13*%
X133467726Y-128077036D03*
X135042526Y-128077036D03*
%TD*%
D26*
%TO.C,U34*%
X120412126Y-112760836D03*
X119142126Y-112760836D03*
X117872126Y-112760836D03*
X116602126Y-112760836D03*
X115332126Y-112760836D03*
X114062126Y-112760836D03*
X112792126Y-112760836D03*
X112792126Y-118501236D03*
X114062126Y-118501236D03*
X115332126Y-118501236D03*
X116602126Y-118501236D03*
X117872126Y-118501236D03*
X119142126Y-118501236D03*
X120412126Y-118501236D03*
%TD*%
D19*
%TO.C,R95*%
X240427126Y-97343036D03*
X242967126Y-97343036D03*
%TD*%
D16*
%TO.C,R175*%
X143725262Y-62924512D03*
X145300062Y-62924512D03*
%TD*%
D33*
%TO.C,L1*%
X217567126Y-89088036D03*
X222647126Y-89088036D03*
%TD*%
D25*
%TO.C,R182*%
X155464126Y-69428436D03*
X155464126Y-67853636D03*
%TD*%
D22*
%TO.C,R201*%
X236845726Y-89926236D03*
X235270926Y-89926236D03*
%TD*%
D16*
%TO.C,C12*%
X107051726Y-96581036D03*
X108626526Y-96581036D03*
%TD*%
D22*
%TO.C,R219*%
X105451526Y-126553036D03*
X103876726Y-126553036D03*
%TD*%
D16*
%TO.C,LB17*%
X67125720Y-128023950D03*
X68700520Y-128023950D03*
%TD*%
D19*
%TO.C,C43*%
X187595126Y-130109036D03*
X190135126Y-130109036D03*
%TD*%
D15*
%TO.C,Q49*%
X207407126Y-123886036D03*
X209693126Y-124902036D03*
X209693126Y-122870036D03*
%TD*%
D21*
%TO.C,R214*%
X115078126Y-127315036D03*
X115078126Y-124775036D03*
%TD*%
D34*
%TO.C,R15*%
X115191918Y-59586444D03*
X115191918Y-62126444D03*
%TD*%
D16*
%TO.C,R159*%
X104892726Y-121473036D03*
X106467526Y-121473036D03*
%TD*%
D34*
%TO.C,R320*%
X234712126Y-124775036D03*
X234712126Y-127315036D03*
%TD*%
D16*
%TO.C,C19*%
X72761726Y-61021036D03*
X74336526Y-61021036D03*
%TD*%
D21*
%TO.C,R306*%
X219599126Y-127315036D03*
X219599126Y-124775036D03*
%TD*%
D10*
%TO.C,J6*%
X81866610Y-67346652D03*
X79326610Y-67346652D03*
X81866610Y-64806652D03*
X79326610Y-64806652D03*
X81866610Y-62266652D03*
X79326610Y-62266652D03*
X81866610Y-59726652D03*
X79326610Y-59726652D03*
%TD*%
D25*
%TO.C,R169*%
X130127118Y-64463244D03*
X130127118Y-62888444D03*
%TD*%
D22*
%TO.C,R168*%
X133772526Y-64577036D03*
X132197726Y-64577036D03*
%TD*%
D14*
%TO.C,R80*%
X211341078Y-68295342D03*
X211341078Y-73934142D03*
%TD*%
D19*
%TO.C,C56*%
X82439126Y-130109036D03*
X84979126Y-130109036D03*
%TD*%
D21*
%TO.C,R295*%
X211852126Y-127315036D03*
X211852126Y-124775036D03*
%TD*%
D16*
%TO.C,R340*%
X187442726Y-121473036D03*
X189017526Y-121473036D03*
%TD*%
D30*
%TO.C,U29*%
X230952926Y-84643036D03*
X230952926Y-85913036D03*
X230952926Y-87183036D03*
X230952926Y-88453036D03*
X236693326Y-88453036D03*
X236693326Y-87183036D03*
X236693326Y-85913036D03*
X236693326Y-84643036D03*
%TD*%
D22*
%TO.C,C21*%
X234610526Y-110170036D03*
X233035726Y-110170036D03*
%TD*%
D21*
%TO.C,R77*%
X203517116Y-83000164D03*
X203517116Y-80460164D03*
%TD*%
D34*
%TO.C,R171*%
X130127118Y-56513044D03*
X130127118Y-59053044D03*
%TD*%
D16*
%TO.C,R216*%
X75428726Y-121473036D03*
X77003526Y-121473036D03*
%TD*%
D14*
%TO.C,R78*%
X199846308Y-56077942D03*
X199846308Y-61716742D03*
%TD*%
D25*
%TO.C,C27*%
X170831126Y-118196436D03*
X170831126Y-116621636D03*
%TD*%
D22*
%TO.C,R40*%
X86274526Y-67879036D03*
X84699726Y-67879036D03*
%TD*%
%TO.C,R123*%
X83480526Y-126553036D03*
X81905726Y-126553036D03*
%TD*%
%TO.C,R312*%
X225212526Y-126553036D03*
X223637726Y-126553036D03*
%TD*%
%TO.C,R102*%
X167427526Y-126553036D03*
X165852726Y-126553036D03*
%TD*%
D34*
%TO.C,R170*%
X126647318Y-60119844D03*
X126647318Y-62659844D03*
%TD*%
%TO.C,C4*%
X102085518Y-61262844D03*
X102085518Y-63802844D03*
%TD*%
D15*
%TO.C,Q61*%
X237887126Y-123886036D03*
X240173126Y-124902036D03*
X240173126Y-122870036D03*
%TD*%
D25*
%TO.C,R166*%
X135779126Y-69428436D03*
X135779126Y-67853636D03*
%TD*%
D16*
%TO.C,LB15*%
X147691726Y-128077036D03*
X149266526Y-128077036D03*
%TD*%
D22*
%TO.C,R41*%
X86274526Y-66228036D03*
X84699726Y-66228036D03*
%TD*%
D35*
%TO.C,F3*%
X236109126Y-78420036D03*
X236109126Y-56820036D03*
%TD*%
D34*
%TO.C,R187*%
X152675460Y-56510504D03*
X152675460Y-59050504D03*
%TD*%
D16*
%TO.C,R220*%
X82413726Y-121473036D03*
X83988526Y-121473036D03*
%TD*%
D31*
%TO.C,D37*%
X133454518Y-60565644D03*
X133454518Y-55965644D03*
%TD*%
D16*
%TO.C,R341*%
X195316726Y-121473036D03*
X196891526Y-121473036D03*
%TD*%
D36*
%TO.C,C29*%
X168021126Y-83754036D03*
X166021126Y-83754036D03*
%TD*%
D16*
%TO.C,LB20*%
X89144726Y-128077036D03*
X90719526Y-128077036D03*
%TD*%
D22*
%TO.C,R319*%
X232578526Y-126553036D03*
X231003726Y-126553036D03*
%TD*%
D19*
%TO.C,C60*%
X201692126Y-130109036D03*
X204232126Y-130109036D03*
%TD*%
D16*
%TO.C,R160*%
X111242726Y-121600036D03*
X112817526Y-121600036D03*
%TD*%
%TO.C,R30*%
X68697726Y-88326036D03*
X70272526Y-88326036D03*
%TD*%
D23*
%TO.C,D2*%
X104981118Y-60831044D03*
X103965118Y-63117044D03*
X105997118Y-63117044D03*
%TD*%
D27*
%TO.C,C22*%
X148225126Y-115605636D03*
X148225126Y-117180436D03*
%TD*%
D37*
%TO.C,R139*%
X110633126Y-60259036D03*
X108093126Y-60259036D03*
%TD*%
D38*
%TO.C,D42*%
X228870126Y-57070036D03*
X228870126Y-61670036D03*
%TD*%
D25*
%TO.C,R177*%
X142065118Y-64590244D03*
X142065118Y-63015444D03*
%TD*%
D21*
%TO.C,R65*%
X183404126Y-127315036D03*
X183404126Y-124775036D03*
%TD*%
D22*
%TO.C,R1*%
X149266526Y-126553036D03*
X147691726Y-126553036D03*
%TD*%
D20*
%TO.C,J11*%
X83518118Y-47200134D03*
D10*
X83518118Y-45100134D03*
X83518118Y-43100134D03*
X83518118Y-41100134D03*
D20*
X83518118Y-39000134D03*
%TD*%
D16*
%TO.C,R215*%
X67582920Y-121418172D03*
X69157720Y-121418172D03*
%TD*%
D14*
%TO.C,R91*%
X176846354Y-56077942D03*
X176846354Y-61716742D03*
%TD*%
D39*
%TO.C,U2*%
X197623046Y-92898036D03*
X198273286Y-92898036D03*
X198923526Y-92898036D03*
X199573766Y-92898036D03*
X200224006Y-92898036D03*
X200874246Y-92898036D03*
X201524486Y-92898036D03*
X202174726Y-92898036D03*
X202824966Y-92898036D03*
X203475206Y-92898036D03*
X203475206Y-87056036D03*
X202824966Y-87056036D03*
X202174726Y-87056036D03*
X201524486Y-87056036D03*
X200874246Y-87056036D03*
X200224006Y-87056036D03*
X199573766Y-87056036D03*
X198923526Y-87056036D03*
X198273286Y-87056036D03*
X197623046Y-87056036D03*
%TD*%
D22*
%TO.C,R13*%
X121199526Y-64450036D03*
X119624726Y-64450036D03*
%TD*%
D16*
%TO.C,R162*%
X126101726Y-121092036D03*
X127676526Y-121092036D03*
%TD*%
D14*
%TO.C,R89*%
X176847878Y-68295342D03*
X176847878Y-73934142D03*
%TD*%
D16*
%TO.C,R183*%
X154348304Y-63007570D03*
X155923104Y-63007570D03*
%TD*%
D21*
%TO.C,R131*%
X92980126Y-127315036D03*
X92980126Y-124775036D03*
%TD*%
D22*
%TO.C,R46*%
X74336526Y-67117036D03*
X72761726Y-67117036D03*
%TD*%
%TO.C,C134*%
X127930526Y-64831036D03*
X126355726Y-64831036D03*
%TD*%
D12*
%TO.C,J10*%
X73100238Y-145500106D03*
X73100238Y-140500106D03*
X78100238Y-145500106D03*
X78100238Y-140500106D03*
X83100238Y-145500106D03*
X83100238Y-140500106D03*
X88100238Y-145500106D03*
X88100238Y-140500106D03*
X93100238Y-145500106D03*
X93100238Y-140500106D03*
X98100238Y-145500106D03*
X98100238Y-140500106D03*
%TD*%
D21*
%TO.C,R92*%
X190004316Y-83000164D03*
X190004316Y-80460164D03*
%TD*%
D40*
%TO.C,D4*%
X229999126Y-103439036D03*
X234599126Y-103439036D03*
%TD*%
D25*
%TO.C,C30*%
X172736126Y-90129436D03*
X172736126Y-88554636D03*
%TD*%
D22*
%TO.C,R213*%
X112798222Y-126332564D03*
X111223422Y-126332564D03*
%TD*%
D16*
%TO.C,R335*%
X224145726Y-121473036D03*
X225720526Y-121473036D03*
%TD*%
%TO.C,LB3*%
X179695726Y-128077036D03*
X181270526Y-128077036D03*
%TD*%
D27*
%TO.C,R212*%
X244872126Y-107858636D03*
X244872126Y-109433436D03*
%TD*%
D23*
%TO.C,Q1*%
X115191918Y-55293844D03*
X114175918Y-57579844D03*
X116207918Y-57579844D03*
%TD*%
D19*
%TO.C,C155*%
X126635126Y-130109036D03*
X129175126Y-130109036D03*
%TD*%
D25*
%TO.C,C51*%
X236871126Y-105496436D03*
X236871126Y-103921636D03*
%TD*%
D26*
%TO.C,U46*%
X204740126Y-112633836D03*
X203470126Y-112633836D03*
X202200126Y-112633836D03*
X200930126Y-112633836D03*
X199660126Y-112633836D03*
X198390126Y-112633836D03*
X197120126Y-112633836D03*
X197120126Y-118374236D03*
X198390126Y-118374236D03*
X199660126Y-118374236D03*
X200930126Y-118374236D03*
X202200126Y-118374236D03*
X203470126Y-118374236D03*
X204740126Y-118374236D03*
%TD*%
D16*
%TO.C,LB16*%
X165852726Y-128077036D03*
X167427526Y-128077036D03*
%TD*%
D34*
%TO.C,R16*%
X118036718Y-56513044D03*
X118036718Y-59053044D03*
%TD*%
D16*
%TO.C,C111*%
X240655726Y-85278036D03*
X242230526Y-85278036D03*
%TD*%
%TO.C,LB25*%
X231003726Y-128077036D03*
X232578526Y-128077036D03*
%TD*%
D22*
%TO.C,C132*%
X117135526Y-110297036D03*
X115560726Y-110297036D03*
%TD*%
%TO.C,R286*%
X142535526Y-126553036D03*
X140960726Y-126553036D03*
%TD*%
D19*
%TO.C,C49*%
X67735320Y-130054172D03*
X70275320Y-130054172D03*
%TD*%
D16*
%TO.C,R210*%
X148199726Y-121473036D03*
X149774526Y-121473036D03*
%TD*%
D17*
%TO.C,U15*%
X204616428Y-57576542D03*
X204616428Y-60116542D03*
X204616428Y-62656542D03*
%TD*%
D22*
%TO.C,C11*%
X111928526Y-96581036D03*
X110353726Y-96581036D03*
%TD*%
D12*
%TO.C,J5*%
X199100240Y-145500106D03*
X199100240Y-140500106D03*
X204100240Y-145500106D03*
X204100240Y-140500106D03*
X209100240Y-145500106D03*
X209100240Y-140500106D03*
X214100240Y-145500106D03*
X214100240Y-140500106D03*
X219100240Y-145500106D03*
X219100240Y-140500106D03*
X224100240Y-145500106D03*
X224100240Y-140500106D03*
%TD*%
D25*
%TO.C,C31*%
X227092126Y-119466436D03*
X227092126Y-117891636D03*
%TD*%
D21*
%TO.C,R88*%
X181012716Y-83000164D03*
X181012716Y-80460164D03*
%TD*%
D15*
%TO.C,Q70*%
X186452126Y-123886036D03*
X188738126Y-124902036D03*
X188738126Y-122870036D03*
%TD*%
D22*
%TO.C,R64*%
X181270526Y-126553036D03*
X179695726Y-126553036D03*
%TD*%
D41*
%TO.C,U8*%
X179314726Y-93533036D03*
X181626126Y-93533036D03*
X183937526Y-93533036D03*
D42*
X181626126Y-87183036D03*
%TD*%
D16*
%TO.C,LB12*%
X125974726Y-128077036D03*
X127549526Y-128077036D03*
%TD*%
D39*
%TO.C,U18*%
X187971046Y-92898036D03*
X188621286Y-92898036D03*
X189271526Y-92898036D03*
X189921766Y-92898036D03*
X190572006Y-92898036D03*
X191222246Y-92898036D03*
X191872486Y-92898036D03*
X192522726Y-92898036D03*
X193172966Y-92898036D03*
X193823206Y-92898036D03*
X193823206Y-87056036D03*
X193172966Y-87056036D03*
X192522726Y-87056036D03*
X191872486Y-87056036D03*
X191222246Y-87056036D03*
X190572006Y-87056036D03*
X189921766Y-87056036D03*
X189271526Y-87056036D03*
X188621286Y-87056036D03*
X187971046Y-87056036D03*
%TD*%
D43*
%TO.C,D44*%
X226711126Y-93406036D03*
X226711126Y-88834036D03*
%TD*%
D37*
%TO.C,C82*%
X110633126Y-57592036D03*
X108093126Y-57592036D03*
%TD*%
D19*
%TO.C,C62*%
X208550126Y-130109036D03*
X211090126Y-130109036D03*
%TD*%
D26*
%TO.C,U9*%
X225695126Y-112633836D03*
X224425126Y-112633836D03*
X223155126Y-112633836D03*
X221885126Y-112633836D03*
X220615126Y-112633836D03*
X219345126Y-112633836D03*
X218075126Y-112633836D03*
X216805126Y-112633836D03*
X216805126Y-118374236D03*
X218075126Y-118374236D03*
X219345126Y-118374236D03*
X220615126Y-118374236D03*
X221885126Y-118374236D03*
X223155126Y-118374236D03*
X224425126Y-118374236D03*
X225695126Y-118374236D03*
%TD*%
D22*
%TO.C,R109*%
X68700520Y-126499950D03*
X67125720Y-126499950D03*
%TD*%
D21*
%TO.C,R124*%
X85614126Y-127315036D03*
X85614126Y-124775036D03*
%TD*%
D15*
%TO.C,Q25*%
X140351126Y-123886036D03*
X142637126Y-124902036D03*
X142637126Y-122870036D03*
%TD*%
D44*
%TO.C,U6*%
X122375112Y-82750020D03*
X122375112Y-83250020D03*
X122375112Y-83750020D03*
X122375112Y-84250020D03*
X122375112Y-84750020D03*
X122375112Y-85250020D03*
X122375112Y-85750020D03*
X122375112Y-86250020D03*
X122375112Y-86750020D03*
X122375112Y-87250020D03*
X122375112Y-87750020D03*
X122375112Y-88250020D03*
X122375112Y-88750020D03*
X122375112Y-89250020D03*
X122375112Y-89750020D03*
X122375112Y-90250020D03*
X122375112Y-90750020D03*
X122375112Y-91250020D03*
X122375112Y-91750020D03*
X122375112Y-92250020D03*
X122375112Y-92750020D03*
X122375112Y-93250020D03*
X122375112Y-93750020D03*
X122375112Y-94250020D03*
X122375112Y-94750020D03*
X122375112Y-95250020D03*
X122375112Y-95750020D03*
X122375112Y-96250020D03*
X122375112Y-96750020D03*
X122375112Y-97250020D03*
X122375112Y-97750020D03*
X122375112Y-98250020D03*
X122375112Y-98750020D03*
X122375112Y-99250020D03*
X122375112Y-99750020D03*
X122375112Y-100250020D03*
D45*
X124250112Y-102125020D03*
X124750112Y-102125020D03*
X125250112Y-102125020D03*
X125750112Y-102125020D03*
X126250112Y-102125020D03*
X126750112Y-102125020D03*
X127250112Y-102125020D03*
X127750112Y-102125020D03*
X128250112Y-102125020D03*
X128750112Y-102125020D03*
X129250112Y-102125020D03*
X129750112Y-102125020D03*
X130250112Y-102125020D03*
X130750112Y-102125020D03*
X131250112Y-102125020D03*
X131750112Y-102125020D03*
X132250112Y-102125020D03*
X132750112Y-102125020D03*
X133250112Y-102125020D03*
X133750112Y-102125020D03*
X134250112Y-102125020D03*
X134750112Y-102125020D03*
X135250112Y-102125020D03*
X135750112Y-102125020D03*
X136250112Y-102125020D03*
X136750112Y-102125020D03*
X137250112Y-102125020D03*
X137750112Y-102125020D03*
X138250112Y-102125020D03*
X138750112Y-102125020D03*
X139250112Y-102125020D03*
X139750112Y-102125020D03*
X140250112Y-102125020D03*
X140750112Y-102125020D03*
X141250112Y-102125020D03*
X141750112Y-102125020D03*
D44*
X143625112Y-100250020D03*
X143625112Y-99750020D03*
X143625112Y-99250020D03*
X143625112Y-98750020D03*
X143625112Y-98250020D03*
X143625112Y-97750020D03*
X143625112Y-97250020D03*
X143625112Y-96750020D03*
X143625112Y-96250020D03*
X143625112Y-95750020D03*
X143625112Y-95250020D03*
X143625112Y-94750020D03*
X143625112Y-94250020D03*
X143625112Y-93750020D03*
X143625112Y-93250020D03*
X143625112Y-92750020D03*
X143625112Y-92250020D03*
X143625112Y-91750020D03*
X143625112Y-91250020D03*
X143625112Y-90750020D03*
X143625112Y-90250020D03*
X143625112Y-89750020D03*
X143625112Y-89250020D03*
X143625112Y-88750020D03*
X143625112Y-88250020D03*
X143625112Y-87750020D03*
X143625112Y-87250020D03*
X143625112Y-86750020D03*
X143625112Y-86250020D03*
X143625112Y-85750020D03*
X143625112Y-85250020D03*
X143625112Y-84750020D03*
X143625112Y-84250020D03*
X143625112Y-83750020D03*
X143625112Y-83250020D03*
X143625112Y-82750020D03*
D45*
X141750112Y-80875020D03*
X141250112Y-80875020D03*
X140750112Y-80875020D03*
X140250112Y-80875020D03*
X139750112Y-80875020D03*
X139250112Y-80875020D03*
X138750112Y-80875020D03*
X138250112Y-80875020D03*
X137750112Y-80875020D03*
X137250112Y-80875020D03*
X136750112Y-80875020D03*
X136250112Y-80875020D03*
X135750112Y-80875020D03*
X135250112Y-80875020D03*
X134750112Y-80875020D03*
X134250112Y-80875020D03*
X133750112Y-80875020D03*
X133250112Y-80875020D03*
X132750112Y-80875020D03*
X132250112Y-80875020D03*
X131750112Y-80875020D03*
X131250112Y-80875020D03*
X130750112Y-80875020D03*
X130250112Y-80875020D03*
X129750112Y-80875020D03*
X129250112Y-80875020D03*
X128750112Y-80875020D03*
X128250112Y-80875020D03*
X127750112Y-80875020D03*
X127250112Y-80875020D03*
X126750112Y-80875020D03*
X126250112Y-80875020D03*
X125750112Y-80875020D03*
X125250112Y-80875020D03*
X124750112Y-80875020D03*
X124250112Y-80875020D03*
%TD*%
D19*
%TO.C,C64*%
X216551126Y-130109036D03*
X219091126Y-130109036D03*
%TD*%
D34*
%TO.C,R178*%
X139081126Y-60132036D03*
X139081126Y-62672036D03*
%TD*%
D16*
%TO.C,R235*%
X201412726Y-121473036D03*
X202987526Y-121473036D03*
%TD*%
D26*
%TO.C,U26*%
X150053926Y-72578036D03*
X151323926Y-72578036D03*
X152593926Y-72578036D03*
X153863926Y-72578036D03*
X153863926Y-66837636D03*
X152593926Y-66837636D03*
X151323926Y-66837636D03*
X150053926Y-66837636D03*
%TD*%
D19*
%TO.C,C3*%
X166513126Y-130109036D03*
X169053126Y-130109036D03*
%TD*%
D16*
%TO.C,R161*%
X118608726Y-121473036D03*
X120183526Y-121473036D03*
%TD*%
D15*
%TO.C,Q28*%
X147209126Y-123886036D03*
X149495126Y-124902036D03*
X149495126Y-122870036D03*
%TD*%
D26*
%TO.C,U7*%
X185563126Y-112760836D03*
X184293126Y-112760836D03*
X183023126Y-112760836D03*
X181753126Y-112760836D03*
X180483126Y-112760836D03*
X179213126Y-112760836D03*
X177943126Y-112760836D03*
X177943126Y-118501236D03*
X179213126Y-118501236D03*
X180483126Y-118501236D03*
X181753126Y-118501236D03*
X183023126Y-118501236D03*
X184293126Y-118501236D03*
X185563126Y-118501236D03*
%TD*%
D16*
%TO.C,R334*%
X216271726Y-121473036D03*
X217846526Y-121473036D03*
%TD*%
D21*
%TO.C,R225*%
X204867126Y-127315036D03*
X204867126Y-124775036D03*
%TD*%
D20*
%TO.C,J8*%
X98377118Y-47200134D03*
D10*
X98377118Y-45100134D03*
X98377118Y-43100134D03*
X98377118Y-41100134D03*
D20*
X98377118Y-39000134D03*
%TD*%
D46*
%TO.C,D41*%
X223155126Y-57338036D03*
X223155126Y-61910036D03*
%TD*%
D15*
%TO.C,Q58*%
X230267126Y-123886036D03*
X232553126Y-124902036D03*
X232553126Y-122870036D03*
%TD*%
D16*
%TO.C,LB2*%
X172837726Y-128077036D03*
X174412526Y-128077036D03*
%TD*%
D17*
%TO.C,U20*%
X181623078Y-69793942D03*
X181623078Y-72333942D03*
X181623078Y-74873942D03*
%TD*%
%TO.C,U13*%
X170116878Y-69793942D03*
X170116878Y-72333942D03*
X170116878Y-74873942D03*
%TD*%
D16*
%TO.C,C24*%
X76952726Y-110932036D03*
X78527526Y-110932036D03*
%TD*%
D21*
%TO.C,R287*%
X144669126Y-127315036D03*
X144669126Y-124775036D03*
%TD*%
D26*
%TO.C,U38*%
X146193126Y-112887836D03*
X144923126Y-112887836D03*
X143653126Y-112887836D03*
X142383126Y-112887836D03*
X141113126Y-112887836D03*
X139843126Y-112887836D03*
X138573126Y-112887836D03*
X138573126Y-118628236D03*
X139843126Y-118628236D03*
X141113126Y-118628236D03*
X142383126Y-118628236D03*
X143653126Y-118628236D03*
X144923126Y-118628236D03*
X146193126Y-118628236D03*
%TD*%
D19*
%TO.C,C70*%
X239157126Y-130109036D03*
X241697126Y-130109036D03*
%TD*%
D21*
%TO.C,R117*%
X78248126Y-127315036D03*
X78248126Y-124775036D03*
%TD*%
D16*
%TO.C,LB14*%
X140960726Y-128077036D03*
X142535526Y-128077036D03*
%TD*%
D15*
%TO.C,Q31*%
X165243126Y-123886036D03*
X167529126Y-124902036D03*
X167529126Y-122870036D03*
%TD*%
D21*
%TO.C,R90*%
X185508516Y-83000164D03*
X185508516Y-80460164D03*
%TD*%
%TO.C,R83*%
X171995716Y-83000164D03*
X171995716Y-80460164D03*
%TD*%
D16*
%TO.C,R45*%
X84699726Y-64577036D03*
X86274526Y-64577036D03*
%TD*%
D22*
%TO.C,R145*%
X188509526Y-126553036D03*
X186934726Y-126553036D03*
%TD*%
D37*
%TO.C,R6*%
X100002718Y-57579844D03*
X97462718Y-57579844D03*
%TD*%
%TO.C,C116*%
X233013882Y-90301140D03*
X230473882Y-90301140D03*
%TD*%
D34*
%TO.C,R179*%
X142065118Y-56513044D03*
X142065118Y-59053044D03*
%TD*%
D20*
%TO.C,J14*%
X78565118Y-47200134D03*
D10*
X78565118Y-45100134D03*
X78565118Y-43100134D03*
X78565118Y-41100134D03*
D20*
X78565118Y-39000134D03*
%TD*%
D22*
%TO.C,R130*%
X90719526Y-126553036D03*
X89144726Y-126553036D03*
%TD*%
D37*
%TO.C,R138*%
X110633126Y-62926036D03*
X108093126Y-62926036D03*
%TD*%
D19*
%TO.C,C73*%
X194834126Y-130109036D03*
X197374126Y-130109036D03*
%TD*%
D16*
%TO.C,LB9*%
X103876726Y-128077036D03*
X105451526Y-128077036D03*
%TD*%
D19*
%TO.C,C28*%
X180356126Y-130109036D03*
X182896126Y-130109036D03*
%TD*%
D17*
%TO.C,U17*%
X216116278Y-57576542D03*
X216116278Y-60116542D03*
X216116278Y-62656542D03*
%TD*%
D22*
%TO.C,R35*%
X174412526Y-126553036D03*
X172837726Y-126553036D03*
%TD*%
%TO.C,C133*%
X150394794Y-64831036D03*
X148819994Y-64831036D03*
%TD*%
D37*
%TO.C,C52*%
X232963082Y-99318140D03*
X230423082Y-99318140D03*
%TD*%
D19*
%TO.C,R200*%
X240427126Y-87183036D03*
X242967126Y-87183036D03*
%TD*%
D33*
%TO.C,L2*%
X217440126Y-97724036D03*
X222520126Y-97724036D03*
%TD*%
D26*
%TO.C,U42*%
X80788126Y-112760836D03*
X79518126Y-112760836D03*
X78248126Y-112760836D03*
X76978126Y-112760836D03*
X75708126Y-112760836D03*
X74438126Y-112760836D03*
X73168126Y-112760836D03*
X73168126Y-118501236D03*
X74438126Y-118501236D03*
X75708126Y-118501236D03*
X76978126Y-118501236D03*
X78248126Y-118501236D03*
X79518126Y-118501236D03*
X80788126Y-118501236D03*
%TD*%
D16*
%TO.C,R221*%
X72253726Y-91755036D03*
X73828526Y-91755036D03*
%TD*%
D22*
%TO.C,R43*%
X86274526Y-61402036D03*
X84699726Y-61402036D03*
%TD*%
D21*
%TO.C,R313*%
X227346126Y-127315036D03*
X227346126Y-124775036D03*
%TD*%
D47*
%TO.C,D51*%
X76470126Y-89088036D03*
X79010126Y-89088036D03*
%TD*%
D15*
%TO.C,Q19*%
X125492126Y-123886036D03*
X127778126Y-124902036D03*
X127778126Y-122870036D03*
%TD*%
%TO.C,Q15*%
X117999126Y-123886036D03*
X120285126Y-124902036D03*
X120285126Y-122870036D03*
%TD*%
D16*
%TO.C,C113*%
X194935726Y-92898036D03*
X196510526Y-92898036D03*
%TD*%
D25*
%TO.C,R14*%
X117999126Y-64348436D03*
X117999126Y-62773636D03*
%TD*%
D37*
%TO.C,C81*%
X110633126Y-65593036D03*
X108093126Y-65593036D03*
%TD*%
D19*
%TO.C,C54*%
X75200126Y-130109036D03*
X77740126Y-130109036D03*
%TD*%
D17*
%TO.C,U16*%
X216116278Y-69793942D03*
X216116278Y-72333942D03*
X216116278Y-74873942D03*
%TD*%
%TO.C,U21*%
X181616220Y-57576542D03*
X181616220Y-60116542D03*
X181616220Y-62656542D03*
%TD*%
D22*
%TO.C,R97*%
X236845726Y-98740036D03*
X235270926Y-98740036D03*
%TD*%
D15*
%TO.C,Q52*%
X215281126Y-123886036D03*
X217567126Y-124902036D03*
X217567126Y-122870036D03*
%TD*%
D14*
%TO.C,R8*%
X188346204Y-56077942D03*
X188346204Y-61716742D03*
%TD*%
D16*
%TO.C,R333*%
X208270726Y-121473036D03*
X209845526Y-121473036D03*
%TD*%
D26*
%TO.C,U35*%
X169307126Y-112760836D03*
X168037126Y-112760836D03*
X166767126Y-112760836D03*
X165497126Y-112760836D03*
X164227126Y-112760836D03*
X162957126Y-112760836D03*
X161687126Y-112760836D03*
X160417126Y-112760836D03*
X160417126Y-118501236D03*
X161687126Y-118501236D03*
X162957126Y-118501236D03*
X164227126Y-118501236D03*
X165497126Y-118501236D03*
X166767126Y-118501236D03*
X168037126Y-118501236D03*
X169307126Y-118501236D03*
%TD*%
D22*
%TO.C,R305*%
X217465526Y-126553036D03*
X215890726Y-126553036D03*
%TD*%
D36*
%TO.C,C50*%
X213360126Y-97724036D03*
X211360126Y-97724036D03*
%TD*%
D31*
%TO.C,D3*%
X121936126Y-60527036D03*
X121936126Y-55927036D03*
%TD*%
D15*
%TO.C,Q40*%
X81169126Y-123886036D03*
X83455126Y-124902036D03*
X83455126Y-122870036D03*
%TD*%
D12*
%TO.C,J31*%
X146141126Y-39499930D03*
X146141126Y-44499930D03*
X141141126Y-39499930D03*
X141141126Y-44499930D03*
X136141126Y-39499930D03*
X136141126Y-44499930D03*
X131141126Y-39499930D03*
X131141126Y-44499930D03*
X126141126Y-39499930D03*
X126141126Y-44499930D03*
X121141126Y-39499930D03*
X121141126Y-44499930D03*
%TD*%
D26*
%TO.C,U28*%
X105045126Y-112760836D03*
X103775126Y-112760836D03*
X102505126Y-112760836D03*
X101235126Y-112760836D03*
X99965126Y-112760836D03*
X98695126Y-112760836D03*
X97425126Y-112760836D03*
X96155126Y-112760836D03*
X96155126Y-118501236D03*
X97425126Y-118501236D03*
X98695126Y-118501236D03*
X99965126Y-118501236D03*
X101235126Y-118501236D03*
X102505126Y-118501236D03*
X103775126Y-118501236D03*
X105045126Y-118501236D03*
%TD*%
D47*
%TO.C,D48*%
X76470126Y-91628036D03*
X79010126Y-91628036D03*
%TD*%
D12*
%TO.C,J12*%
X167600176Y-145500106D03*
X167600176Y-140500106D03*
X172600176Y-145500106D03*
X172600176Y-140500106D03*
X177600176Y-145500106D03*
X177600176Y-140500106D03*
X182600176Y-145500106D03*
X182600176Y-140500106D03*
X187600176Y-145500106D03*
X187600176Y-140500106D03*
X192600176Y-145500106D03*
X192600176Y-140500106D03*
%TD*%
D21*
%TO.C,R110*%
X70884920Y-127363550D03*
X70884920Y-124823550D03*
%TD*%
D19*
%TO.C,C159*%
X141494126Y-130109036D03*
X144034126Y-130109036D03*
%TD*%
D16*
%TO.C,R234*%
X90287726Y-121473036D03*
X91862526Y-121473036D03*
%TD*%
D19*
%TO.C,C1*%
X148225126Y-130109036D03*
X150765126Y-130109036D03*
%TD*%
D25*
%TO.C,R174*%
X145431126Y-69428436D03*
X145431126Y-67853636D03*
%TD*%
D15*
%TO.C,Q9*%
X103394126Y-123886036D03*
X105680126Y-124902036D03*
X105680126Y-122870036D03*
%TD*%
D16*
%TO.C,LB19*%
X81905726Y-128077036D03*
X83480526Y-128077036D03*
%TD*%
%TO.C,R211*%
X166106726Y-121473036D03*
X167681526Y-121473036D03*
%TD*%
D31*
%TO.C,D43*%
X206772126Y-92150036D03*
X206772126Y-87550036D03*
%TD*%
D19*
%TO.C,R96*%
X240427126Y-99883036D03*
X242967126Y-99883036D03*
%TD*%
D16*
%TO.C,R339*%
X180330726Y-121473036D03*
X181905526Y-121473036D03*
%TD*%
D19*
%TO.C,C153*%
X119269126Y-130109036D03*
X121809126Y-130109036D03*
%TD*%
D36*
%TO.C,C147*%
X244602126Y-118679036D03*
X242602126Y-118679036D03*
%TD*%
D34*
%TO.C,R186*%
X149607394Y-60132036D03*
X149607394Y-62672036D03*
%TD*%
D21*
%TO.C,R81*%
X212508716Y-83000164D03*
X212508716Y-80460164D03*
%TD*%
D16*
%TO.C,R230*%
X72253726Y-90104036D03*
X73828526Y-90104036D03*
%TD*%
D21*
%TO.C,R280*%
X137303126Y-127315036D03*
X137303126Y-124775036D03*
%TD*%
D14*
%TO.C,R82*%
X211346412Y-56071592D03*
X211346412Y-61710392D03*
%TD*%
D26*
%TO.C,U25*%
X140224126Y-72578036D03*
X141494126Y-72578036D03*
X142764126Y-72578036D03*
X144034126Y-72578036D03*
X144034126Y-66837636D03*
X142764126Y-66837636D03*
X141494126Y-66837636D03*
X140224126Y-66837636D03*
%TD*%
D22*
%TO.C,R279*%
X135042526Y-126553036D03*
X133467726Y-126553036D03*
%TD*%
%TO.C,R27*%
X110277526Y-95057036D03*
X108702726Y-95057036D03*
%TD*%
D27*
%TO.C,C130*%
X206645126Y-98460636D03*
X206645126Y-100035436D03*
%TD*%
D22*
%TO.C,R116*%
X76114526Y-126553036D03*
X74539726Y-126553036D03*
%TD*%
D15*
%TO.C,Q73*%
X193691126Y-123886036D03*
X195977126Y-124902036D03*
X195977126Y-122870036D03*
%TD*%
D21*
%TO.C,R79*%
X208012916Y-83000164D03*
X208012916Y-80460164D03*
%TD*%
D22*
%TO.C,R202*%
X236845726Y-91372258D03*
X235270926Y-91372258D03*
%TD*%
D21*
%TO.C,R75*%
X198995916Y-83000164D03*
X198995916Y-80460164D03*
%TD*%
D22*
%TO.C,C2*%
X181778526Y-110932036D03*
X180203726Y-110932036D03*
%TD*%
D16*
%TO.C,LB5*%
X186934726Y-128077036D03*
X188509526Y-128077036D03*
%TD*%
D25*
%TO.C,R11*%
X126000126Y-69428436D03*
X126000126Y-67853636D03*
%TD*%
D12*
%TO.C,J33*%
X114137126Y-39499930D03*
X114137126Y-44499930D03*
X109137126Y-39499930D03*
X109137126Y-44499930D03*
X104137126Y-39499930D03*
X104137126Y-44499930D03*
%TD*%
D21*
%TO.C,R2*%
X151400126Y-127315036D03*
X151400126Y-124775036D03*
%TD*%
D22*
%TO.C,C47*%
X73955526Y-75499036D03*
X72380726Y-75499036D03*
%TD*%
D23*
%TO.C,R94*%
X240427126Y-94930036D03*
X242459126Y-94930036D03*
%TD*%
D16*
%TO.C,R74*%
X194935726Y-87056036D03*
X196510526Y-87056036D03*
%TD*%
D25*
%TO.C,C25*%
X103140126Y-122006436D03*
X103140126Y-120431636D03*
%TD*%
D17*
%TO.C,U22*%
X193103878Y-69793942D03*
X193103878Y-72333942D03*
X193103878Y-74873942D03*
%TD*%
D31*
%TO.C,D38*%
X145746086Y-60615682D03*
X145746086Y-56015682D03*
%TD*%
D21*
%TO.C,R86*%
X176516916Y-83000164D03*
X176516916Y-80460164D03*
%TD*%
D34*
%TO.C,R327*%
X242332126Y-125029036D03*
X242332126Y-127569036D03*
%TD*%
D16*
%TO.C,LB21*%
X201158726Y-128077036D03*
X202733526Y-128077036D03*
%TD*%
D22*
%TO.C,R137*%
X202733526Y-126553036D03*
X201158726Y-126553036D03*
%TD*%
D27*
%TO.C,R98*%
X236871126Y-100492636D03*
X236871126Y-102067436D03*
%TD*%
D22*
%TO.C,C20*%
X137074526Y-113853036D03*
X135499726Y-113853036D03*
%TD*%
D15*
%TO.C,Q67*%
X179086126Y-123886036D03*
X181372126Y-124902036D03*
X181372126Y-122870036D03*
%TD*%
D22*
%TO.C,R42*%
X86274526Y-62926036D03*
X84699726Y-62926036D03*
%TD*%
D28*
%TO.C,U23*%
X111022126Y-69769036D03*
X111022126Y-70419036D03*
X111022126Y-71069036D03*
D29*
X113472126Y-71069036D03*
X113472126Y-69769036D03*
%TD*%
D36*
%TO.C,C112*%
X213757126Y-89088036D03*
X211257126Y-89088036D03*
%TD*%
D19*
%TO.C,R4*%
X102771318Y-57579844D03*
X105311318Y-57579844D03*
%TD*%
D20*
%TO.C,J15*%
X73612118Y-47200134D03*
D10*
X73612118Y-45100134D03*
X73612118Y-43100134D03*
X73612118Y-41100134D03*
D20*
X73612118Y-39000134D03*
%TD*%
D48*
%TO.C,D30*%
X108601126Y-70165036D03*
X109617126Y-67879036D03*
X107585126Y-67879036D03*
%TD*%
D12*
%TO.C,J51*%
X136100112Y-145500106D03*
X136100112Y-140500106D03*
X141100112Y-145500106D03*
X141100112Y-140500106D03*
X146100112Y-145500106D03*
X146100112Y-140500106D03*
X151100112Y-145500106D03*
X151100112Y-140500106D03*
X156100112Y-145500106D03*
X156100112Y-140500106D03*
X161100112Y-145500106D03*
X161100112Y-140500106D03*
%TD*%
D22*
%TO.C,R265*%
X120310526Y-126553036D03*
X118735726Y-126553036D03*
%TD*%
%TO.C,R272*%
X127549526Y-126553036D03*
X125974726Y-126553036D03*
%TD*%
D23*
%TO.C,Q5*%
X149607394Y-55687036D03*
X148591394Y-57973036D03*
X150623394Y-57973036D03*
%TD*%
D22*
%TO.C,R326*%
X240071526Y-126553036D03*
X238496726Y-126553036D03*
%TD*%
D16*
%TO.C,R163*%
X133848726Y-121473036D03*
X135423526Y-121473036D03*
%TD*%
D19*
%TO.C,C5*%
X102771318Y-54912844D03*
X105311318Y-54912844D03*
%TD*%
D30*
%TO.C,U33*%
X230952926Y-93380636D03*
X230952926Y-94650636D03*
X230952926Y-95920636D03*
X230952926Y-97190636D03*
X236693326Y-97190636D03*
X236693326Y-95920636D03*
X236693326Y-94650636D03*
X236693326Y-93380636D03*
%TD*%
D21*
%TO.C,R266*%
X122444126Y-127315036D03*
X122444126Y-124775036D03*
%TD*%
D15*
%TO.C,Q64*%
X172101126Y-123886036D03*
X174387126Y-124902036D03*
X174387126Y-122870036D03*
%TD*%
D22*
%TO.C,R152*%
X195748526Y-126553036D03*
X194173726Y-126553036D03*
%TD*%
D21*
%TO.C,R36*%
X176546126Y-127315036D03*
X176546126Y-124775036D03*
%TD*%
D15*
%TO.C,Q12*%
X110633126Y-123886036D03*
X112919126Y-124902036D03*
X112919126Y-122870036D03*
%TD*%
D43*
%TO.C,D20*%
X226711126Y-102169036D03*
X226711126Y-97597036D03*
%TD*%
D14*
%TO.C,R84*%
X165341678Y-68295342D03*
X165341678Y-73934142D03*
%TD*%
D18*
%TO.C,R301*%
X243792626Y-102677036D03*
X240363626Y-102677036D03*
%TD*%
D17*
%TO.C,U3*%
X193116324Y-57576542D03*
X193116324Y-60116542D03*
X193116324Y-62656542D03*
%TD*%
D15*
%TO.C,Q46*%
X200549126Y-123886036D03*
X202835126Y-124902036D03*
X202835126Y-122870036D03*
%TD*%
D38*
%TO.C,D6*%
X176292126Y-87677036D03*
X176292126Y-92277036D03*
%TD*%
D12*
%TO.C,J48*%
X104600048Y-145500106D03*
X104600048Y-140500106D03*
X109600048Y-145500106D03*
X109600048Y-140500106D03*
X114600048Y-145500106D03*
X114600048Y-140500106D03*
X119600048Y-145500106D03*
X119600048Y-140500106D03*
X124600048Y-145500106D03*
X124600048Y-140500106D03*
X129600048Y-145500106D03*
X129600048Y-140500106D03*
%TD*%
D23*
%TO.C,Q4*%
X139081126Y-55687036D03*
X138065126Y-57973036D03*
X140097126Y-57973036D03*
%TD*%
D22*
%TO.C,R34*%
X74336526Y-65593036D03*
X72761726Y-65593036D03*
%TD*%
D15*
%TO.C,Q43*%
X88662126Y-123886036D03*
X90948126Y-124902036D03*
X90948126Y-122870036D03*
%TD*%
D22*
%TO.C,R44*%
X86274526Y-59878036D03*
X84699726Y-59878036D03*
%TD*%
M02*
