%TF.GenerationSoftware,KiCad,Pcbnew,10.0.4*%
%TF.CreationDate,2026-08-13T10:11:42+08:00*%
%TF.ProjectId,IOB_v3.2.1,494f425f-7633-42e3-922e-312e6b696361,3.2.1*%
%TF.SameCoordinates,Original*%
%TF.FileFunction,Plated,1,2,PTH,Mixed*%
%TF.FilePolarity,Positive*%
%FSLAX46Y46*%
G04 Gerber Fmt 4.6, Leading zero omitted, Abs format (unit mm)*
G04 Created by KiCad (PCBNEW 10.0.4) date 2026-08-13 10:11:42*
%MOMM*%
%LPD*%
G01*
G04 APERTURE LIST*
%TA.AperFunction,ViaDrill*%
%ADD10C,0.508000*%
%TD*%
%TA.AperFunction,ComponentDrill*%
%ADD11C,0.635000*%
%TD*%
G04 aperture for slot hole*
%TA.AperFunction,ComponentDrill*%
%ADD12C,0.800000*%
%TD*%
%TA.AperFunction,ComponentDrill*%
%ADD13C,0.889000*%
%TD*%
%TA.AperFunction,ComponentDrill*%
%ADD14C,1.200000*%
%TD*%
%TA.AperFunction,ComponentDrill*%
%ADD15C,1.270000*%
%TD*%
%TA.AperFunction,ComponentDrill*%
%ADD16C,1.400000*%
%TD*%
%TA.AperFunction,ComponentDrill*%
%ADD17C,2.032000*%
%TD*%
G04 APERTURE END LIST*
D10*
X64024126Y-104328036D03*
X64405126Y-119568036D03*
X64500122Y-57999960D03*
X64500122Y-59999956D03*
X64500122Y-61999952D03*
X64500122Y-63999948D03*
X64500122Y-65999944D03*
X64500122Y-67999940D03*
X64500122Y-69999936D03*
X64500122Y-71999932D03*
X64500122Y-73999928D03*
X64500122Y-75999924D03*
X64500122Y-77999920D03*
X64500122Y-80000170D03*
X64500122Y-82000166D03*
X64500122Y-84000162D03*
X64500122Y-86000158D03*
X64500122Y-88000154D03*
X64500122Y-90000150D03*
X64500122Y-126000078D03*
X64500122Y-128000074D03*
X64500122Y-130000070D03*
X65999992Y-131499940D03*
X66081526Y-122641436D03*
X66310126Y-119060036D03*
X67072126Y-125664036D03*
X67453126Y-90104036D03*
X67500116Y-71999932D03*
X68215126Y-104328036D03*
X68215126Y-106360036D03*
X68215126Y-110551036D03*
X68500114Y-115000100D03*
X69000240Y-131499940D03*
X69500112Y-71999932D03*
X70500110Y-68999938D03*
X70500110Y-70999934D03*
X70500110Y-72999930D03*
X70882126Y-120203036D03*
X70882126Y-123124036D03*
X70882126Y-128712036D03*
X71000236Y-131499940D03*
X71263126Y-88326036D03*
X71644126Y-130109036D03*
X71707118Y-65530044D03*
X71771126Y-117155036D03*
X71771126Y-118552036D03*
X72279126Y-86548036D03*
X72279126Y-88326036D03*
X72279126Y-121346036D03*
X72500106Y-68999938D03*
X72500106Y-70999934D03*
X72500106Y-72999930D03*
X72660126Y-109916036D03*
X72787126Y-59497036D03*
X73000232Y-131499940D03*
X73422126Y-126553036D03*
X73803126Y-121473036D03*
X73866118Y-83056044D03*
X73930126Y-73975036D03*
X74438126Y-117028036D03*
X74500102Y-68999938D03*
X74500102Y-70999934D03*
X74500102Y-72999930D03*
X74500102Y-106000118D03*
X74755118Y-135761044D03*
X75327126Y-76642036D03*
X75327126Y-80579036D03*
X75500100Y-139000052D03*
X75500100Y-141000048D03*
X75500100Y-143000044D03*
X76089126Y-109916036D03*
X76089126Y-116901036D03*
X76500098Y-99000132D03*
X76500098Y-106000118D03*
X77000224Y-131499940D03*
X78375126Y-122870036D03*
X78375126Y-128712036D03*
X78500094Y-99000132D03*
X79000220Y-131499940D03*
X79327118Y-83056044D03*
X79500092Y-69999936D03*
X79500092Y-71999932D03*
X79500092Y-74999926D03*
X79500092Y-76999922D03*
X79500092Y-106000118D03*
X79645126Y-116901036D03*
X79772126Y-110043036D03*
X79772126Y-130109036D03*
X80500090Y-99000132D03*
X80500090Y-140000050D03*
X80500090Y-142000046D03*
X80788126Y-117155036D03*
X80915126Y-89088036D03*
X80915126Y-126680036D03*
X81000216Y-131499940D03*
X81169126Y-103820036D03*
X81500088Y-69999936D03*
X81500088Y-71999932D03*
X81500088Y-74999926D03*
X81500088Y-76999922D03*
X82566126Y-103439036D03*
X82693126Y-79309036D03*
X82947126Y-117155036D03*
X83137118Y-135634044D03*
X83201126Y-102296036D03*
X83328126Y-78293036D03*
X83500084Y-69999936D03*
X83500084Y-71999932D03*
X83500084Y-74999926D03*
X83500084Y-76999922D03*
X83709126Y-111821036D03*
X83836126Y-114234036D03*
X84000210Y-131499940D03*
X84026118Y-89025044D03*
X84471126Y-81087036D03*
X84471126Y-101661036D03*
X85487126Y-122997036D03*
X85487126Y-128585036D03*
X85500080Y-69999936D03*
X85500080Y-71999932D03*
X85500080Y-74999926D03*
X85500080Y-76999922D03*
X85500080Y-139000052D03*
X85500080Y-141000048D03*
X85500080Y-143000044D03*
X85741126Y-97724036D03*
X85868126Y-96073036D03*
X85868126Y-101534036D03*
X85868126Y-118933036D03*
X86000206Y-131499940D03*
X86757126Y-95311036D03*
X86757126Y-101026036D03*
X86884126Y-96835036D03*
X87392126Y-62926036D03*
X87519126Y-61402036D03*
X87519126Y-82357036D03*
X87519126Y-111821036D03*
X87759918Y-64564844D03*
X88000202Y-131499940D03*
X88154126Y-126553036D03*
X88281126Y-119060036D03*
X88408126Y-114234036D03*
X88471118Y-135126044D03*
X88535126Y-110043036D03*
X89170126Y-121600036D03*
X89805126Y-61402036D03*
X90500070Y-137000056D03*
X90500070Y-139000052D03*
X90500070Y-141000048D03*
X90500070Y-143000044D03*
X90567126Y-62926036D03*
X91837126Y-64564844D03*
X91964126Y-120457036D03*
X92000194Y-131499940D03*
X92980126Y-122616036D03*
X92980126Y-128839036D03*
X93361126Y-92644036D03*
X94000190Y-131499940D03*
X94123126Y-67498036D03*
X94123126Y-69784036D03*
X94250126Y-57846036D03*
X94250126Y-59624036D03*
X94250126Y-61402036D03*
X94250126Y-93533036D03*
X94631126Y-129474036D03*
X94935926Y-127594436D03*
X95012126Y-94422036D03*
X95062926Y-123682836D03*
X95062926Y-125740236D03*
X95393126Y-71308036D03*
X95500060Y-140000050D03*
X95500060Y-142000046D03*
X95989518Y-125198200D03*
X96000186Y-131499940D03*
X96028126Y-111313036D03*
X96028126Y-114488036D03*
X96243518Y-54912844D03*
X96663126Y-110043036D03*
X96682938Y-127697814D03*
X96755328Y-122789772D03*
X97221926Y-129296236D03*
X97425126Y-111313036D03*
X98000182Y-131499940D03*
X98372546Y-120906616D03*
X98695126Y-114488036D03*
X99304726Y-129270836D03*
X99965126Y-111313036D03*
X99965126Y-117028036D03*
X100000178Y-131499940D03*
X100330378Y-122027772D03*
X101108126Y-92644036D03*
X101235126Y-111313036D03*
X101235126Y-116901036D03*
X101285926Y-129347036D03*
X101362126Y-102677036D03*
X101425118Y-54912844D03*
X101500048Y-99000132D03*
X101500048Y-137000056D03*
X101500048Y-139000052D03*
X101500048Y-141000048D03*
X101500048Y-143000044D03*
X101616126Y-94422036D03*
X101971472Y-127946988D03*
X102000174Y-131499940D03*
X102124126Y-121092036D03*
X102505126Y-93660036D03*
X102505126Y-116901036D03*
X102568118Y-71372044D03*
X102759126Y-126553036D03*
X103775126Y-111313036D03*
X103775126Y-116901036D03*
X103965118Y-64387044D03*
X104029126Y-102804036D03*
X105045126Y-111313036D03*
X105172126Y-115377036D03*
X105311318Y-56030444D03*
X106000166Y-131499940D03*
X106061126Y-110043036D03*
X106569126Y-102804036D03*
X106696126Y-71181036D03*
X106696126Y-75118036D03*
X106886118Y-65606244D03*
X107077126Y-94295036D03*
X107458126Y-122489036D03*
X107458126Y-128712036D03*
X107500036Y-137000056D03*
X107500036Y-139000052D03*
X107500036Y-141000048D03*
X107500036Y-143000044D03*
X108000162Y-131499940D03*
X108105318Y-56157444D03*
X108601126Y-130109036D03*
X109121318Y-46505444D03*
X109363126Y-71562036D03*
X109490126Y-100772036D03*
X109490126Y-102677036D03*
X109500032Y-99000132D03*
X109617126Y-118679036D03*
X109617126Y-121600036D03*
X109998126Y-110043036D03*
X109998126Y-117536036D03*
X110000158Y-131499940D03*
X110125126Y-122743036D03*
X110125126Y-126299036D03*
X110315118Y-134999044D03*
X110379126Y-113726036D03*
X110633126Y-67879036D03*
X110633126Y-115377036D03*
X111500028Y-140000050D03*
X111500028Y-142000046D03*
X111991518Y-54912844D03*
X112538126Y-102677036D03*
X113000152Y-131499940D03*
X113427126Y-95311036D03*
X114189126Y-96073036D03*
X114189126Y-110043036D03*
X114316126Y-114615036D03*
X114316126Y-121600036D03*
X114429918Y-65174444D03*
X114570126Y-71435036D03*
X114570126Y-74864036D03*
X115000148Y-131499940D03*
X115078126Y-96835036D03*
X115078126Y-128585036D03*
X115332126Y-122362036D03*
X115967126Y-130109036D03*
X116221126Y-97470036D03*
X116221126Y-117028036D03*
X116729126Y-120584036D03*
X117000144Y-131499940D03*
X117110126Y-73213036D03*
X117110126Y-109027036D03*
X117364126Y-105217036D03*
X117491126Y-90485036D03*
X117500016Y-137000056D03*
X117500016Y-139000052D03*
X117500016Y-141000048D03*
X117500016Y-143000044D03*
X117554118Y-42924044D03*
X117745126Y-114615036D03*
X117745126Y-122616036D03*
X117745126Y-126553036D03*
X118500014Y-100000130D03*
X118634126Y-109154036D03*
X118761126Y-104455036D03*
X118761126Y-105979036D03*
X119332118Y-66088844D03*
X119396126Y-98359036D03*
X119636918Y-55344644D03*
X119636918Y-57554444D03*
X119904126Y-71943036D03*
X120031126Y-106868036D03*
X120539126Y-109154036D03*
X121000136Y-131499940D03*
X121047126Y-59116036D03*
X121135518Y-54049244D03*
X121174126Y-78039036D03*
X121174126Y-106868036D03*
X121301126Y-114107036D03*
X121936126Y-58989036D03*
X122317126Y-118298036D03*
X122444126Y-78039036D03*
X122444126Y-123124036D03*
X122444126Y-128458036D03*
X122500006Y-137000056D03*
X122500006Y-139000052D03*
X122500006Y-141000048D03*
X122500006Y-143000044D03*
X122571126Y-64450036D03*
X122698126Y-117409036D03*
X122825126Y-80452036D03*
X122952126Y-58989036D03*
X123000132Y-131499940D03*
X123206126Y-81468036D03*
X123333126Y-130109036D03*
X123714126Y-94803036D03*
X123968126Y-78420036D03*
X123968126Y-84643036D03*
X124095126Y-90739036D03*
X124095126Y-98740036D03*
X124222126Y-100010036D03*
X124285118Y-53414244D03*
X124666118Y-136523044D03*
X124730126Y-113853036D03*
X124857126Y-106741036D03*
X124857126Y-126680036D03*
X124984126Y-78166036D03*
X125000128Y-131499940D03*
X125111126Y-77150036D03*
X125238126Y-115504036D03*
X125619126Y-70927036D03*
X125619126Y-109154036D03*
X126254126Y-94803036D03*
X126254126Y-110678036D03*
X126499998Y-141000048D03*
X126499998Y-143000044D03*
X126762126Y-100137036D03*
X127016126Y-103693036D03*
X127143126Y-66101036D03*
X127143126Y-70800036D03*
X127524126Y-82357036D03*
X127524126Y-96454036D03*
X127778126Y-104328036D03*
X127905126Y-84135036D03*
X128000122Y-131499940D03*
X128032126Y-86675036D03*
X128032126Y-89723036D03*
X128032126Y-117663036D03*
X128069718Y-63879044D03*
X128159126Y-73848036D03*
X128667126Y-72197036D03*
X128730118Y-136015044D03*
X129499992Y-87000156D03*
X129499992Y-89000152D03*
X129499992Y-91000148D03*
X129499992Y-93000144D03*
X129683126Y-95565036D03*
X129810126Y-100264036D03*
X129810126Y-122870036D03*
X129810126Y-128712036D03*
X130000118Y-131499940D03*
X130191126Y-82357036D03*
X130699126Y-78928036D03*
X130826126Y-100264036D03*
X130826126Y-130109036D03*
X131207126Y-110678036D03*
X131461126Y-104328036D03*
X131500242Y-87000156D03*
X131500242Y-89000152D03*
X131500242Y-91000148D03*
X131500242Y-93000144D03*
X131549518Y-55370044D03*
X131549518Y-57605244D03*
X131715126Y-95946036D03*
X131715126Y-99756036D03*
X131842126Y-84897036D03*
X132000114Y-131499940D03*
X132477126Y-122743036D03*
X132477126Y-126680036D03*
X132500240Y-136000058D03*
X132500240Y-138000054D03*
X132500240Y-140000050D03*
X132500240Y-143000044D03*
X132731126Y-121600036D03*
X133366126Y-113853036D03*
X133454518Y-54506444D03*
X133500238Y-87000156D03*
X133500238Y-89000152D03*
X133500238Y-91000148D03*
X133500238Y-93000144D03*
X133620126Y-115504036D03*
X133747126Y-110424036D03*
X134128126Y-99883036D03*
X134255126Y-68641036D03*
X134509126Y-70927036D03*
X134749918Y-64564844D03*
X134890126Y-118044036D03*
X135000108Y-131499940D03*
X135271126Y-82611036D03*
X135435718Y-60577044D03*
X135500234Y-87000156D03*
X135500234Y-89000152D03*
X135500234Y-91000148D03*
X135500234Y-93000144D03*
X136033126Y-71943036D03*
X136414126Y-117282036D03*
X136477118Y-54760444D03*
X136668126Y-95946036D03*
X136795126Y-85151036D03*
X136795126Y-100137036D03*
X136922126Y-82357036D03*
X137000104Y-131499940D03*
X137049126Y-122870036D03*
X137049126Y-128585036D03*
X137500230Y-87000156D03*
X137500230Y-89000152D03*
X137500230Y-91000148D03*
X137500230Y-93000144D03*
X137557126Y-110678036D03*
X137557126Y-117409036D03*
X137557126Y-118806036D03*
X138192126Y-79309036D03*
X138446126Y-130109036D03*
X138500228Y-136000058D03*
X138500228Y-138000054D03*
X138500228Y-140000050D03*
X138500228Y-142000046D03*
X138573126Y-90358036D03*
X138700126Y-66104592D03*
X138700126Y-71816036D03*
X138700126Y-82357036D03*
X138954126Y-100010036D03*
X138954126Y-121473036D03*
X139000100Y-131499940D03*
X139081126Y-97216036D03*
X139208126Y-95819036D03*
X139462126Y-85151036D03*
X139843126Y-117155036D03*
X139970126Y-122489036D03*
X139970126Y-126553036D03*
X140249526Y-63989788D03*
X141113126Y-110678036D03*
X141367126Y-99883036D03*
X141557118Y-136904044D03*
X141875126Y-79182036D03*
X141875126Y-88707036D03*
X141875126Y-94549036D03*
X142383126Y-82230036D03*
X142383126Y-117282036D03*
X143000092Y-131499940D03*
X143018126Y-79436036D03*
X143399126Y-80452036D03*
X143500218Y-139000052D03*
X143500218Y-141000048D03*
X143500218Y-142000046D03*
X143653126Y-101026036D03*
X143725262Y-54662400D03*
X143725262Y-57022060D03*
X144161126Y-70927036D03*
X144161126Y-114361036D03*
X144161126Y-121346036D03*
X144500216Y-131499940D03*
X144669126Y-122997036D03*
X144669126Y-128585036D03*
X144796126Y-110678036D03*
X144923126Y-72578036D03*
X144923126Y-101280036D03*
X145558126Y-120076036D03*
X145742276Y-54102584D03*
X145746086Y-59188934D03*
X145939126Y-101280036D03*
X145939126Y-130109036D03*
X146066126Y-82738036D03*
X146193126Y-117155036D03*
X146225638Y-64702512D03*
X146320126Y-122235036D03*
X146500212Y-131499940D03*
X146574126Y-126553036D03*
X146955126Y-101280036D03*
X147068918Y-50417044D03*
X147209126Y-120584036D03*
X147590126Y-114361036D03*
X147844126Y-79182036D03*
X148059010Y-63070308D03*
X148098126Y-72578036D03*
X148161118Y-103122044D03*
X148225126Y-95438036D03*
X148288118Y-99566044D03*
X148352126Y-113091036D03*
X148500208Y-137000056D03*
X148500208Y-139000052D03*
X148500208Y-141000048D03*
X148500208Y-143000044D03*
X148733126Y-80071036D03*
X148795864Y-66104592D03*
X149507826Y-116757018D03*
X149622126Y-79309036D03*
X150000078Y-131499940D03*
X150511126Y-79944036D03*
X151400126Y-79182036D03*
X151400126Y-121981036D03*
X151400126Y-128712036D03*
X151469468Y-68214570D03*
X151526618Y-64831544D03*
X151527126Y-113599036D03*
X151654126Y-120838036D03*
X151834974Y-118623664D03*
X152000074Y-131499940D03*
X152025982Y-130109036D03*
X152111326Y-80071036D03*
X152464894Y-122927948D03*
X152670126Y-109916036D03*
X152924126Y-79309036D03*
X152924126Y-90231036D03*
X153178126Y-124775036D03*
X153178380Y-131768418D03*
X153305126Y-126172036D03*
X153500198Y-136000058D03*
X153500198Y-138000054D03*
X153500198Y-140000050D03*
X153500198Y-142000046D03*
X153813126Y-70927036D03*
X153940126Y-110170036D03*
X154067126Y-75118036D03*
X154067126Y-79944036D03*
X154348304Y-54122396D03*
X154348304Y-57067780D03*
X155083126Y-90485036D03*
X155083126Y-98867036D03*
X155083126Y-109535036D03*
X155143070Y-125228426D03*
X155500194Y-71999932D03*
X155560392Y-123656928D03*
X155908118Y-100201044D03*
X156353126Y-109408036D03*
X156644718Y-59002244D03*
X156988380Y-64793190D03*
X157115126Y-113599036D03*
X157144082Y-72451290D03*
X157496126Y-109027036D03*
X157686118Y-102868044D03*
X158346518Y-60526244D03*
X158385126Y-112837036D03*
X158500188Y-131000068D03*
X158500188Y-136000058D03*
X158500188Y-138000054D03*
X158500188Y-140000050D03*
X158500188Y-142000046D03*
X158829118Y-51331444D03*
X158829118Y-54049244D03*
X158879918Y-63828244D03*
X159020126Y-109281036D03*
X159373948Y-129832430D03*
X159655126Y-113345036D03*
X160500184Y-129000072D03*
X160500184Y-131000068D03*
X162500180Y-129000072D03*
X162500180Y-131000068D03*
X163084126Y-121600036D03*
X163092254Y-127242900D03*
X163147118Y-135380044D03*
X163592126Y-90535836D03*
X163592126Y-96758836D03*
X163907848Y-78544242D03*
X164227126Y-111440036D03*
X164227126Y-116393036D03*
X164227126Y-128966036D03*
X164354126Y-89723036D03*
X164354126Y-98105036D03*
X164354126Y-106233036D03*
X164500176Y-140000050D03*
X164500176Y-142000046D03*
X164506780Y-131551502D03*
X164544118Y-45464044D03*
X164608126Y-126426036D03*
X164735126Y-121473036D03*
X164798118Y-50417044D03*
X165116126Y-90485036D03*
X165116126Y-96708036D03*
X165497126Y-111440036D03*
X165497126Y-116520036D03*
X165500174Y-63999948D03*
X165878126Y-89723036D03*
X165878126Y-97597036D03*
X166500172Y-40999994D03*
X166640126Y-90485036D03*
X166640126Y-96581036D03*
X166767126Y-116520036D03*
X167402126Y-89596036D03*
X167402126Y-97343036D03*
X167500170Y-65999944D03*
X167500170Y-72999930D03*
X167500170Y-74999926D03*
X167500170Y-76999922D03*
X168037126Y-111440036D03*
X168037126Y-116393036D03*
X168354118Y-47369044D03*
X168418126Y-90358036D03*
X168418126Y-96708036D03*
X168481118Y-135380044D03*
X168862118Y-53338044D03*
X169000040Y-131499940D03*
X169307126Y-111440036D03*
X169500166Y-67999940D03*
X169561126Y-122743036D03*
X169561126Y-128712036D03*
X169827318Y-81659044D03*
X170196126Y-121473036D03*
X170500164Y-40999994D03*
X170500164Y-42999990D03*
X170500164Y-44999986D03*
X170500164Y-54999966D03*
X170500164Y-140000050D03*
X170500164Y-142000046D03*
X170831126Y-111440036D03*
X170958126Y-90104036D03*
X171000036Y-131499940D03*
X171148118Y-134618044D03*
X171212126Y-130109036D03*
X171500162Y-51999972D03*
X171500162Y-53999968D03*
X171720126Y-126553036D03*
X171974126Y-122489036D03*
X172500160Y-52999970D03*
X172500160Y-54999966D03*
X174069118Y-47877044D03*
X174133126Y-86548036D03*
X174500156Y-136000058D03*
X174500156Y-138000054D03*
X174500156Y-140000050D03*
X174500156Y-142000046D03*
X174704118Y-134872044D03*
X174768126Y-110297036D03*
X174768126Y-111694036D03*
X174895126Y-114996036D03*
X174895126Y-116139036D03*
X175500154Y-52999970D03*
X175720118Y-45210044D03*
X175847118Y-40257044D03*
X175847118Y-41908044D03*
X175847118Y-43432044D03*
X175911126Y-117409036D03*
X176000026Y-131499940D03*
X176292126Y-89215036D03*
X176500152Y-76999922D03*
X176546126Y-122997036D03*
X176546126Y-128712036D03*
X177054126Y-121727036D03*
X177308126Y-93914036D03*
X177435126Y-116901036D03*
X177500150Y-50999974D03*
X177500150Y-63999948D03*
X177562126Y-88961036D03*
X177943126Y-86675036D03*
X178000022Y-131499940D03*
X178197126Y-130109036D03*
X178324126Y-88072036D03*
X178500148Y-54999966D03*
X178500148Y-72999930D03*
X178500148Y-74999926D03*
X178500148Y-76999922D03*
X178578126Y-109789036D03*
X178578126Y-117028036D03*
X178705126Y-121727036D03*
X178705126Y-126553036D03*
X179500146Y-65999944D03*
X179500146Y-90000150D03*
X179721126Y-117282036D03*
X180500144Y-45999984D03*
X180500144Y-52999970D03*
X180500144Y-54999966D03*
X180500144Y-136000058D03*
X180500144Y-138000054D03*
X180500144Y-140000050D03*
X180500144Y-142000046D03*
X180927118Y-40130044D03*
X180927118Y-42035044D03*
X180927118Y-43940044D03*
X181500142Y-67999940D03*
X181500142Y-90000150D03*
X181753126Y-117028036D03*
X182000014Y-131499940D03*
X182134126Y-109789036D03*
X182500140Y-50999974D03*
X182500140Y-52999970D03*
X182500140Y-54999966D03*
X183404126Y-122743036D03*
X183404126Y-128585036D03*
X183500138Y-65999944D03*
X183500138Y-90000150D03*
X184000010Y-131499940D03*
X184674126Y-123124036D03*
X184928126Y-108773036D03*
X185182126Y-121727036D03*
X185436126Y-130109036D03*
X185500134Y-43999988D03*
X185500134Y-45999984D03*
X185500134Y-138000054D03*
X185500134Y-140000050D03*
X185500134Y-142000046D03*
X185690126Y-109789036D03*
X185753118Y-40003044D03*
X185753118Y-42670044D03*
X185880118Y-41146044D03*
X185944126Y-126553036D03*
X186000006Y-131499940D03*
X186500132Y-68999938D03*
X186500132Y-93000144D03*
X187277118Y-136142044D03*
X187500130Y-51999972D03*
X187500130Y-53999968D03*
X188103126Y-117282036D03*
X188500128Y-49999976D03*
X189119126Y-110297036D03*
X189500126Y-63999948D03*
X189500126Y-88961036D03*
X189500126Y-118171036D03*
X189500126Y-131499940D03*
X189500126Y-136000058D03*
X189500126Y-138000054D03*
X189500126Y-140000050D03*
X189500126Y-142000046D03*
X189627126Y-115123036D03*
X190135126Y-117155036D03*
X190262126Y-109027036D03*
X190389126Y-111440036D03*
X190500124Y-40999994D03*
X190500124Y-42999990D03*
X190500124Y-44999986D03*
X190500124Y-47999980D03*
X190643126Y-122997036D03*
X190643126Y-128712036D03*
X191405126Y-119695036D03*
X191500122Y-65999944D03*
X191500122Y-89000152D03*
X191500122Y-131499940D03*
X192294126Y-130109036D03*
X192500120Y-53999968D03*
X192500120Y-55999964D03*
X192500120Y-96000138D03*
X193183126Y-126553036D03*
X193437126Y-121854036D03*
X193500118Y-67999940D03*
X193500118Y-89000152D03*
X193500118Y-131499940D03*
X194500116Y-51999972D03*
X194500116Y-53999968D03*
X194500116Y-55999964D03*
X194500116Y-96000138D03*
X194580126Y-109408036D03*
X194580126Y-111186036D03*
X194961126Y-88326036D03*
X194961126Y-94041036D03*
X194961126Y-117155036D03*
X195469126Y-115123036D03*
X195500114Y-108000114D03*
X196500112Y-96000138D03*
X196500112Y-131499940D03*
X196500112Y-136000058D03*
X196500112Y-138000054D03*
X196500112Y-140000050D03*
X196500112Y-143000044D03*
X197500110Y-69999936D03*
X197500110Y-71999932D03*
X197500110Y-73999928D03*
X197500110Y-75999924D03*
X198009126Y-122616036D03*
X198009126Y-128585036D03*
X198072118Y-41019044D03*
X198072118Y-45083044D03*
X198199118Y-43178044D03*
X198500108Y-46999982D03*
X198500108Y-131499940D03*
X198771126Y-108138036D03*
X199050526Y-117002636D03*
X199279126Y-130109036D03*
X199533126Y-109408036D03*
X199787126Y-88961036D03*
X199914126Y-122108036D03*
X200295126Y-126680036D03*
X200500104Y-131499940D03*
X201500102Y-63999948D03*
X201500102Y-89000152D03*
X201500102Y-137000056D03*
X201500102Y-139000052D03*
X201500102Y-141000048D03*
X201500102Y-143000044D03*
X202500100Y-46999982D03*
X202500100Y-52999970D03*
X202500100Y-54999966D03*
X202581126Y-108265036D03*
X202835126Y-117028036D03*
X202898118Y-40892044D03*
X202898118Y-42797044D03*
X202898118Y-44956044D03*
X203216126Y-109408036D03*
X203470126Y-94549036D03*
X203500098Y-65999944D03*
X203500098Y-89000152D03*
X203500098Y-97000136D03*
X203500098Y-99000132D03*
X204232126Y-121473036D03*
X204500096Y-50999974D03*
X204500096Y-52999970D03*
X204500096Y-54999966D03*
X204500096Y-67999940D03*
X204500096Y-131499940D03*
X204867126Y-92136036D03*
X205121126Y-122743036D03*
X205121126Y-128458036D03*
X205502126Y-90866036D03*
X205756126Y-110424036D03*
X206010126Y-117155036D03*
X206010126Y-121346036D03*
X206137126Y-118552036D03*
X206500092Y-50999974D03*
X206500092Y-52999970D03*
X206500092Y-54999966D03*
X206500092Y-94000142D03*
X206500092Y-131499940D03*
X206500092Y-136000058D03*
X206500092Y-138000054D03*
X206500092Y-140000050D03*
X206500092Y-142000046D03*
X206518126Y-130109036D03*
X206645126Y-109408036D03*
X206657318Y-97432444D03*
X206772126Y-90739036D03*
X206899126Y-126553036D03*
X207153126Y-122616036D03*
X207500090Y-46999982D03*
X207724118Y-45083044D03*
X207978118Y-40130044D03*
X207978118Y-43178044D03*
X208169126Y-90739036D03*
X208500088Y-69999936D03*
X208500088Y-72999930D03*
X208500088Y-74999926D03*
X208500088Y-94000142D03*
X208677126Y-92136036D03*
X209820126Y-112583036D03*
X209820126Y-115123036D03*
X210500084Y-94000142D03*
X210500084Y-131499940D03*
X210709126Y-108392036D03*
X210836126Y-117536036D03*
X211500082Y-136000058D03*
X211500082Y-140000050D03*
X211500082Y-143000044D03*
X211852126Y-118044036D03*
X211852126Y-122743036D03*
X211852126Y-128585036D03*
X211979126Y-119441036D03*
X212500080Y-46999982D03*
X212500080Y-131499940D03*
X212868126Y-118806036D03*
X212931118Y-44829044D03*
X212995126Y-130109036D03*
X213058118Y-40130044D03*
X213058118Y-42797044D03*
X213500078Y-52999970D03*
X213500078Y-63999948D03*
X213500078Y-94000142D03*
X213630126Y-121727036D03*
X214500076Y-50999974D03*
X214500076Y-65999944D03*
X214500076Y-131499940D03*
X214773126Y-126553036D03*
X215027126Y-103693036D03*
X215027126Y-104709036D03*
X215027126Y-105725036D03*
X215027126Y-106741036D03*
X215500074Y-52999970D03*
X215500074Y-94000142D03*
X216500072Y-50999974D03*
X216500072Y-67999940D03*
X217500070Y-48999978D03*
X217500070Y-52999970D03*
X217500070Y-87000156D03*
X217500070Y-136000058D03*
X217500070Y-139000052D03*
X217500070Y-142000046D03*
X217694126Y-110424036D03*
X218000196Y-108499986D03*
X218500068Y-131499940D03*
X219000194Y-110499982D03*
X219500066Y-40999994D03*
X219500066Y-42999990D03*
X219500066Y-44999986D03*
X219500066Y-46999982D03*
X219500066Y-49999976D03*
X219500066Y-50999974D03*
X219500066Y-52999970D03*
X219500066Y-54999966D03*
X219500066Y-56999962D03*
X219500066Y-58999958D03*
X219500066Y-60999954D03*
X219500066Y-62999950D03*
X219500066Y-87000156D03*
X219599126Y-122235036D03*
X219599126Y-128712036D03*
X220500064Y-131499940D03*
X220615126Y-117028036D03*
X221123126Y-123124036D03*
X221173926Y-81874436D03*
X221500062Y-40999994D03*
X221500062Y-42999990D03*
X221500062Y-44999986D03*
X221500062Y-46999982D03*
X221500062Y-48999978D03*
X221500062Y-50999974D03*
X221500062Y-52999970D03*
X221500062Y-54999966D03*
X221500062Y-136000058D03*
X221500062Y-138000054D03*
X221500062Y-140000050D03*
X221500062Y-142000046D03*
X221631126Y-130109036D03*
X221885126Y-117028036D03*
X222012126Y-120711036D03*
X222113726Y-82458636D03*
X222266126Y-122616036D03*
X222500060Y-87000156D03*
X222500060Y-131499940D03*
X222520126Y-126553036D03*
X223104326Y-82534836D03*
X223155126Y-117028036D03*
X223500058Y-40999994D03*
X223500058Y-42999990D03*
X223500058Y-44999986D03*
X223500058Y-46999982D03*
X223500058Y-48999978D03*
X223500058Y-50999974D03*
X223500058Y-52999970D03*
X223500058Y-54999966D03*
X224171126Y-93406036D03*
X224221926Y-82534836D03*
X224425126Y-102169036D03*
X224425126Y-110678036D03*
X224425126Y-117002636D03*
X224500056Y-84000162D03*
X224500056Y-86000158D03*
X224933126Y-100645036D03*
X225060126Y-94803036D03*
X225500054Y-40999994D03*
X225500054Y-42999990D03*
X225500054Y-44999986D03*
X225500054Y-46999982D03*
X225500054Y-48999978D03*
X225500054Y-50999974D03*
X225500054Y-52999970D03*
X225500054Y-54999966D03*
X225500054Y-131499940D03*
X225542726Y-82382436D03*
X225695126Y-110678036D03*
X226500052Y-136000058D03*
X226500052Y-138000054D03*
X226500052Y-140000050D03*
X226500052Y-142000046D03*
X226711126Y-94930036D03*
X226711126Y-100137036D03*
X226711126Y-104582036D03*
X226965126Y-120584036D03*
X227092126Y-116266036D03*
X227346126Y-122997036D03*
X227346126Y-128712036D03*
X227500050Y-40999994D03*
X227500050Y-42999990D03*
X227500050Y-44999986D03*
X227500050Y-46999982D03*
X227500050Y-48999978D03*
X227500050Y-50999974D03*
X227500050Y-52999970D03*
X227500050Y-54999966D03*
X227500050Y-131499940D03*
X228362126Y-130109036D03*
X228489126Y-100391036D03*
X228870126Y-103439036D03*
X228997126Y-93406036D03*
X229500046Y-40999994D03*
X229500046Y-42999990D03*
X229500046Y-44999986D03*
X229500046Y-46999982D03*
X229500046Y-48999978D03*
X229500046Y-50999974D03*
X229500046Y-52999970D03*
X229500046Y-54999966D03*
X229500046Y-131499940D03*
X230013126Y-101407036D03*
X230013126Y-105217036D03*
X230013126Y-121473036D03*
X230013126Y-122616036D03*
X230013126Y-126553036D03*
X230648126Y-110170036D03*
X231156126Y-57084036D03*
X231410126Y-103439036D03*
X231410126Y-114742036D03*
X231500042Y-40999994D03*
X231500042Y-42999990D03*
X231500042Y-44999986D03*
X231500042Y-46999982D03*
X231500042Y-48999978D03*
X231500042Y-50999974D03*
X231500042Y-52999970D03*
X231500042Y-54999966D03*
X231537126Y-101915036D03*
X233442126Y-116393036D03*
X233500038Y-40999994D03*
X233500038Y-42999990D03*
X233500038Y-44999986D03*
X233500038Y-46999982D03*
X233500038Y-48999978D03*
X233500038Y-50999974D03*
X233500038Y-52999970D03*
X233500038Y-54999966D03*
X233500038Y-131499940D03*
X233500038Y-136000058D03*
X233500038Y-138000054D03*
X233500038Y-140000050D03*
X233500038Y-142000046D03*
X233823126Y-88453036D03*
X234712126Y-123251036D03*
X235000162Y-107499988D03*
X235220126Y-116393036D03*
X235500034Y-40999994D03*
X235500034Y-42999990D03*
X235500034Y-44999986D03*
X235500034Y-46999982D03*
X235500034Y-48999978D03*
X235500034Y-50999974D03*
X235500034Y-52999970D03*
X235500034Y-131499940D03*
X236000160Y-106499990D03*
X236000160Y-108499986D03*
X236490126Y-121219036D03*
X236490126Y-130109036D03*
X236744126Y-122743036D03*
X237000158Y-116499970D03*
X237125126Y-119949036D03*
X237379126Y-126553036D03*
X237500030Y-40999994D03*
X237500030Y-42999990D03*
X237500030Y-44999986D03*
X237500030Y-46999982D03*
X237500030Y-48999978D03*
X237500030Y-50999974D03*
X237500030Y-52999970D03*
X237500030Y-54999966D03*
X237500030Y-61999952D03*
X237500030Y-131499940D03*
X237500030Y-136000058D03*
X237500030Y-138000054D03*
X237500030Y-140000050D03*
X237500030Y-142000046D03*
X237760126Y-114361036D03*
X237887126Y-106487036D03*
X238000156Y-108499986D03*
X239500026Y-40999994D03*
X239500026Y-42999990D03*
X239500026Y-44999986D03*
X239500026Y-46999982D03*
X239500026Y-48999978D03*
X239500026Y-50999974D03*
X239500026Y-52999970D03*
X239500026Y-54999966D03*
X239500026Y-56999962D03*
X239500026Y-58999958D03*
X239500026Y-60999954D03*
X239500026Y-62999950D03*
X240046126Y-84643036D03*
X241316126Y-133538036D03*
X241500022Y-40999994D03*
X241500022Y-42999990D03*
X241500022Y-44999986D03*
X241500022Y-46999982D03*
X241500022Y-48999978D03*
X241500022Y-50999974D03*
X241500022Y-52999970D03*
X241500022Y-54999966D03*
X241500022Y-56999962D03*
X241500022Y-58999958D03*
X241500022Y-60999954D03*
X241500022Y-62999950D03*
X241500022Y-116499970D03*
X242586126Y-132395036D03*
X243094126Y-64450036D03*
X243221126Y-63053036D03*
X243348126Y-112583036D03*
X243500018Y-44999986D03*
X243500018Y-46999982D03*
X243500018Y-48999978D03*
X243500018Y-50999974D03*
X243500018Y-52999970D03*
X243500018Y-54999966D03*
X243500018Y-56999962D03*
X243500018Y-58999958D03*
X243500018Y-60999954D03*
X243500018Y-114499974D03*
X243500018Y-134000062D03*
X243500018Y-136000058D03*
X243500018Y-138000054D03*
X243500018Y-140000050D03*
X244000144Y-130499942D03*
X244500016Y-84000162D03*
X244500016Y-86000158D03*
X244500016Y-122499958D03*
X244500016Y-124499954D03*
X244500016Y-126499950D03*
X244500016Y-128499946D03*
X245000142Y-120499962D03*
X245126126Y-63053036D03*
X245253126Y-64704036D03*
X246500012Y-84000162D03*
X246500012Y-86000158D03*
X246500012Y-88000154D03*
X246500012Y-90000150D03*
X246500012Y-92000146D03*
X246500012Y-94000142D03*
X246500012Y-97000136D03*
X246500012Y-99000132D03*
X246500012Y-101000128D03*
X246500012Y-102000126D03*
X246500012Y-104000122D03*
X246500012Y-106000118D03*
X246777126Y-63053036D03*
X247000138Y-117499968D03*
X247000138Y-119499964D03*
X247031126Y-64831036D03*
X248301126Y-63942036D03*
X248491118Y-64742644D03*
D11*
%TO.C,C29*%
X166021126Y-83754036D03*
X168021126Y-83754036D03*
%TO.C,C112*%
X211257126Y-89088036D03*
%TO.C,C50*%
X211360126Y-97724036D03*
X213360126Y-97724036D03*
%TO.C,C112*%
X213757126Y-89088036D03*
%TO.C,C147*%
X242602126Y-118679036D03*
X244602126Y-118679036D03*
%TO.C,J15*%
D12*
X73212118Y-39000134D02*
X74012118Y-39000134D01*
X73212118Y-47200134D02*
X74012118Y-47200134D01*
%TO.C,J14*%
X78165118Y-39000134D02*
X78965118Y-39000134D01*
X78165118Y-47200134D02*
X78965118Y-47200134D01*
%TO.C,J11*%
X83118118Y-39000134D02*
X83918118Y-39000134D01*
X83118118Y-47200134D02*
X83918118Y-47200134D01*
%TO.C,J13*%
X88071118Y-39000134D02*
X88871118Y-39000134D01*
X88071118Y-47200134D02*
X88871118Y-47200134D01*
%TO.C,J1*%
X93024118Y-39000134D02*
X93824118Y-39000134D01*
X93024118Y-47200134D02*
X93824118Y-47200134D01*
%TO.C,J8*%
X97977118Y-39000134D02*
X98777118Y-39000134D01*
X97977118Y-47200134D02*
X98777118Y-47200134D01*
D13*
%TO.C,J4*%
X65802126Y-88834036D03*
X65802126Y-91374036D03*
%TO.C,J23*%
X68342126Y-59497036D03*
X68342126Y-62037036D03*
X68342126Y-64577036D03*
X68342126Y-67117036D03*
X68342126Y-69657036D03*
%TO.C,J45*%
X68342126Y-75499036D03*
X68342126Y-78039036D03*
X68342126Y-80579036D03*
X68342126Y-83119036D03*
%TO.C,J15*%
X73612118Y-41100134D03*
X73612118Y-43100134D03*
X73612118Y-45100134D03*
%TO.C,J14*%
X78565118Y-41100134D03*
X78565118Y-43100134D03*
X78565118Y-45100134D03*
%TO.C,J6*%
X79326610Y-59726652D03*
X79326610Y-62266652D03*
X79326610Y-64806652D03*
X79326610Y-67346652D03*
X81866610Y-59726652D03*
X81866610Y-62266652D03*
X81866610Y-64806652D03*
X81866610Y-67346652D03*
%TO.C,J11*%
X83518118Y-41100134D03*
X83518118Y-43100134D03*
X83518118Y-45100134D03*
%TO.C,J13*%
X88471118Y-41100134D03*
X88471118Y-43100134D03*
X88471118Y-45100134D03*
%TO.C,J1*%
X93424118Y-41100134D03*
X93424118Y-43100134D03*
X93424118Y-45100134D03*
%TO.C,J8*%
X98377118Y-41100134D03*
X98377118Y-43100134D03*
X98377118Y-45100134D03*
%TO.C,J41*%
X248500008Y-66355036D03*
X248500008Y-68895036D03*
X248500008Y-71435036D03*
X248500008Y-73975036D03*
D14*
%TO.C,J10*%
X73100238Y-140500106D03*
X73100238Y-145500106D03*
X78100238Y-140500106D03*
X78100238Y-145500106D03*
X83100238Y-140500106D03*
X83100238Y-145500106D03*
X88100238Y-140500106D03*
X88100238Y-145500106D03*
X93100238Y-140500106D03*
X93100238Y-145500106D03*
X98100238Y-140500106D03*
X98100238Y-145500106D03*
%TO.C,J33*%
X104137126Y-39499930D03*
X104137126Y-44499930D03*
%TO.C,J48*%
X104600048Y-140500106D03*
X104600048Y-145500106D03*
%TO.C,J33*%
X109137126Y-39499930D03*
X109137126Y-44499930D03*
%TO.C,J48*%
X109600048Y-140500106D03*
X109600048Y-145500106D03*
%TO.C,J33*%
X114137126Y-39499930D03*
X114137126Y-44499930D03*
%TO.C,J48*%
X114600048Y-140500106D03*
X114600048Y-145500106D03*
X119600048Y-140500106D03*
X119600048Y-145500106D03*
%TO.C,J31*%
X121141126Y-39499930D03*
X121141126Y-44499930D03*
%TO.C,J48*%
X124600048Y-140500106D03*
X124600048Y-145500106D03*
%TO.C,J31*%
X126141126Y-39499930D03*
X126141126Y-44499930D03*
%TO.C,J48*%
X129600048Y-140500106D03*
X129600048Y-145500106D03*
%TO.C,J31*%
X131141126Y-39499930D03*
X131141126Y-44499930D03*
%TO.C,J51*%
X136100112Y-140500106D03*
X136100112Y-145500106D03*
%TO.C,J31*%
X136141126Y-39499930D03*
X136141126Y-44499930D03*
%TO.C,J51*%
X141100112Y-140500106D03*
X141100112Y-145500106D03*
%TO.C,J31*%
X141141126Y-39499930D03*
X141141126Y-44499930D03*
%TO.C,J51*%
X146100112Y-140500106D03*
X146100112Y-145500106D03*
%TO.C,J31*%
X146141126Y-39499930D03*
X146141126Y-44499930D03*
%TO.C,J51*%
X151100112Y-140500106D03*
X151100112Y-145500106D03*
X156100112Y-140500106D03*
X156100112Y-145500106D03*
X161100112Y-140500106D03*
X161100112Y-145500106D03*
%TO.C,R84*%
X165341678Y-68295342D03*
X165341678Y-73934142D03*
%TO.C,R87*%
X165346250Y-56077942D03*
X165346250Y-61716742D03*
%TO.C,J12*%
X167600176Y-140500106D03*
X167600176Y-145500106D03*
%TO.C,J38*%
X168400122Y-39499930D03*
X168400122Y-44499930D03*
%TO.C,J12*%
X172600176Y-140500106D03*
X172600176Y-145500106D03*
%TO.C,J38*%
X173400122Y-39499930D03*
X173400122Y-44499930D03*
%TO.C,R91*%
X176846354Y-56077942D03*
X176846354Y-61716742D03*
%TO.C,R89*%
X176847878Y-68295342D03*
X176847878Y-73934142D03*
%TO.C,J12*%
X177600176Y-140500106D03*
X177600176Y-145500106D03*
%TO.C,J38*%
X178400122Y-39499930D03*
X178400122Y-44499930D03*
%TO.C,J12*%
X182600176Y-140500106D03*
X182600176Y-145500106D03*
%TO.C,J38*%
X183400122Y-39499930D03*
X183400122Y-44499930D03*
%TO.C,J12*%
X187600176Y-140500106D03*
X187600176Y-145500106D03*
%TO.C,R8*%
X188346204Y-56077942D03*
X188346204Y-61716742D03*
%TO.C,R93*%
X188354078Y-68295342D03*
X188354078Y-73934142D03*
%TO.C,J38*%
X188400122Y-39499930D03*
X188400122Y-44499930D03*
%TO.C,J12*%
X192600176Y-140500106D03*
X192600176Y-145500106D03*
%TO.C,J37*%
X195527322Y-39499930D03*
X195527322Y-44499930D03*
%TO.C,J5*%
X199100240Y-140500106D03*
X199100240Y-145500106D03*
%TO.C,R76*%
X199834878Y-68295342D03*
X199834878Y-73934142D03*
%TO.C,R78*%
X199846308Y-56077942D03*
X199846308Y-61716742D03*
%TO.C,J37*%
X200527322Y-39499930D03*
X200527322Y-44499930D03*
%TO.C,J5*%
X204100240Y-140500106D03*
X204100240Y-145500106D03*
%TO.C,J37*%
X205527322Y-39499930D03*
X205527322Y-44499930D03*
%TO.C,J5*%
X209100240Y-140500106D03*
X209100240Y-145500106D03*
%TO.C,J37*%
X210527322Y-39499930D03*
X210527322Y-44499930D03*
%TO.C,R80*%
X211341078Y-68295342D03*
X211341078Y-73934142D03*
%TO.C,R82*%
X211346412Y-56071592D03*
X211346412Y-61710392D03*
%TO.C,J5*%
X214100240Y-140500106D03*
X214100240Y-145500106D03*
%TO.C,J37*%
X215527322Y-39499930D03*
X215527322Y-44499930D03*
%TO.C,J5*%
X219100240Y-140500106D03*
X219100240Y-145500106D03*
X224100240Y-140500106D03*
X224100240Y-145500106D03*
%TO.C,J7*%
X230600050Y-140500106D03*
X230600050Y-145500106D03*
X235600050Y-140500106D03*
X235600050Y-145500106D03*
X240600050Y-140500106D03*
X240600050Y-145500106D03*
D15*
%TO.C,L2*%
X217440126Y-97724036D03*
%TO.C,L1*%
X217567126Y-89088036D03*
%TO.C,L2*%
X222520126Y-97724036D03*
%TO.C,L1*%
X222647126Y-89088036D03*
%TO.C,C8*%
X223108126Y-69403036D03*
%TO.C,C32*%
X223108126Y-79944036D03*
%TO.C,C8*%
X228108126Y-69403036D03*
%TO.C,C32*%
X228108126Y-79944036D03*
D16*
%TO.C,U19*%
X170116370Y-57570192D03*
X170116370Y-60110192D03*
X170116370Y-62650192D03*
%TO.C,U13*%
X170116878Y-69793942D03*
X170116878Y-72333942D03*
X170116878Y-74873942D03*
%TO.C,U21*%
X181616220Y-57576542D03*
X181616220Y-60116542D03*
X181616220Y-62656542D03*
%TO.C,U20*%
X181623078Y-69793942D03*
X181623078Y-72333942D03*
X181623078Y-74873942D03*
%TO.C,U22*%
X193103878Y-69793942D03*
X193103878Y-72333942D03*
X193103878Y-74873942D03*
%TO.C,U3*%
X193116324Y-57576542D03*
X193116324Y-60116542D03*
X193116324Y-62656542D03*
%TO.C,U14*%
X204610078Y-69793942D03*
X204610078Y-72333942D03*
X204610078Y-74873942D03*
%TO.C,U15*%
X204616428Y-57576542D03*
X204616428Y-60116542D03*
X204616428Y-62656542D03*
%TO.C,U17*%
X216116278Y-57576542D03*
X216116278Y-60116542D03*
X216116278Y-62656542D03*
%TO.C,U16*%
X216116278Y-69793942D03*
X216116278Y-72333942D03*
X216116278Y-74873942D03*
D17*
%TO.C,F3*%
X236109126Y-56820036D03*
X236109126Y-78420036D03*
M02*
