%TF.GenerationSoftware,KiCad,Pcbnew,10.0.4*%
%TF.CreationDate,2026-08-13T09:17:07+08:00*%
%TF.ProjectId,IOB_v3.2.1,494f425f-7633-42e3-922e-312e6b696361,3.2.1*%
%TF.SameCoordinates,Original*%
%TF.FileFunction,Soldermask,Bot*%
%TF.FilePolarity,Negative*%
%FSLAX46Y46*%
G04 Gerber Fmt 4.6, Leading zero omitted, Abs format (unit mm)*
G04 Created by KiCad (PCBNEW 10.0.4) date 2026-08-13 09:17:07*
%MOMM*%
%LPD*%
G01*
G04 APERTURE LIST*
G04 Aperture macros list*
%AMRoundRect*
0 Rectangle with rounded corners*
0 $1 Rounding radius*
0 $2 $3 $4 $5 $6 $7 $8 $9 X,Y pos of 4 corners*
0 Add a 4 corners polygon primitive as box body*
4,1,4,$2,$3,$4,$5,$6,$7,$8,$9,$2,$3,0*
0 Add four circle primitives for the rounded corners*
1,1,$1+$1,$2,$3*
1,1,$1+$1,$4,$5*
1,1,$1+$1,$6,$7*
1,1,$1+$1,$8,$9*
0 Add four rect primitives between the rounded corners*
20,1,$1+$1,$2,$3,$4,$5,0*
20,1,$1+$1,$4,$5,$6,$7,0*
20,1,$1+$1,$6,$7,$8,$9,0*
20,1,$1+$1,$8,$9,$2,$3,0*%
G04 Aperture macros list end*
%ADD10C,2.692400*%
%ADD11C,2.152400*%
%ADD12C,1.676400*%
%ADD13C,2.652400*%
%ADD14C,1.952400*%
%ADD15O,3.152400X1.676400*%
%ADD16C,2.184400*%
%ADD17C,3.200400*%
%ADD18C,1.422400*%
%ADD19RoundRect,0.076200X0.508000X-0.635000X0.508000X0.635000X-0.508000X0.635000X-0.508000X-0.635000X0*%
%ADD20RoundRect,0.076200X0.381000X-0.482600X0.381000X0.482600X-0.381000X0.482600X-0.381000X-0.482600X0*%
%ADD21RoundRect,0.076200X-0.482600X-0.381000X0.482600X-0.381000X0.482600X0.381000X-0.482600X0.381000X0*%
%ADD22RoundRect,0.076200X0.482600X0.381000X-0.482600X0.381000X-0.482600X-0.381000X0.482600X-0.381000X0*%
%ADD23RoundRect,0.076200X-0.381000X0.482600X-0.381000X-0.482600X0.381000X-0.482600X0.381000X0.482600X0*%
%ADD24RoundRect,0.076200X1.150000X0.750000X-1.150000X0.750000X-1.150000X-0.750000X1.150000X-0.750000X0*%
G04 APERTURE END LIST*
D10*
%TO.C,C8*%
X228108126Y-69403036D03*
X223108126Y-69403036D03*
%TD*%
D11*
%TO.C,R93*%
X188354078Y-73934142D03*
X188354078Y-68295342D03*
%TD*%
%TO.C,R87*%
X165346250Y-61716742D03*
X165346250Y-56077942D03*
%TD*%
D12*
%TO.C,J4*%
X65802126Y-91374036D03*
X65802126Y-88834036D03*
%TD*%
D13*
%TO.C,J7*%
X240600050Y-140500106D03*
X240600050Y-145500106D03*
X235600050Y-140500106D03*
X235600050Y-145500106D03*
X230600050Y-140500106D03*
X230600050Y-145500106D03*
%TD*%
D14*
%TO.C,U14*%
X204610078Y-69793942D03*
X204610078Y-72333942D03*
X204610078Y-74873942D03*
%TD*%
D15*
%TO.C,J1*%
X93424118Y-47200134D03*
D12*
X93424118Y-45100134D03*
X93424118Y-43100134D03*
X93424118Y-41100134D03*
D15*
X93424118Y-39000134D03*
%TD*%
D13*
%TO.C,J37*%
X215527322Y-39499930D03*
X215527322Y-44499930D03*
X210527322Y-39499930D03*
X210527322Y-44499930D03*
X205527322Y-39499930D03*
X205527322Y-44499930D03*
X200527322Y-39499930D03*
X200527322Y-44499930D03*
X195527322Y-39499930D03*
X195527322Y-44499930D03*
%TD*%
D12*
%TO.C,J41*%
X248500008Y-73975036D03*
X248500008Y-71435036D03*
X248500008Y-68895036D03*
X248500008Y-66355036D03*
%TD*%
D15*
%TO.C,J13*%
X88471118Y-47200134D03*
D12*
X88471118Y-45100134D03*
X88471118Y-43100134D03*
X88471118Y-41100134D03*
D15*
X88471118Y-39000134D03*
%TD*%
D14*
%TO.C,U19*%
X170116370Y-57570192D03*
X170116370Y-60110192D03*
X170116370Y-62650192D03*
%TD*%
D10*
%TO.C,C32*%
X228108126Y-79944036D03*
X223108126Y-79944036D03*
%TD*%
D11*
%TO.C,R76*%
X199834878Y-68295342D03*
X199834878Y-73934142D03*
%TD*%
D16*
%TO.C,L1*%
X217567126Y-89088036D03*
X222647126Y-89088036D03*
%TD*%
D12*
%TO.C,J6*%
X81866610Y-67346652D03*
X79326610Y-67346652D03*
X81866610Y-64806652D03*
X79326610Y-64806652D03*
X81866610Y-62266652D03*
X79326610Y-62266652D03*
X81866610Y-59726652D03*
X79326610Y-59726652D03*
%TD*%
D11*
%TO.C,R80*%
X211341078Y-68295342D03*
X211341078Y-73934142D03*
%TD*%
%TO.C,R78*%
X199846308Y-56077942D03*
X199846308Y-61716742D03*
%TD*%
D17*
%TO.C,F3*%
X236109126Y-78420036D03*
X236109126Y-56820036D03*
%TD*%
D13*
%TO.C,J38*%
X188400122Y-39499930D03*
X188400122Y-44499930D03*
X183400122Y-39499930D03*
X183400122Y-44499930D03*
X178400122Y-39499930D03*
X178400122Y-44499930D03*
X173400122Y-39499930D03*
X173400122Y-44499930D03*
X168400122Y-39499930D03*
X168400122Y-44499930D03*
%TD*%
D18*
%TO.C,C29*%
X168021126Y-83754036D03*
X166021126Y-83754036D03*
%TD*%
D15*
%TO.C,J11*%
X83518118Y-47200134D03*
D12*
X83518118Y-45100134D03*
X83518118Y-43100134D03*
X83518118Y-41100134D03*
D15*
X83518118Y-39000134D03*
%TD*%
D11*
%TO.C,R91*%
X176846354Y-56077942D03*
X176846354Y-61716742D03*
%TD*%
%TO.C,R89*%
X176847878Y-68295342D03*
X176847878Y-73934142D03*
%TD*%
D12*
%TO.C,J23*%
X68342126Y-59497036D03*
X68342126Y-62037036D03*
X68342126Y-64577036D03*
X68342126Y-67117036D03*
X68342126Y-69657036D03*
%TD*%
D13*
%TO.C,J10*%
X73100238Y-145500106D03*
X73100238Y-140500106D03*
X78100238Y-145500106D03*
X78100238Y-140500106D03*
X83100238Y-145500106D03*
X83100238Y-140500106D03*
X88100238Y-145500106D03*
X88100238Y-140500106D03*
X93100238Y-145500106D03*
X93100238Y-140500106D03*
X98100238Y-145500106D03*
X98100238Y-140500106D03*
%TD*%
D14*
%TO.C,U15*%
X204616428Y-57576542D03*
X204616428Y-60116542D03*
X204616428Y-62656542D03*
%TD*%
D13*
%TO.C,J5*%
X199100240Y-145500106D03*
X199100240Y-140500106D03*
X204100240Y-145500106D03*
X204100240Y-140500106D03*
X209100240Y-145500106D03*
X209100240Y-140500106D03*
X214100240Y-145500106D03*
X214100240Y-140500106D03*
X219100240Y-145500106D03*
X219100240Y-140500106D03*
X224100240Y-145500106D03*
X224100240Y-140500106D03*
%TD*%
D15*
%TO.C,J8*%
X98377118Y-47200134D03*
D12*
X98377118Y-45100134D03*
X98377118Y-43100134D03*
X98377118Y-41100134D03*
D15*
X98377118Y-39000134D03*
%TD*%
D14*
%TO.C,U20*%
X181623078Y-69793942D03*
X181623078Y-72333942D03*
X181623078Y-74873942D03*
%TD*%
%TO.C,U13*%
X170116878Y-69793942D03*
X170116878Y-72333942D03*
X170116878Y-74873942D03*
%TD*%
D12*
%TO.C,J45*%
X68342126Y-75499036D03*
X68342126Y-78039036D03*
X68342126Y-80579036D03*
X68342126Y-83119036D03*
%TD*%
D15*
%TO.C,J14*%
X78565118Y-47200134D03*
D12*
X78565118Y-45100134D03*
X78565118Y-43100134D03*
X78565118Y-41100134D03*
D15*
X78565118Y-39000134D03*
%TD*%
D14*
%TO.C,U17*%
X216116278Y-57576542D03*
X216116278Y-60116542D03*
X216116278Y-62656542D03*
%TD*%
D16*
%TO.C,L2*%
X217440126Y-97724036D03*
X222520126Y-97724036D03*
%TD*%
D14*
%TO.C,U16*%
X216116278Y-69793942D03*
X216116278Y-72333942D03*
X216116278Y-74873942D03*
%TD*%
%TO.C,U21*%
X181616220Y-57576542D03*
X181616220Y-60116542D03*
X181616220Y-62656542D03*
%TD*%
D11*
%TO.C,R8*%
X188346204Y-56077942D03*
X188346204Y-61716742D03*
%TD*%
D18*
%TO.C,C50*%
X213360126Y-97724036D03*
X211360126Y-97724036D03*
%TD*%
D13*
%TO.C,J31*%
X146141126Y-39499930D03*
X146141126Y-44499930D03*
X141141126Y-39499930D03*
X141141126Y-44499930D03*
X136141126Y-39499930D03*
X136141126Y-44499930D03*
X131141126Y-39499930D03*
X131141126Y-44499930D03*
X126141126Y-39499930D03*
X126141126Y-44499930D03*
X121141126Y-39499930D03*
X121141126Y-44499930D03*
%TD*%
%TO.C,J12*%
X167600176Y-145500106D03*
X167600176Y-140500106D03*
X172600176Y-145500106D03*
X172600176Y-140500106D03*
X177600176Y-145500106D03*
X177600176Y-140500106D03*
X182600176Y-145500106D03*
X182600176Y-140500106D03*
X187600176Y-145500106D03*
X187600176Y-140500106D03*
X192600176Y-145500106D03*
X192600176Y-140500106D03*
%TD*%
D18*
%TO.C,C147*%
X244602126Y-118679036D03*
X242602126Y-118679036D03*
%TD*%
D11*
%TO.C,R82*%
X211346412Y-56071592D03*
X211346412Y-61710392D03*
%TD*%
D13*
%TO.C,J33*%
X114137126Y-39499930D03*
X114137126Y-44499930D03*
X109137126Y-39499930D03*
X109137126Y-44499930D03*
X104137126Y-39499930D03*
X104137126Y-44499930D03*
%TD*%
D14*
%TO.C,U22*%
X193103878Y-69793942D03*
X193103878Y-72333942D03*
X193103878Y-74873942D03*
%TD*%
D18*
%TO.C,C112*%
X213757126Y-89088036D03*
X211257126Y-89088036D03*
%TD*%
D15*
%TO.C,J15*%
X73612118Y-47200134D03*
D12*
X73612118Y-45100134D03*
X73612118Y-43100134D03*
X73612118Y-41100134D03*
D15*
X73612118Y-39000134D03*
%TD*%
D13*
%TO.C,J51*%
X136100112Y-145500106D03*
X136100112Y-140500106D03*
X141100112Y-145500106D03*
X141100112Y-140500106D03*
X146100112Y-145500106D03*
X146100112Y-140500106D03*
X151100112Y-145500106D03*
X151100112Y-140500106D03*
X156100112Y-145500106D03*
X156100112Y-140500106D03*
X161100112Y-145500106D03*
X161100112Y-140500106D03*
%TD*%
D11*
%TO.C,R84*%
X165341678Y-68295342D03*
X165341678Y-73934142D03*
%TD*%
D14*
%TO.C,U3*%
X193116324Y-57576542D03*
X193116324Y-60116542D03*
X193116324Y-62656542D03*
%TD*%
D13*
%TO.C,J48*%
X104600048Y-145500106D03*
X104600048Y-140500106D03*
X109600048Y-145500106D03*
X109600048Y-140500106D03*
X114600048Y-145500106D03*
X114600048Y-140500106D03*
X119600048Y-145500106D03*
X119600048Y-140500106D03*
X124600048Y-145500106D03*
X124600048Y-140500106D03*
X129600048Y-145500106D03*
X129600048Y-140500106D03*
%TD*%
D19*
%TO.C,Q57*%
X232045126Y-120558636D03*
X233061126Y-122844636D03*
X231029126Y-122844636D03*
%TD*%
D20*
%TO.C,R180*%
X148834726Y-70901636D03*
X148834726Y-69326836D03*
%TD*%
D21*
%TO.C,R263*%
X111496726Y-129474036D03*
X113071526Y-129474036D03*
%TD*%
D22*
%TO.C,R105*%
X143348326Y-114767436D03*
X141773526Y-114767436D03*
%TD*%
%TO.C,R125*%
X82136612Y-116023974D03*
X80561812Y-116023974D03*
%TD*%
%TO.C,R112*%
X71636506Y-114524104D03*
X70061706Y-114524104D03*
%TD*%
D20*
%TO.C,R9*%
X121351926Y-70901636D03*
X121351926Y-69326836D03*
%TD*%
D21*
%TO.C,R285*%
X133728584Y-119173320D03*
X135303384Y-119173320D03*
%TD*%
D23*
%TO.C,R165*%
X131664326Y-69326836D03*
X131664326Y-70901636D03*
%TD*%
D22*
%TO.C,R132*%
X78636492Y-116023974D03*
X77061692Y-116023974D03*
%TD*%
%TO.C,R148*%
X181136414Y-114524104D03*
X179561614Y-114524104D03*
%TD*%
%TO.C,R307*%
X208626326Y-116012036D03*
X207051526Y-116012036D03*
%TD*%
D19*
%TO.C,Q29*%
X166894126Y-125740236D03*
X167910126Y-128026236D03*
X165878126Y-128026236D03*
%TD*%
%TO.C,Q48*%
X209058126Y-120558636D03*
X210074126Y-122844636D03*
X208042126Y-122844636D03*
%TD*%
D21*
%TO.C,R39*%
X173193326Y-124368636D03*
X174768126Y-124368636D03*
%TD*%
D23*
%TO.C,C101*%
X128641726Y-69326836D03*
X128641726Y-70901636D03*
%TD*%
D19*
%TO.C,D22*%
X70849106Y-110524112D03*
X71865106Y-112810112D03*
X69833106Y-112810112D03*
%TD*%
%TO.C,Q68*%
X187976126Y-125740236D03*
X188992126Y-128026236D03*
X186960126Y-128026236D03*
%TD*%
%TO.C,Q27*%
X148733126Y-120431636D03*
X149749126Y-122717636D03*
X147717126Y-122717636D03*
%TD*%
D22*
%TO.C,R322*%
X228641526Y-113281028D03*
X227066726Y-113281028D03*
%TD*%
D19*
%TO.C,D63*%
X112706020Y-110638920D03*
X113722020Y-112924920D03*
X111690020Y-112924920D03*
%TD*%
D21*
%TO.C,R302*%
X208270726Y-124368636D03*
X209845526Y-124368636D03*
%TD*%
%TO.C,R278*%
X126229996Y-119259680D03*
X127804796Y-119259680D03*
%TD*%
%TO.C,R120*%
X74793726Y-124241636D03*
X76368526Y-124241636D03*
%TD*%
%TO.C,R283*%
X133728584Y-124278720D03*
X135303384Y-124278720D03*
%TD*%
%TO.C,R157*%
X194554726Y-129728036D03*
X196129526Y-129728036D03*
%TD*%
D19*
%TO.C,D49*%
X227854126Y-109281036D03*
X228870126Y-111567036D03*
X226838126Y-111567036D03*
%TD*%
%TO.C,D12*%
X176849148Y-110524112D03*
X177865148Y-112810112D03*
X175833148Y-112810112D03*
%TD*%
D21*
%TO.C,R229*%
X201412726Y-129728036D03*
X202987526Y-129728036D03*
%TD*%
%TO.C,R134*%
X89398726Y-124241636D03*
X90973526Y-124241636D03*
%TD*%
%TO.C,C16*%
X123694568Y-83364146D03*
X125269368Y-83364146D03*
%TD*%
D19*
%TO.C,Q17*%
X127017396Y-125736680D03*
X128033396Y-128022680D03*
X126001396Y-128022680D03*
%TD*%
D21*
%TO.C,R228*%
X201412726Y-124368636D03*
X202987526Y-124368636D03*
%TD*%
D22*
%TO.C,R104*%
X143348326Y-116266036D03*
X141773526Y-116266036D03*
%TD*%
D21*
%TO.C,R317*%
X223891726Y-129728036D03*
X225466526Y-129728036D03*
%TD*%
D22*
%TO.C,R321*%
X228641526Y-114781152D03*
X227066726Y-114781152D03*
%TD*%
D19*
%TO.C,Q41*%
X90186126Y-125613236D03*
X91202126Y-127899236D03*
X89170126Y-127899236D03*
%TD*%
D22*
%TO.C,R298*%
X201636500Y-114524104D03*
X200061700Y-114524104D03*
%TD*%
D21*
%TO.C,R107*%
X166106726Y-129728036D03*
X167681526Y-129728036D03*
%TD*%
%TO.C,R144*%
X179949726Y-119009236D03*
X181524526Y-119009236D03*
%TD*%
%TO.C,R142*%
X179949726Y-124241636D03*
X181524526Y-124241636D03*
%TD*%
%TO.C,R316*%
X223891726Y-124368636D03*
X225466526Y-124368636D03*
%TD*%
D22*
%TO.C,R227*%
X198136634Y-114524104D03*
X196561834Y-114524104D03*
%TD*%
%TO.C,R226*%
X198136634Y-116023974D03*
X196561834Y-116023974D03*
%TD*%
D21*
%TO.C,R293*%
X201412726Y-119136236D03*
X202987526Y-119136236D03*
%TD*%
%TO.C,R150*%
X187188726Y-129728036D03*
X188763526Y-129728036D03*
%TD*%
D19*
%TO.C,Q35*%
X75581126Y-125613236D03*
X76597126Y-127899236D03*
X74565126Y-127899236D03*
%TD*%
%TO.C,Q47*%
X209058126Y-125740236D03*
X210074126Y-128026236D03*
X208042126Y-128026236D03*
%TD*%
D21*
%TO.C,R99*%
X147951568Y-124235794D03*
X149526368Y-124235794D03*
%TD*%
D22*
%TO.C,R147*%
X181136414Y-116023974D03*
X179561614Y-116023974D03*
%TD*%
D21*
%TO.C,R270*%
X119116726Y-129728036D03*
X120691526Y-129728036D03*
%TD*%
D19*
%TO.C,Q38*%
X82947126Y-125638636D03*
X83963126Y-127924636D03*
X81931126Y-127924636D03*
%TD*%
D21*
%TO.C,R284*%
X133721726Y-129474036D03*
X135296526Y-129474036D03*
%TD*%
%TO.C,R115*%
X67173726Y-119060036D03*
X68748526Y-119060036D03*
%TD*%
D19*
%TO.C,Q26*%
X148738968Y-125607394D03*
X149754968Y-127893394D03*
X147722968Y-127893394D03*
%TD*%
D22*
%TO.C,R118*%
X75136626Y-116023974D03*
X73561826Y-116023974D03*
%TD*%
D19*
%TO.C,Q32*%
X68037326Y-125664036D03*
X69053326Y-127950036D03*
X67021326Y-127950036D03*
%TD*%
D22*
%TO.C,R267*%
X123993526Y-116139036D03*
X122418726Y-116139036D03*
%TD*%
D21*
%TO.C,R271*%
X119092596Y-119259680D03*
X120667396Y-119259680D03*
%TD*%
%TO.C,R121*%
X74793726Y-129601036D03*
X76368526Y-129601036D03*
%TD*%
D19*
%TO.C,D65*%
X119706006Y-110638920D03*
X120722006Y-112924920D03*
X118690006Y-112924920D03*
%TD*%
D22*
%TO.C,R297*%
X201636500Y-116023974D03*
X200061700Y-116023974D03*
%TD*%
D19*
%TO.C,D24*%
X81349212Y-110524112D03*
X82365212Y-112810112D03*
X80333212Y-112810112D03*
%TD*%
D21*
%TO.C,C17*%
X135226168Y-83364146D03*
X136800968Y-83364146D03*
%TD*%
%TO.C,R151*%
X187188726Y-119136236D03*
X188763526Y-119136236D03*
%TD*%
D23*
%TO.C,C106*%
X152314526Y-69326836D03*
X152314526Y-70901636D03*
%TD*%
D19*
%TO.C,Q65*%
X180737126Y-125613236D03*
X181753126Y-127899236D03*
X179721126Y-127899236D03*
%TD*%
%TO.C,Q42*%
X90186126Y-120431636D03*
X91202126Y-122717636D03*
X89170126Y-122717636D03*
%TD*%
D21*
%TO.C,R260*%
X104130726Y-129601036D03*
X105705526Y-129601036D03*
%TD*%
D22*
%TO.C,R274*%
X120493406Y-116139036D03*
X118918606Y-116139036D03*
%TD*%
D23*
%TO.C,C103*%
X138700126Y-69326836D03*
X138700126Y-70901636D03*
%TD*%
D22*
%TO.C,R141*%
X177636548Y-114524104D03*
X176061748Y-114524104D03*
%TD*%
D21*
%TO.C,R63*%
X173040926Y-119136236D03*
X174615726Y-119136236D03*
%TD*%
D22*
%TO.C,R155*%
X188128526Y-114513436D03*
X186553726Y-114513436D03*
%TD*%
D23*
%TO.C,C7*%
X124349126Y-69326836D03*
X124349126Y-70901636D03*
%TD*%
D21*
%TO.C,R128*%
X82159726Y-129626436D03*
X83734526Y-129626436D03*
%TD*%
%TO.C,R304*%
X208270726Y-119136236D03*
X209845526Y-119136236D03*
%TD*%
D23*
%TO.C,C15*%
X140788768Y-88723546D03*
X140788768Y-90298346D03*
%TD*%
D22*
%TO.C,R282*%
X136358500Y-114778104D03*
X134783700Y-114778104D03*
%TD*%
D23*
%TO.C,C36*%
X140788768Y-94209946D03*
X140788768Y-95784746D03*
%TD*%
D20*
%TO.C,C39*%
X140788768Y-98756546D03*
X140788768Y-97181746D03*
%TD*%
D22*
%TO.C,R281*%
X136358500Y-116277974D03*
X134783700Y-116277974D03*
%TD*%
D21*
%TO.C,R106*%
X166106726Y-124368636D03*
X167681526Y-124368636D03*
%TD*%
D19*
%TO.C,Q14*%
X119879996Y-120682080D03*
X120895996Y-122968080D03*
X118863996Y-122968080D03*
%TD*%
D23*
%TO.C,R10*%
X122850526Y-69326836D03*
X122850526Y-70901636D03*
%TD*%
D20*
%TO.C,C14*%
X125294768Y-91288946D03*
X125294768Y-89714146D03*
%TD*%
D21*
%TO.C,R331*%
X238750726Y-129728036D03*
X240325526Y-129728036D03*
%TD*%
%TO.C,R310*%
X216144726Y-129728036D03*
X217719526Y-129728036D03*
%TD*%
D22*
%TO.C,R315*%
X205146526Y-114513436D03*
X203571726Y-114513436D03*
%TD*%
D21*
%TO.C,R122*%
X74869926Y-119009236D03*
X76444726Y-119009236D03*
%TD*%
D23*
%TO.C,C6*%
X119904126Y-69301436D03*
X119904126Y-70876236D03*
%TD*%
D19*
%TO.C,D31*%
X187341126Y-110525636D03*
X188357126Y-112811636D03*
X186325126Y-112811636D03*
%TD*%
D21*
%TO.C,R100*%
X147945726Y-129601036D03*
X149520526Y-129601036D03*
%TD*%
%TO.C,R276*%
X126229996Y-124365080D03*
X127804796Y-124365080D03*
%TD*%
D22*
%TO.C,R111*%
X71636506Y-116023974D03*
X70061706Y-116023974D03*
%TD*%
D20*
%TO.C,R172*%
X140147926Y-70901636D03*
X140147926Y-69326836D03*
%TD*%
D21*
%TO.C,R261*%
X104106596Y-119132680D03*
X105681396Y-119132680D03*
%TD*%
D22*
%TO.C,R140*%
X177636548Y-116023974D03*
X176061748Y-116023974D03*
%TD*%
D20*
%TO.C,C40*%
X131746368Y-98756546D03*
X131746368Y-97181746D03*
%TD*%
D22*
%TO.C,R217*%
X116993540Y-116139036D03*
X115418740Y-116139036D03*
%TD*%
D19*
%TO.C,Q33*%
X68037326Y-120482436D03*
X69053326Y-122768436D03*
X67021326Y-122768436D03*
%TD*%
D21*
%TO.C,R158*%
X194580126Y-119136236D03*
X196154926Y-119136236D03*
%TD*%
D19*
%TO.C,Q11*%
X112259996Y-120428080D03*
X113275996Y-122714080D03*
X111243996Y-122714080D03*
%TD*%
%TO.C,Q71*%
X195265926Y-125740236D03*
X196281926Y-128026236D03*
X194249926Y-128026236D03*
%TD*%
D21*
%TO.C,C18*%
X130222368Y-83364146D03*
X131797168Y-83364146D03*
%TD*%
%TO.C,R290*%
X141221584Y-124278720D03*
X142796384Y-124278720D03*
%TD*%
%TO.C,R309*%
X216144726Y-124368636D03*
X217719526Y-124368636D03*
%TD*%
D22*
%TO.C,R126*%
X82136612Y-114524104D03*
X80561812Y-114524104D03*
%TD*%
D21*
%TO.C,R303*%
X208270726Y-129728036D03*
X209845526Y-129728036D03*
%TD*%
D19*
%TO.C,Q44*%
X202200126Y-125740236D03*
X203216126Y-128026236D03*
X201184126Y-128026236D03*
%TD*%
%TO.C,Q10*%
X112259996Y-125482680D03*
X113275996Y-127768680D03*
X111243996Y-127768680D03*
%TD*%
%TO.C,Q8*%
X104893996Y-120555080D03*
X105909996Y-122841080D03*
X103877996Y-122841080D03*
%TD*%
D21*
%TO.C,R324*%
X231257726Y-129728036D03*
X232832526Y-129728036D03*
%TD*%
%TO.C,R127*%
X82159726Y-124267036D03*
X83734526Y-124267036D03*
%TD*%
D19*
%TO.C,D46*%
X116206140Y-110638920D03*
X117222140Y-112924920D03*
X115190140Y-112924920D03*
%TD*%
D22*
%TO.C,R329*%
X235348396Y-113421490D03*
X233773596Y-113421490D03*
%TD*%
D21*
%TO.C,R108*%
X165928926Y-119136236D03*
X167503726Y-119136236D03*
%TD*%
D22*
%TO.C,R5*%
X146878926Y-114767436D03*
X145304126Y-114767436D03*
%TD*%
D19*
%TO.C,Q62*%
X173929926Y-125740236D03*
X174945926Y-128026236D03*
X172913926Y-128026236D03*
%TD*%
%TO.C,D16*%
X180349014Y-110524112D03*
X181365014Y-112810112D03*
X179333014Y-112810112D03*
%TD*%
D24*
%TO.C,D8*%
X160639122Y-103806036D03*
X160639122Y-108406036D03*
%TD*%
D23*
%TO.C,R181*%
X150612726Y-69326836D03*
X150612726Y-70901636D03*
%TD*%
D19*
%TO.C,Q72*%
X195164326Y-120558636D03*
X196180326Y-122844636D03*
X194148326Y-122844636D03*
%TD*%
%TO.C,Q60*%
X239538126Y-120558636D03*
X240554126Y-122844636D03*
X238522126Y-122844636D03*
%TD*%
%TO.C,D67*%
X139071220Y-110778112D03*
X140087220Y-113064112D03*
X138055220Y-113064112D03*
%TD*%
D22*
%TO.C,R328*%
X235348396Y-114921360D03*
X233773596Y-114921360D03*
%TD*%
D19*
%TO.C,Q53*%
X224679126Y-125740236D03*
X225695126Y-128026236D03*
X223663126Y-128026236D03*
%TD*%
D21*
%TO.C,R143*%
X179949726Y-129601036D03*
X181524526Y-129601036D03*
%TD*%
D22*
%TO.C,R308*%
X208626326Y-114513436D03*
X207051526Y-114513436D03*
%TD*%
D21*
%TO.C,R325*%
X231257726Y-119136236D03*
X232832526Y-119136236D03*
%TD*%
D19*
%TO.C,D64*%
X123206126Y-110638920D03*
X124222126Y-112924920D03*
X122190126Y-112924920D03*
%TD*%
D21*
%TO.C,R291*%
X141214726Y-129474036D03*
X142789526Y-129474036D03*
%TD*%
D19*
%TO.C,D28*%
X207849086Y-110524112D03*
X208865086Y-112810112D03*
X206833086Y-112810112D03*
%TD*%
D22*
%TO.C,R129*%
X84623526Y-118933036D03*
X83048726Y-118933036D03*
%TD*%
D19*
%TO.C,Q50*%
X216932126Y-125740236D03*
X217948126Y-128026236D03*
X215916126Y-128026236D03*
%TD*%
%TO.C,Q63*%
X173929926Y-120558636D03*
X174945926Y-122844636D03*
X172913926Y-122844636D03*
%TD*%
%TO.C,Q21*%
X134515984Y-120595720D03*
X135531984Y-122881720D03*
X133499984Y-122881720D03*
%TD*%
D23*
%TO.C,C38*%
X125294768Y-85091346D03*
X125294768Y-86666146D03*
%TD*%
D22*
%TO.C,R268*%
X123993526Y-114639166D03*
X122418726Y-114639166D03*
%TD*%
D19*
%TO.C,Q69*%
X187976126Y-120558636D03*
X188992126Y-122844636D03*
X186960126Y-122844636D03*
%TD*%
D23*
%TO.C,C37*%
X144923126Y-79664636D03*
X144923126Y-81239436D03*
%TD*%
D21*
%TO.C,R156*%
X194376926Y-124368636D03*
X195951726Y-124368636D03*
%TD*%
D19*
%TO.C,D1*%
X146091526Y-110779636D03*
X147107526Y-113065636D03*
X145075526Y-113065636D03*
%TD*%
D23*
%TO.C,R173*%
X141671926Y-69326836D03*
X141671926Y-70901636D03*
%TD*%
D19*
%TO.C,Q54*%
X224679126Y-120558636D03*
X225695126Y-122844636D03*
X223663126Y-122844636D03*
%TD*%
%TO.C,D21*%
X142560926Y-110779636D03*
X143576926Y-113065636D03*
X141544926Y-113065636D03*
%TD*%
D21*
%TO.C,R101*%
X147945726Y-119009236D03*
X149520526Y-119009236D03*
%TD*%
%TO.C,R264*%
X111472596Y-119005680D03*
X113047396Y-119005680D03*
%TD*%
D19*
%TO.C,Q18*%
X127017396Y-120682080D03*
X128033396Y-122968080D03*
X126001396Y-122968080D03*
%TD*%
D23*
%TO.C,C102*%
X133112126Y-69326836D03*
X133112126Y-70901636D03*
%TD*%
D22*
%TO.C,R218*%
X116993540Y-114639166D03*
X115418740Y-114639166D03*
%TD*%
%TO.C,R37*%
X184636534Y-116023974D03*
X183061734Y-116023974D03*
%TD*%
%TO.C,R119*%
X75136626Y-114524104D03*
X73561826Y-114524104D03*
%TD*%
D19*
%TO.C,Q36*%
X75581126Y-120431636D03*
X76597126Y-122717636D03*
X74565126Y-122717636D03*
%TD*%
D23*
%TO.C,LB4*%
X146447126Y-79664636D03*
X146447126Y-81239436D03*
%TD*%
D21*
%TO.C,R136*%
X89398726Y-119009236D03*
X90973526Y-119009236D03*
%TD*%
D19*
%TO.C,Q23*%
X142008984Y-125650320D03*
X143024984Y-127936320D03*
X140992984Y-127936320D03*
%TD*%
D22*
%TO.C,R3*%
X146878926Y-116266036D03*
X145304126Y-116266036D03*
%TD*%
D20*
%TO.C,C13*%
X125269368Y-98807346D03*
X125269368Y-97232546D03*
%TD*%
%TO.C,C42*%
X126767968Y-98756546D03*
X126767968Y-97181746D03*
%TD*%
D19*
%TO.C,D23*%
X74349226Y-110524112D03*
X75365226Y-112810112D03*
X73333226Y-112810112D03*
%TD*%
%TO.C,Q30*%
X166894126Y-120558636D03*
X167910126Y-122844636D03*
X165878126Y-122844636D03*
%TD*%
D21*
%TO.C,R269*%
X119092596Y-124365080D03*
X120667396Y-124365080D03*
%TD*%
D22*
%TO.C,R289*%
X139858620Y-114778104D03*
X138283820Y-114778104D03*
%TD*%
D19*
%TO.C,D27*%
X200849100Y-110524112D03*
X201865100Y-112810112D03*
X199833100Y-112810112D03*
%TD*%
D22*
%TO.C,R154*%
X188128526Y-116012036D03*
X186553726Y-116012036D03*
%TD*%
D19*
%TO.C,D66*%
X135571100Y-110778112D03*
X136587100Y-113064112D03*
X134555100Y-113064112D03*
%TD*%
D21*
%TO.C,R332*%
X238750726Y-119136236D03*
X240325526Y-119136236D03*
%TD*%
D19*
%TO.C,D7*%
X183849134Y-110524112D03*
X184865134Y-112810112D03*
X182833134Y-112810112D03*
%TD*%
D21*
%TO.C,R311*%
X216144726Y-119136236D03*
X217719526Y-119136236D03*
%TD*%
D19*
%TO.C,Q45*%
X202200126Y-120558636D03*
X203216126Y-122844636D03*
X201184126Y-122844636D03*
%TD*%
D21*
%TO.C,R277*%
X126228726Y-129728036D03*
X127803526Y-129728036D03*
%TD*%
D23*
%TO.C,C105*%
X147310726Y-69326836D03*
X147310726Y-70901636D03*
%TD*%
D22*
%TO.C,R133*%
X78636492Y-114524104D03*
X77061692Y-114524104D03*
%TD*%
D19*
%TO.C,Q66*%
X180737126Y-120431636D03*
X181753126Y-122717636D03*
X179721126Y-122717636D03*
%TD*%
D21*
%TO.C,R47*%
X173091726Y-129728036D03*
X174666526Y-129728036D03*
%TD*%
%TO.C,R149*%
X187188726Y-124368636D03*
X188763526Y-124368636D03*
%TD*%
%TO.C,R318*%
X223891726Y-119136236D03*
X225466526Y-119136236D03*
%TD*%
D19*
%TO.C,Q13*%
X119879996Y-125736680D03*
X120895996Y-128022680D03*
X118863996Y-128022680D03*
%TD*%
%TO.C,D25*%
X77849092Y-110524112D03*
X78865092Y-112810112D03*
X76833092Y-112810112D03*
%TD*%
D20*
%TO.C,R164*%
X130165726Y-70901636D03*
X130165726Y-69326836D03*
%TD*%
D21*
%TO.C,R259*%
X104106596Y-124238080D03*
X105681396Y-124238080D03*
%TD*%
%TO.C,R113*%
X67249926Y-124292436D03*
X68824726Y-124292436D03*
%TD*%
%TO.C,R114*%
X67249926Y-129651836D03*
X68824726Y-129651836D03*
%TD*%
D19*
%TO.C,Q20*%
X134515984Y-125650320D03*
X135531984Y-127936320D03*
X133499984Y-127936320D03*
%TD*%
%TO.C,Q24*%
X142008984Y-120595720D03*
X143024984Y-122881720D03*
X140992984Y-122881720D03*
%TD*%
D21*
%TO.C,R262*%
X111472596Y-124111080D03*
X113047396Y-124111080D03*
%TD*%
D20*
%TO.C,C35*%
X136724768Y-98756546D03*
X136724768Y-97181746D03*
%TD*%
D19*
%TO.C,Q59*%
X239538126Y-125740236D03*
X240554126Y-128026236D03*
X238522126Y-128026236D03*
%TD*%
%TO.C,D26*%
X197349234Y-110524112D03*
X198365234Y-112810112D03*
X196333234Y-112810112D03*
%TD*%
D21*
%TO.C,R292*%
X141221584Y-119173320D03*
X142796384Y-119173320D03*
%TD*%
D19*
%TO.C,D29*%
X204359126Y-110551036D03*
X205375126Y-112837036D03*
X203343126Y-112837036D03*
%TD*%
%TO.C,Q39*%
X82947126Y-120457036D03*
X83963126Y-122743036D03*
X81931126Y-122743036D03*
%TD*%
D23*
%TO.C,C104*%
X143170526Y-69326836D03*
X143170526Y-70901636D03*
%TD*%
%TO.C,R62*%
X129739768Y-97181746D03*
X129739768Y-98756546D03*
%TD*%
D19*
%TO.C,D50*%
X234560996Y-109421498D03*
X235576996Y-111707498D03*
X233544996Y-111707498D03*
%TD*%
D21*
%TO.C,R330*%
X238750726Y-124368636D03*
X240325526Y-124368636D03*
%TD*%
D22*
%TO.C,R38*%
X184636534Y-114524104D03*
X183061734Y-114524104D03*
%TD*%
D19*
%TO.C,Q51*%
X216932126Y-120558636D03*
X217948126Y-122844636D03*
X215916126Y-122844636D03*
%TD*%
D21*
%TO.C,R135*%
X89398726Y-129601036D03*
X90973526Y-129601036D03*
%TD*%
D22*
%TO.C,R257*%
X113493420Y-116139036D03*
X111918620Y-116139036D03*
%TD*%
%TO.C,R258*%
X113493420Y-114639166D03*
X111918620Y-114639166D03*
%TD*%
D21*
%TO.C,R323*%
X231257726Y-124368636D03*
X232832526Y-124368636D03*
%TD*%
D22*
%TO.C,R314*%
X205146526Y-116012036D03*
X203571726Y-116012036D03*
%TD*%
%TO.C,R275*%
X120493406Y-114639166D03*
X118918606Y-114639166D03*
%TD*%
D19*
%TO.C,Q16*%
X104893996Y-125609680D03*
X105909996Y-127895680D03*
X103877996Y-127895680D03*
%TD*%
D23*
%TO.C,C41*%
X140788768Y-82221146D03*
X140788768Y-83795946D03*
%TD*%
D19*
%TO.C,Q56*%
X232045126Y-125740236D03*
X233061126Y-128026236D03*
X231029126Y-128026236D03*
%TD*%
D22*
%TO.C,R288*%
X139858620Y-116277974D03*
X138283820Y-116277974D03*
%TD*%
M02*
