M48
; DRILL file KiCad 10.0.4 date 2026-08-13T09:39:39
; FORMAT={-:-/ absolute / metric / decimal}
; #@! TF.CreationDate,2026-08-13T09:39:39+08:00
; #@! TF.GenerationSoftware,Kicad,Pcbnew,10.0.4
; #@! TF.FileFunction,Plated,1,2,PTH
FMAT,2
METRIC
; #@! TA.AperFunction,Plated,PTH,ViaDrill
T1C0.508
; #@! TA.AperFunction,Plated,PTH,ComponentDrill
T2C0.635
; #@! TA.AperFunction,Plated,PTH,ComponentDrill
T3C0.800
; #@! TA.AperFunction,Plated,PTH,ComponentDrill
T4C0.889
; #@! TA.AperFunction,Plated,PTH,ComponentDrill
T5C1.200
; #@! TA.AperFunction,Plated,PTH,ComponentDrill
T6C1.270
; #@! TA.AperFunction,Plated,PTH,ComponentDrill
T7C1.400
; #@! TA.AperFunction,Plated,PTH,ComponentDrill
T8C2.032
%
G90
G05
T1
X64.024Y-104.328
X64.405Y-119.568
X64.5Y-58.0
X64.5Y-60.0
X64.5Y-62.0
X64.5Y-64.0
X64.5Y-66.0
X64.5Y-68.0
X64.5Y-70.0
X64.5Y-72.0
X64.5Y-74.0
X64.5Y-76.0
X64.5Y-78.0
X64.5Y-80.0
X64.5Y-82.0
X64.5Y-84.0
X64.5Y-86.0
X64.5Y-88.0
X64.5Y-90.0
X64.5Y-126.0
X64.5Y-128.0
X64.5Y-130.0
X66.0Y-131.5
X66.082Y-122.641
X66.31Y-119.06
X67.072Y-125.664
X67.453Y-90.104
X67.5Y-72.0
X68.215Y-104.328
X68.215Y-106.36
X68.215Y-110.551
X68.5Y-115.0
X69.0Y-131.5
X69.5Y-72.0
X70.5Y-69.0
X70.5Y-71.0
X70.5Y-73.0
X70.882Y-120.203
X70.882Y-123.124
X70.882Y-128.712
X71.0Y-131.5
X71.263Y-88.326
X71.644Y-130.109
X71.707Y-65.53
X71.771Y-117.155
X71.771Y-118.552
X72.279Y-86.548
X72.279Y-88.326
X72.279Y-121.346
X72.5Y-69.0
X72.5Y-71.0
X72.5Y-73.0
X72.66Y-109.916
X72.787Y-59.497
X73.0Y-131.5
X73.422Y-126.553
X73.803Y-121.473
X73.866Y-83.056
X73.93Y-73.975
X74.438Y-117.028
X74.5Y-69.0
X74.5Y-71.0
X74.5Y-73.0
X74.5Y-106.0
X74.755Y-135.761
X75.327Y-76.642
X75.327Y-80.579
X75.5Y-139.0
X75.5Y-141.0
X75.5Y-143.0
X76.089Y-109.916
X76.089Y-116.901
X76.5Y-99.0
X76.5Y-106.0
X77.0Y-131.5
X78.375Y-122.87
X78.375Y-128.712
X78.5Y-99.0
X79.0Y-131.5
X79.327Y-83.056
X79.5Y-70.0
X79.5Y-72.0
X79.5Y-75.0
X79.5Y-77.0
X79.5Y-106.0
X79.645Y-116.901
X79.772Y-110.043
X79.772Y-130.109
X80.5Y-99.0
X80.5Y-140.0
X80.5Y-142.0
X80.788Y-117.155
X80.915Y-89.088
X80.915Y-126.68
X81.0Y-131.5
X81.169Y-103.82
X81.5Y-70.0
X81.5Y-72.0
X81.5Y-75.0
X81.5Y-77.0
X82.566Y-103.439
X82.693Y-79.309
X82.947Y-117.155
X83.137Y-135.634
X83.201Y-102.296
X83.328Y-78.293
X83.5Y-70.0
X83.5Y-72.0
X83.5Y-75.0
X83.5Y-77.0
X83.709Y-111.821
X83.836Y-114.234
X84.0Y-131.5
X84.026Y-89.025
X84.471Y-81.087
X84.471Y-101.661
X85.487Y-122.997
X85.487Y-128.585
X85.5Y-70.0
X85.5Y-72.0
X85.5Y-75.0
X85.5Y-77.0
X85.5Y-139.0
X85.5Y-141.0
X85.5Y-143.0
X85.741Y-97.724
X85.868Y-96.073
X85.868Y-101.534
X85.868Y-118.933
X86.0Y-131.5
X86.757Y-95.311
X86.757Y-101.026
X86.884Y-96.835
X87.392Y-62.926
X87.519Y-61.402
X87.519Y-82.357
X87.519Y-111.821
X87.76Y-64.565
X88.0Y-131.5
X88.154Y-126.553
X88.281Y-119.06
X88.408Y-114.234
X88.471Y-135.126
X88.535Y-110.043
X89.17Y-121.6
X89.805Y-61.402
X90.5Y-137.0
X90.5Y-139.0
X90.5Y-141.0
X90.5Y-143.0
X90.567Y-62.926
X91.837Y-64.565
X91.964Y-120.457
X92.0Y-131.5
X92.98Y-122.616
X92.98Y-128.839
X93.361Y-92.644
X94.0Y-131.5
X94.123Y-67.498
X94.123Y-69.784
X94.25Y-57.846
X94.25Y-59.624
X94.25Y-61.402
X94.25Y-93.533
X94.631Y-129.474
X94.936Y-127.594
X95.012Y-94.422
X95.063Y-123.683
X95.063Y-125.74
X95.393Y-71.308
X95.5Y-140.0
X95.5Y-142.0
X95.99Y-125.198
X96.0Y-131.5
X96.028Y-111.313
X96.028Y-114.488
X96.244Y-54.913
X96.663Y-110.043
X96.683Y-127.698
X96.755Y-122.79
X97.222Y-129.296
X97.425Y-111.313
X98.0Y-131.5
X98.373Y-120.907
X98.695Y-114.488
X99.305Y-129.271
X99.965Y-111.313
X99.965Y-117.028
X100.0Y-131.5
X100.33Y-122.028
X101.108Y-92.644
X101.235Y-111.313
X101.235Y-116.901
X101.286Y-129.347
X101.362Y-102.677
X101.425Y-54.913
X101.5Y-99.0
X101.5Y-137.0
X101.5Y-139.0
X101.5Y-141.0
X101.5Y-143.0
X101.616Y-94.422
X101.971Y-127.947
X102.0Y-131.5
X102.124Y-121.092
X102.505Y-93.66
X102.505Y-116.901
X102.568Y-71.372
X102.759Y-126.553
X103.775Y-111.313
X103.775Y-116.901
X103.965Y-64.387
X104.029Y-102.804
X105.045Y-111.313
X105.172Y-115.377
X105.311Y-56.03
X106.0Y-131.5
X106.061Y-110.043
X106.569Y-102.804
X106.696Y-71.181
X106.696Y-75.118
X106.886Y-65.606
X107.077Y-94.295
X107.458Y-122.489
X107.458Y-128.712
X107.5Y-137.0
X107.5Y-139.0
X107.5Y-141.0
X107.5Y-143.0
X108.0Y-131.5
X108.105Y-56.157
X108.601Y-130.109
X109.121Y-46.505
X109.363Y-71.562
X109.49Y-100.772
X109.49Y-102.677
X109.5Y-99.0
X109.617Y-118.679
X109.617Y-121.6
X109.998Y-110.043
X109.998Y-117.536
X110.0Y-131.5
X110.125Y-122.743
X110.125Y-126.299
X110.315Y-134.999
X110.379Y-113.726
X110.633Y-67.879
X110.633Y-115.377
X111.5Y-140.0
X111.5Y-142.0
X111.992Y-54.913
X112.538Y-102.677
X113.0Y-131.5
X113.427Y-95.311
X114.189Y-96.073
X114.189Y-110.043
X114.316Y-114.615
X114.316Y-121.6
X114.43Y-65.174
X114.57Y-71.435
X114.57Y-74.864
X115.0Y-131.5
X115.078Y-96.835
X115.078Y-128.585
X115.332Y-122.362
X115.967Y-130.109
X116.221Y-97.47
X116.221Y-117.028
X116.729Y-120.584
X117.0Y-131.5
X117.11Y-73.213
X117.11Y-109.027
X117.364Y-105.217
X117.491Y-90.485
X117.5Y-137.0
X117.5Y-139.0
X117.5Y-141.0
X117.5Y-143.0
X117.554Y-42.924
X117.745Y-114.615
X117.745Y-122.616
X117.745Y-126.553
X118.5Y-100.0
X118.634Y-109.154
X118.761Y-104.455
X118.761Y-105.979
X119.332Y-66.089
X119.396Y-98.359
X119.637Y-55.345
X119.637Y-57.554
X119.904Y-71.943
X120.031Y-106.868
X120.539Y-109.154
X121.0Y-131.5
X121.047Y-59.116
X121.136Y-54.049
X121.174Y-78.039
X121.174Y-106.868
X121.301Y-114.107
X121.936Y-58.989
X122.317Y-118.298
X122.444Y-78.039
X122.444Y-123.124
X122.444Y-128.458
X122.5Y-137.0
X122.5Y-139.0
X122.5Y-141.0
X122.5Y-143.0
X122.571Y-64.45
X122.698Y-117.409
X122.825Y-80.452
X122.952Y-58.989
X123.0Y-131.5
X123.206Y-81.468
X123.333Y-130.109
X123.714Y-94.803
X123.968Y-78.42
X123.968Y-84.643
X124.095Y-90.739
X124.095Y-98.74
X124.222Y-100.01
X124.285Y-53.414
X124.666Y-136.523
X124.73Y-113.853
X124.857Y-106.741
X124.857Y-126.68
X124.984Y-78.166
X125.0Y-131.5
X125.111Y-77.15
X125.238Y-115.504
X125.619Y-70.927
X125.619Y-109.154
X126.254Y-94.803
X126.254Y-110.678
X126.5Y-141.0
X126.5Y-143.0
X126.762Y-100.137
X127.016Y-103.693
X127.143Y-66.101
X127.143Y-70.8
X127.524Y-82.357
X127.524Y-96.454
X127.778Y-104.328
X127.905Y-84.135
X128.0Y-131.5
X128.032Y-86.675
X128.032Y-89.723
X128.032Y-117.663
X128.07Y-63.879
X128.159Y-73.848
X128.667Y-72.197
X128.73Y-136.015
X129.5Y-87.0
X129.5Y-89.0
X129.5Y-91.0
X129.5Y-93.0
X129.683Y-95.565
X129.81Y-100.264
X129.81Y-122.87
X129.81Y-128.712
X130.0Y-131.5
X130.191Y-82.357
X130.699Y-78.928
X130.826Y-100.264
X130.826Y-130.109
X131.207Y-110.678
X131.461Y-104.328
X131.5Y-87.0
X131.5Y-89.0
X131.5Y-91.0
X131.5Y-93.0
X131.55Y-55.37
X131.55Y-57.605
X131.715Y-95.946
X131.715Y-99.756
X131.842Y-84.897
X132.0Y-131.5
X132.477Y-122.743
X132.477Y-126.68
X132.5Y-136.0
X132.5Y-138.0
X132.5Y-140.0
X132.5Y-143.0
X132.731Y-121.6
X133.366Y-113.853
X133.455Y-54.506
X133.5Y-87.0
X133.5Y-89.0
X133.5Y-91.0
X133.5Y-93.0
X133.62Y-115.504
X133.747Y-110.424
X134.128Y-99.883
X134.255Y-68.641
X134.509Y-70.927
X134.75Y-64.565
X134.89Y-118.044
X135.0Y-131.5
X135.271Y-82.611
X135.436Y-60.577
X135.5Y-87.0
X135.5Y-89.0
X135.5Y-91.0
X135.5Y-93.0
X136.033Y-71.943
X136.414Y-117.282
X136.477Y-54.76
X136.668Y-95.946
X136.795Y-85.151
X136.795Y-100.137
X136.922Y-82.357
X137.0Y-131.5
X137.049Y-122.87
X137.049Y-128.585
X137.5Y-87.0
X137.5Y-89.0
X137.5Y-91.0
X137.5Y-93.0
X137.557Y-110.678
X137.557Y-117.409
X137.557Y-118.806
X138.192Y-79.309
X138.446Y-130.109
X138.5Y-136.0
X138.5Y-138.0
X138.5Y-140.0
X138.5Y-142.0
X138.573Y-90.358
X138.7Y-66.105
X138.7Y-71.816
X138.7Y-82.357
X138.954Y-100.01
X138.954Y-121.473
X139.0Y-131.5
X139.081Y-97.216
X139.208Y-95.819
X139.462Y-85.151
X139.843Y-117.155
X139.97Y-122.489
X139.97Y-126.553
X140.25Y-63.99
X141.113Y-110.678
X141.367Y-99.883
X141.557Y-136.904
X141.875Y-79.182
X141.875Y-88.707
X141.875Y-94.549
X142.383Y-82.23
X142.383Y-117.282
X143.0Y-131.5
X143.018Y-79.436
X143.399Y-80.452
X143.5Y-139.0
X143.5Y-141.0
X143.5Y-142.0
X143.653Y-101.026
X143.725Y-54.662
X143.725Y-57.022
X144.161Y-70.927
X144.161Y-114.361
X144.161Y-121.346
X144.5Y-131.5
X144.669Y-122.997
X144.669Y-128.585
X144.796Y-110.678
X144.923Y-72.578
X144.923Y-101.28
X145.558Y-120.076
X145.742Y-54.103
X145.746Y-59.189
X145.939Y-101.28
X145.939Y-130.109
X146.066Y-82.738
X146.193Y-117.155
X146.226Y-64.703
X146.32Y-122.235
X146.5Y-131.5
X146.574Y-126.553
X146.955Y-101.28
X147.069Y-50.417
X147.209Y-120.584
X147.59Y-114.361
X147.844Y-79.182
X148.059Y-63.07
X148.098Y-72.578
X148.161Y-103.122
X148.225Y-95.438
X148.288Y-99.566
X148.352Y-113.091
X148.5Y-137.0
X148.5Y-139.0
X148.5Y-141.0
X148.5Y-143.0
X148.733Y-80.071
X148.796Y-66.105
X149.508Y-116.757
X149.622Y-79.309
X150.0Y-131.5
X150.511Y-79.944
X151.4Y-79.182
X151.4Y-121.981
X151.4Y-128.712
X151.469Y-68.215
X151.527Y-64.832
X151.527Y-113.599
X151.654Y-120.838
X151.835Y-118.624
X152.0Y-131.5
X152.026Y-130.109
X152.111Y-80.071
X152.465Y-122.928
X152.67Y-109.916
X152.924Y-79.309
X152.924Y-90.231
X153.178Y-124.775
X153.178Y-131.768
X153.305Y-126.172
X153.5Y-136.0
X153.5Y-138.0
X153.5Y-140.0
X153.5Y-142.0
X153.813Y-70.927
X153.94Y-110.17
X154.067Y-75.118
X154.067Y-79.944
X154.348Y-54.122
X154.348Y-57.068
X155.083Y-90.485
X155.083Y-98.867
X155.083Y-109.535
X155.143Y-125.228
X155.5Y-72.0
X155.56Y-123.657
X155.908Y-100.201
X156.353Y-109.408
X156.645Y-59.002
X156.988Y-64.793
X157.115Y-113.599
X157.144Y-72.451
X157.496Y-109.027
X157.686Y-102.868
X158.347Y-60.526
X158.385Y-112.837
X158.5Y-131.0
X158.5Y-136.0
X158.5Y-138.0
X158.5Y-140.0
X158.5Y-142.0
X158.829Y-51.331
X158.829Y-54.049
X158.88Y-63.828
X159.02Y-109.281
X159.374Y-129.832
X159.655Y-113.345
X160.5Y-129.0
X160.5Y-131.0
X162.5Y-129.0
X162.5Y-131.0
X163.084Y-121.6
X163.092Y-127.243
X163.147Y-135.38
X163.592Y-90.536
X163.592Y-96.759
X163.908Y-78.544
X164.227Y-111.44
X164.227Y-116.393
X164.227Y-128.966
X164.354Y-89.723
X164.354Y-98.105
X164.354Y-106.233
X164.5Y-140.0
X164.5Y-142.0
X164.507Y-131.552
X164.544Y-45.464
X164.608Y-126.426
X164.735Y-121.473
X164.798Y-50.417
X165.116Y-90.485
X165.116Y-96.708
X165.497Y-111.44
X165.497Y-116.52
X165.5Y-64.0
X165.878Y-89.723
X165.878Y-97.597
X166.5Y-41.0
X166.64Y-90.485
X166.64Y-96.581
X166.767Y-116.52
X167.402Y-89.596
X167.402Y-97.343
X167.5Y-66.0
X167.5Y-73.0
X167.5Y-75.0
X167.5Y-77.0
X168.037Y-111.44
X168.037Y-116.393
X168.354Y-47.369
X168.418Y-90.358
X168.418Y-96.708
X168.481Y-135.38
X168.862Y-53.338
X169.0Y-131.5
X169.307Y-111.44
X169.5Y-68.0
X169.561Y-122.743
X169.561Y-128.712
X169.827Y-81.659
X170.196Y-121.473
X170.5Y-41.0
X170.5Y-43.0
X170.5Y-45.0
X170.5Y-55.0
X170.5Y-140.0
X170.5Y-142.0
X170.831Y-111.44
X170.958Y-90.104
X171.0Y-131.5
X171.148Y-134.618
X171.212Y-130.109
X171.5Y-52.0
X171.5Y-54.0
X171.72Y-126.553
X171.974Y-122.489
X172.5Y-53.0
X172.5Y-55.0
X174.069Y-47.877
X174.133Y-86.548
X174.5Y-136.0
X174.5Y-138.0
X174.5Y-140.0
X174.5Y-142.0
X174.704Y-134.872
X174.768Y-110.297
X174.768Y-111.694
X174.895Y-114.996
X174.895Y-116.139
X175.5Y-53.0
X175.72Y-45.21
X175.847Y-40.257
X175.847Y-41.908
X175.847Y-43.432
X175.911Y-117.409
X176.0Y-131.5
X176.292Y-89.215
X176.5Y-77.0
X176.546Y-122.997
X176.546Y-128.712
X177.054Y-121.727
X177.308Y-93.914
X177.435Y-116.901
X177.5Y-51.0
X177.5Y-64.0
X177.562Y-88.961
X177.943Y-86.675
X178.0Y-131.5
X178.197Y-130.109
X178.324Y-88.072
X178.5Y-55.0
X178.5Y-73.0
X178.5Y-75.0
X178.5Y-77.0
X178.578Y-109.789
X178.578Y-117.028
X178.705Y-121.727
X178.705Y-126.553
X179.5Y-66.0
X179.5Y-90.0
X179.721Y-117.282
X180.5Y-46.0
X180.5Y-53.0
X180.5Y-55.0
X180.5Y-136.0
X180.5Y-138.0
X180.5Y-140.0
X180.5Y-142.0
X180.927Y-40.13
X180.927Y-42.035
X180.927Y-43.94
X181.5Y-68.0
X181.5Y-90.0
X181.753Y-117.028
X182.0Y-131.5
X182.134Y-109.789
X182.5Y-51.0
X182.5Y-53.0
X182.5Y-55.0
X183.404Y-122.743
X183.404Y-128.585
X183.5Y-66.0
X183.5Y-90.0
X184.0Y-131.5
X184.674Y-123.124
X184.928Y-108.773
X185.182Y-121.727
X185.436Y-130.109
X185.5Y-44.0
X185.5Y-46.0
X185.5Y-138.0
X185.5Y-140.0
X185.5Y-142.0
X185.69Y-109.789
X185.753Y-40.003
X185.753Y-42.67
X185.88Y-41.146
X185.944Y-126.553
X186.0Y-131.5
X186.5Y-69.0
X186.5Y-93.0
X187.277Y-136.142
X187.5Y-52.0
X187.5Y-54.0
X188.103Y-117.282
X188.5Y-50.0
X189.119Y-110.297
X189.5Y-64.0
X189.5Y-88.961
X189.5Y-118.171
X189.5Y-131.5
X189.5Y-136.0
X189.5Y-138.0
X189.5Y-140.0
X189.5Y-142.0
X189.627Y-115.123
X190.135Y-117.155
X190.262Y-109.027
X190.389Y-111.44
X190.5Y-41.0
X190.5Y-43.0
X190.5Y-45.0
X190.5Y-48.0
X190.643Y-122.997
X190.643Y-128.712
X191.405Y-119.695
X191.5Y-66.0
X191.5Y-89.0
X191.5Y-131.5
X192.294Y-130.109
X192.5Y-54.0
X192.5Y-56.0
X192.5Y-96.0
X193.183Y-126.553
X193.437Y-121.854
X193.5Y-68.0
X193.5Y-89.0
X193.5Y-131.5
X194.5Y-52.0
X194.5Y-54.0
X194.5Y-56.0
X194.5Y-96.0
X194.58Y-109.408
X194.58Y-111.186
X194.961Y-88.326
X194.961Y-94.041
X194.961Y-117.155
X195.469Y-115.123
X195.5Y-108.0
X196.5Y-96.0
X196.5Y-131.5
X196.5Y-136.0
X196.5Y-138.0
X196.5Y-140.0
X196.5Y-143.0
X197.5Y-70.0
X197.5Y-72.0
X197.5Y-74.0
X197.5Y-76.0
X198.009Y-122.616
X198.009Y-128.585
X198.072Y-41.019
X198.072Y-45.083
X198.199Y-43.178
X198.5Y-47.0
X198.5Y-131.5
X198.771Y-108.138
X199.051Y-117.003
X199.279Y-130.109
X199.533Y-109.408
X199.787Y-88.961
X199.914Y-122.108
X200.295Y-126.68
X200.5Y-131.5
X201.5Y-64.0
X201.5Y-89.0
X201.5Y-137.0
X201.5Y-139.0
X201.5Y-141.0
X201.5Y-143.0
X202.5Y-47.0
X202.5Y-53.0
X202.5Y-55.0
X202.581Y-108.265
X202.835Y-117.028
X202.898Y-40.892
X202.898Y-42.797
X202.898Y-44.956
X203.216Y-109.408
X203.47Y-94.549
X203.5Y-66.0
X203.5Y-89.0
X203.5Y-97.0
X203.5Y-99.0
X204.232Y-121.473
X204.5Y-51.0
X204.5Y-53.0
X204.5Y-55.0
X204.5Y-68.0
X204.5Y-131.5
X204.867Y-92.136
X205.121Y-122.743
X205.121Y-128.458
X205.502Y-90.866
X205.756Y-110.424
X206.01Y-117.155
X206.01Y-121.346
X206.137Y-118.552
X206.5Y-51.0
X206.5Y-53.0
X206.5Y-55.0
X206.5Y-94.0
X206.5Y-131.5
X206.5Y-136.0
X206.5Y-138.0
X206.5Y-140.0
X206.5Y-142.0
X206.518Y-130.109
X206.645Y-109.408
X206.657Y-97.432
X206.772Y-90.739
X206.899Y-126.553
X207.153Y-122.616
X207.5Y-47.0
X207.724Y-45.083
X207.978Y-40.13
X207.978Y-43.178
X208.169Y-90.739
X208.5Y-70.0
X208.5Y-73.0
X208.5Y-75.0
X208.5Y-94.0
X208.677Y-92.136
X209.82Y-112.583
X209.82Y-115.123
X210.5Y-94.0
X210.5Y-131.5
X210.709Y-108.392
X210.836Y-117.536
X211.5Y-136.0
X211.5Y-140.0
X211.5Y-143.0
X211.852Y-118.044
X211.852Y-122.743
X211.852Y-128.585
X211.979Y-119.441
X212.5Y-47.0
X212.5Y-131.5
X212.868Y-118.806
X212.931Y-44.829
X212.995Y-130.109
X213.058Y-40.13
X213.058Y-42.797
X213.5Y-53.0
X213.5Y-64.0
X213.5Y-94.0
X213.63Y-121.727
X214.5Y-51.0
X214.5Y-66.0
X214.5Y-131.5
X214.773Y-126.553
X215.027Y-103.693
X215.027Y-104.709
X215.027Y-105.725
X215.027Y-106.741
X215.5Y-53.0
X215.5Y-94.0
X216.5Y-51.0
X216.5Y-68.0
X217.5Y-49.0
X217.5Y-53.0
X217.5Y-87.0
X217.5Y-136.0
X217.5Y-139.0
X217.5Y-142.0
X217.694Y-110.424
X218.0Y-108.5
X218.5Y-131.5
X219.0Y-110.5
X219.5Y-41.0
X219.5Y-43.0
X219.5Y-45.0
X219.5Y-47.0
X219.5Y-50.0
X219.5Y-51.0
X219.5Y-53.0
X219.5Y-55.0
X219.5Y-57.0
X219.5Y-59.0
X219.5Y-61.0
X219.5Y-63.0
X219.5Y-87.0
X219.599Y-122.235
X219.599Y-128.712
X220.5Y-131.5
X220.615Y-117.028
X221.123Y-123.124
X221.174Y-81.874
X221.5Y-41.0
X221.5Y-43.0
X221.5Y-45.0
X221.5Y-47.0
X221.5Y-49.0
X221.5Y-51.0
X221.5Y-53.0
X221.5Y-55.0
X221.5Y-136.0
X221.5Y-138.0
X221.5Y-140.0
X221.5Y-142.0
X221.631Y-130.109
X221.885Y-117.028
X222.012Y-120.711
X222.114Y-82.459
X222.266Y-122.616
X222.5Y-87.0
X222.5Y-131.5
X222.52Y-126.553
X223.104Y-82.535
X223.155Y-117.028
X223.5Y-41.0
X223.5Y-43.0
X223.5Y-45.0
X223.5Y-47.0
X223.5Y-49.0
X223.5Y-51.0
X223.5Y-53.0
X223.5Y-55.0
X224.171Y-93.406
X224.222Y-82.535
X224.425Y-102.169
X224.425Y-110.678
X224.425Y-117.003
X224.5Y-84.0
X224.5Y-86.0
X224.933Y-100.645
X225.06Y-94.803
X225.5Y-41.0
X225.5Y-43.0
X225.5Y-45.0
X225.5Y-47.0
X225.5Y-49.0
X225.5Y-51.0
X225.5Y-53.0
X225.5Y-55.0
X225.5Y-131.5
X225.543Y-82.382
X225.695Y-110.678
X226.5Y-136.0
X226.5Y-138.0
X226.5Y-140.0
X226.5Y-142.0
X226.711Y-94.93
X226.711Y-100.137
X226.711Y-104.582
X226.965Y-120.584
X227.092Y-116.266
X227.346Y-122.997
X227.346Y-128.712
X227.5Y-41.0
X227.5Y-43.0
X227.5Y-45.0
X227.5Y-47.0
X227.5Y-49.0
X227.5Y-51.0
X227.5Y-53.0
X227.5Y-55.0
X227.5Y-131.5
X228.362Y-130.109
X228.489Y-100.391
X228.87Y-103.439
X228.997Y-93.406
X229.5Y-41.0
X229.5Y-43.0
X229.5Y-45.0
X229.5Y-47.0
X229.5Y-49.0
X229.5Y-51.0
X229.5Y-53.0
X229.5Y-55.0
X229.5Y-131.5
X230.013Y-101.407
X230.013Y-105.217
X230.013Y-121.473
X230.013Y-122.616
X230.013Y-126.553
X230.648Y-110.17
X231.156Y-57.084
X231.41Y-103.439
X231.41Y-114.742
X231.5Y-41.0
X231.5Y-43.0
X231.5Y-45.0
X231.5Y-47.0
X231.5Y-49.0
X231.5Y-51.0
X231.5Y-53.0
X231.5Y-55.0
X231.537Y-101.915
X233.442Y-116.393
X233.5Y-41.0
X233.5Y-43.0
X233.5Y-45.0
X233.5Y-47.0
X233.5Y-49.0
X233.5Y-51.0
X233.5Y-53.0
X233.5Y-55.0
X233.5Y-131.5
X233.5Y-136.0
X233.5Y-138.0
X233.5Y-140.0
X233.5Y-142.0
X233.823Y-88.453
X234.712Y-123.251
X235.0Y-107.5
X235.22Y-116.393
X235.5Y-41.0
X235.5Y-43.0
X235.5Y-45.0
X235.5Y-47.0
X235.5Y-49.0
X235.5Y-51.0
X235.5Y-53.0
X235.5Y-131.5
X236.0Y-106.5
X236.0Y-108.5
X236.49Y-121.219
X236.49Y-130.109
X236.744Y-122.743
X237.0Y-116.5
X237.125Y-119.949
X237.379Y-126.553
X237.5Y-41.0
X237.5Y-43.0
X237.5Y-45.0
X237.5Y-47.0
X237.5Y-49.0
X237.5Y-51.0
X237.5Y-53.0
X237.5Y-55.0
X237.5Y-62.0
X237.5Y-131.5
X237.5Y-136.0
X237.5Y-138.0
X237.5Y-140.0
X237.5Y-142.0
X237.76Y-114.361
X237.887Y-106.487
X238.0Y-108.5
X239.5Y-41.0
X239.5Y-43.0
X239.5Y-45.0
X239.5Y-47.0
X239.5Y-49.0
X239.5Y-51.0
X239.5Y-53.0
X239.5Y-55.0
X239.5Y-57.0
X239.5Y-59.0
X239.5Y-61.0
X239.5Y-63.0
X240.046Y-84.643
X241.316Y-133.538
X241.5Y-41.0
X241.5Y-43.0
X241.5Y-45.0
X241.5Y-47.0
X241.5Y-49.0
X241.5Y-51.0
X241.5Y-53.0
X241.5Y-55.0
X241.5Y-57.0
X241.5Y-59.0
X241.5Y-61.0
X241.5Y-63.0
X241.5Y-116.5
X242.586Y-132.395
X243.094Y-64.45
X243.221Y-63.053
X243.348Y-112.583
X243.5Y-45.0
X243.5Y-47.0
X243.5Y-49.0
X243.5Y-51.0
X243.5Y-53.0
X243.5Y-55.0
X243.5Y-57.0
X243.5Y-59.0
X243.5Y-61.0
X243.5Y-114.5
X243.5Y-134.0
X243.5Y-136.0
X243.5Y-138.0
X243.5Y-140.0
X244.0Y-130.5
X244.5Y-84.0
X244.5Y-86.0
X244.5Y-122.5
X244.5Y-124.5
X244.5Y-126.5
X244.5Y-128.5
X245.0Y-120.5
X245.126Y-63.053
X245.253Y-64.704
X246.5Y-84.0
X246.5Y-86.0
X246.5Y-88.0
X246.5Y-90.0
X246.5Y-92.0
X246.5Y-94.0
X246.5Y-97.0
X246.5Y-99.0
X246.5Y-101.0
X246.5Y-102.0
X246.5Y-104.0
X246.5Y-106.0
X246.777Y-63.053
X247.0Y-117.5
X247.0Y-119.5
X247.031Y-64.831
X248.301Y-63.942
X248.491Y-64.743
T2
X166.021Y-83.754
X168.021Y-83.754
X211.257Y-89.088
X211.36Y-97.724
X213.36Y-97.724
X213.757Y-89.088
X242.602Y-118.679
X244.602Y-118.679
T4
X65.802Y-88.834
X65.802Y-91.374
X68.342Y-59.497
X68.342Y-62.037
X68.342Y-64.577
X68.342Y-67.117
X68.342Y-69.657
X68.342Y-75.499
X68.342Y-78.039
X68.342Y-80.579
X68.342Y-83.119
X73.612Y-41.1
X73.612Y-43.1
X73.612Y-45.1
X78.565Y-41.1
X78.565Y-43.1
X78.565Y-45.1
X79.327Y-59.727
X79.327Y-62.267
X79.327Y-64.807
X79.327Y-67.347
X81.867Y-59.727
X81.867Y-62.267
X81.867Y-64.807
X81.867Y-67.347
X83.518Y-41.1
X83.518Y-43.1
X83.518Y-45.1
X88.471Y-41.1
X88.471Y-43.1
X88.471Y-45.1
X93.424Y-41.1
X93.424Y-43.1
X93.424Y-45.1
X98.377Y-41.1
X98.377Y-43.1
X98.377Y-45.1
X248.5Y-66.355
X248.5Y-68.895
X248.5Y-71.435
X248.5Y-73.975
T5
X73.1Y-140.5
X73.1Y-145.5
X78.1Y-140.5
X78.1Y-145.5
X83.1Y-140.5
X83.1Y-145.5
X88.1Y-140.5
X88.1Y-145.5
X93.1Y-140.5
X93.1Y-145.5
X98.1Y-140.5
X98.1Y-145.5
X104.137Y-39.5
X104.137Y-44.5
X104.6Y-140.5
X104.6Y-145.5
X109.137Y-39.5
X109.137Y-44.5
X109.6Y-140.5
X109.6Y-145.5
X114.137Y-39.5
X114.137Y-44.5
X114.6Y-140.5
X114.6Y-145.5
X119.6Y-140.5
X119.6Y-145.5
X121.141Y-39.5
X121.141Y-44.5
X124.6Y-140.5
X124.6Y-145.5
X126.141Y-39.5
X126.141Y-44.5
X129.6Y-140.5
X129.6Y-145.5
X131.141Y-39.5
X131.141Y-44.5
X136.1Y-140.5
X136.1Y-145.5
X136.141Y-39.5
X136.141Y-44.5
X141.1Y-140.5
X141.1Y-145.5
X141.141Y-39.5
X141.141Y-44.5
X146.1Y-140.5
X146.1Y-145.5
X146.141Y-39.5
X146.141Y-44.5
X151.1Y-140.5
X151.1Y-145.5
X156.1Y-140.5
X156.1Y-145.5
X161.1Y-140.5
X161.1Y-145.5
X165.342Y-68.295
X165.342Y-73.934
X165.346Y-56.078
X165.346Y-61.717
X167.6Y-140.5
X167.6Y-145.5
X168.4Y-39.5
X168.4Y-44.5
X172.6Y-140.5
X172.6Y-145.5
X173.4Y-39.5
X173.4Y-44.5
X176.846Y-56.078
X176.846Y-61.717
X176.848Y-68.295
X176.848Y-73.934
X177.6Y-140.5
X177.6Y-145.5
X178.4Y-39.5
X178.4Y-44.5
X182.6Y-140.5
X182.6Y-145.5
X183.4Y-39.5
X183.4Y-44.5
X187.6Y-140.5
X187.6Y-145.5
X188.346Y-56.078
X188.346Y-61.717
X188.354Y-68.295
X188.354Y-73.934
X188.4Y-39.5
X188.4Y-44.5
X192.6Y-140.5
X192.6Y-145.5
X195.527Y-39.5
X195.527Y-44.5
X199.1Y-140.5
X199.1Y-145.5
X199.835Y-68.295
X199.835Y-73.934
X199.846Y-56.078
X199.846Y-61.717
X200.527Y-39.5
X200.527Y-44.5
X204.1Y-140.5
X204.1Y-145.5
X205.527Y-39.5
X205.527Y-44.5
X209.1Y-140.5
X209.1Y-145.5
X210.527Y-39.5
X210.527Y-44.5
X211.341Y-68.295
X211.341Y-73.934
X211.346Y-56.072
X211.346Y-61.71
X214.1Y-140.5
X214.1Y-145.5
X215.527Y-39.5
X215.527Y-44.5
X219.1Y-140.5
X219.1Y-145.5
X224.1Y-140.5
X224.1Y-145.5
X230.6Y-140.5
X230.6Y-145.5
X235.6Y-140.5
X235.6Y-145.5
X240.6Y-140.5
X240.6Y-145.5
T6
X217.44Y-97.724
X217.567Y-89.088
X222.52Y-97.724
X222.647Y-89.088
X223.108Y-69.403
X223.108Y-79.944
X228.108Y-69.403
X228.108Y-79.944
T7
X170.116Y-57.57
X170.116Y-60.11
X170.116Y-62.65
X170.117Y-69.794
X170.117Y-72.334
X170.117Y-74.874
X181.616Y-57.577
X181.616Y-60.117
X181.616Y-62.657
X181.623Y-69.794
X181.623Y-72.334
X181.623Y-74.874
X193.104Y-69.794
X193.104Y-72.334
X193.104Y-74.874
X193.116Y-57.577
X193.116Y-60.117
X193.116Y-62.657
X204.61Y-69.794
X204.61Y-72.334
X204.61Y-74.874
X204.616Y-57.577
X204.616Y-60.117
X204.616Y-62.657
X216.116Y-57.577
X216.116Y-60.117
X216.116Y-62.657
X216.116Y-69.794
X216.116Y-72.334
X216.116Y-74.874
T8
X236.109Y-56.82
X236.109Y-78.42
T3
G00X74.012Y-39.0
M15
G01X73.212Y-39.0
M16
G05
G00X74.012Y-47.2
M15
G01X73.212Y-47.2
M16
G05
G00X78.965Y-39.0
M15
G01X78.165Y-39.0
M16
G05
G00X78.965Y-47.2
M15
G01X78.165Y-47.2
M16
G05
G00X83.918Y-39.0
M15
G01X83.118Y-39.0
M16
G05
G00X83.918Y-47.2
M15
G01X83.118Y-47.2
M16
G05
G00X88.871Y-39.0
M15
G01X88.071Y-39.0
M16
G05
G00X88.871Y-47.2
M15
G01X88.071Y-47.2
M16
G05
G00X93.824Y-39.0
M15
G01X93.024Y-39.0
M16
G05
G00X93.824Y-47.2
M15
G01X93.024Y-47.2
M16
G05
G00X98.777Y-39.0
M15
G01X97.977Y-39.0
M16
G05
G00X98.777Y-47.2
M15
G01X97.977Y-47.2
M16
G05
M30
